<?xml version="1.0" encoding="utf-8" standalone="no"?>
<!DOCTYPE svg PUBLIC "-//W3C//DTD SVG 1.1//EN"
  "http://www.w3.org/Graphics/SVG/1.1/DTD/svg11.dtd">
<svg xmlns:xlink="http://www.w3.org/1999/xlink" width="509.0775pt" height="307.1725pt" viewBox="0 0 509.0775 307.1725" xmlns="http://www.w3.org/2000/svg" version="1.1">
 <metadata>
  <rdf:RDF xmlns:dc="http://purl.org/dc/elements/1.1/" xmlns:cc="http://creativecommons.org/ns#" xmlns:rdf="http://www.w3.org/1999/02/22-rdf-syntax-ns#">
   <cc:Work>
    <dc:type rdf:resource="http://purl.org/dc/dcmitype/StillImage"/>
    <dc:date>2026-07-14T09:43:52.141486</dc:date>
    <dc:format>image/svg+xml</dc:format>
    <dc:creator>
     <cc:Agent>
      <dc:title>Matplotlib v3.10.8, https://matplotlib.org/</dc:title>
     </cc:Agent>
    </dc:creator>
   </cc:Work>
  </rdf:RDF>
 </metadata>
 <defs>
  <style type="text/css">*{stroke-linejoin: round; stroke-linecap: butt}</style>
 </defs>
 <g id="figure_1">
  <g id="patch_1">
   <path d="M 0 307.1725 
L 509.0775 307.1725 
L 509.0775 0 
L 0 0 
z
" style="fill: #ffffff"/>
  </g>
  <g id="axes_1">
   <g id="patch_2">
    <path d="M 46.271875 268.013125 
L 466.261875 268.013125 
L 466.261875 22.933125 
L 46.271875 22.933125 
z
" style="fill: #ffffff"/>
   </g>
   <g id="matplotlib.axis_1">
    <g id="xtick_1">
     <g id="line2d_1">
      <path d="M 92.868399 268.013125 
L 92.868399 22.933125 
" clip-path="url(#p7787c9396a)" style="fill: none; stroke: #b0b0b0; stroke-opacity: 0.28; stroke-width: 0.8; stroke-linecap: square"/>
     </g>
     <g id="line2d_2">
      <defs>
       <path id="m58339242bd" d="M 0 0 
L 0 3.5 
" style="stroke: #000000; stroke-width: 0.8"/>
      </defs>
      <g>
       <use xlink:href="#m58339242bd" x="92.868399" y="268.013125" style="stroke: #000000; stroke-width: 0.8"/>
      </g>
     </g>
     <g id="text_1">
      <text style="font-size: 10px; font-family: 'Microsoft YaHei'; text-anchor: middle" x="92.868399" y="283.006875" transform="rotate(-0 92.868399 283.006875)">120</text>
     </g>
    </g>
    <g id="xtick_2">
     <g id="line2d_3">
      <path d="M 154.997097 268.013125 
L 154.997097 22.933125 
" clip-path="url(#p7787c9396a)" style="fill: none; stroke: #b0b0b0; stroke-opacity: 0.28; stroke-width: 0.8; stroke-linecap: square"/>
     </g>
     <g id="line2d_4">
      <g>
       <use xlink:href="#m58339242bd" x="154.997097" y="268.013125" style="stroke: #000000; stroke-width: 0.8"/>
      </g>
     </g>
     <g id="text_2">
      <text style="font-size: 10px; font-family: 'Microsoft YaHei'; text-anchor: middle" x="154.997097" y="283.006875" transform="rotate(-0 154.997097 283.006875)">140</text>
     </g>
    </g>
    <g id="xtick_3">
     <g id="line2d_5">
      <path d="M 217.125795 268.013125 
L 217.125795 22.933125 
" clip-path="url(#p7787c9396a)" style="fill: none; stroke: #b0b0b0; stroke-opacity: 0.28; stroke-width: 0.8; stroke-linecap: square"/>
     </g>
     <g id="line2d_6">
      <g>
       <use xlink:href="#m58339242bd" x="217.125795" y="268.013125" style="stroke: #000000; stroke-width: 0.8"/>
      </g>
     </g>
     <g id="text_3">
      <text style="font-size: 10px; font-family: 'Microsoft YaHei'; text-anchor: middle" x="217.125795" y="283.006875" transform="rotate(-0 217.125795 283.006875)">160</text>
     </g>
    </g>
    <g id="xtick_4">
     <g id="line2d_7">
      <path d="M 279.254493 268.013125 
L 279.254493 22.933125 
" clip-path="url(#p7787c9396a)" style="fill: none; stroke: #b0b0b0; stroke-opacity: 0.28; stroke-width: 0.8; stroke-linecap: square"/>
     </g>
     <g id="line2d_8">
      <g>
       <use xlink:href="#m58339242bd" x="279.254493" y="268.013125" style="stroke: #000000; stroke-width: 0.8"/>
      </g>
     </g>
     <g id="text_4">
      <text style="font-size: 10px; font-family: 'Microsoft YaHei'; text-anchor: middle" x="279.254493" y="283.006875" transform="rotate(-0 279.254493 283.006875)">180</text>
     </g>
    </g>
    <g id="xtick_5">
     <g id="line2d_9">
      <path d="M 341.383192 268.013125 
L 341.383192 22.933125 
" clip-path="url(#p7787c9396a)" style="fill: none; stroke: #b0b0b0; stroke-opacity: 0.28; stroke-width: 0.8; stroke-linecap: square"/>
     </g>
     <g id="line2d_10">
      <g>
       <use xlink:href="#m58339242bd" x="341.383192" y="268.013125" style="stroke: #000000; stroke-width: 0.8"/>
      </g>
     </g>
     <g id="text_5">
      <text style="font-size: 10px; font-family: 'Microsoft YaHei'; text-anchor: middle" x="341.383192" y="283.006875" transform="rotate(-0 341.383192 283.006875)">200</text>
     </g>
    </g>
    <g id="xtick_6">
     <g id="line2d_11">
      <path d="M 403.51189 268.013125 
L 403.51189 22.933125 
" clip-path="url(#p7787c9396a)" style="fill: none; stroke: #b0b0b0; stroke-opacity: 0.28; stroke-width: 0.8; stroke-linecap: square"/>
     </g>
     <g id="line2d_12">
      <g>
       <use xlink:href="#m58339242bd" x="403.51189" y="268.013125" style="stroke: #000000; stroke-width: 0.8"/>
      </g>
     </g>
     <g id="text_6">
      <text style="font-size: 10px; font-family: 'Microsoft YaHei'; text-anchor: middle" x="403.51189" y="283.006875" transform="rotate(-0 403.51189 283.006875)">220</text>
     </g>
    </g>
    <g id="xtick_7">
     <g id="line2d_13">
      <path d="M 465.640588 268.013125 
L 465.640588 22.933125 
" clip-path="url(#p7787c9396a)" style="fill: none; stroke: #b0b0b0; stroke-opacity: 0.28; stroke-width: 0.8; stroke-linecap: square"/>
     </g>
     <g id="line2d_14">
      <g>
       <use xlink:href="#m58339242bd" x="465.640588" y="268.013125" style="stroke: #000000; stroke-width: 0.8"/>
      </g>
     </g>
     <g id="text_7">
      <text style="font-size: 10px; font-family: 'Microsoft YaHei'; text-anchor: middle" x="465.640588" y="283.006875" transform="rotate(-0 465.640588 283.006875)">240</text>
     </g>
    </g>
    <g id="text_8">
     <text style="font-size: 10px; font-family: 'Microsoft YaHei'; text-anchor: middle" x="256.266875" y="297.486562" transform="rotate(-0 256.266875 297.486562)">time (ps)</text>
    </g>
   </g>
   <g id="matplotlib.axis_2">
    <g id="ytick_1">
     <g id="line2d_15">
      <path d="M 46.271875 265.702946 
L 466.261875 265.702946 
" clip-path="url(#p7787c9396a)" style="fill: none; stroke: #b0b0b0; stroke-opacity: 0.28; stroke-width: 0.8; stroke-linecap: square"/>
     </g>
     <g id="line2d_16">
      <defs>
       <path id="m5394758517" d="M 0 0 
L -3.5 0 
" style="stroke: #000000; stroke-width: 0.8"/>
      </defs>
      <g>
       <use xlink:href="#m5394758517" x="46.271875" y="265.702946" style="stroke: #000000; stroke-width: 0.8"/>
      </g>
     </g>
     <g id="text_9">
      <text style="font-size: 10px; font-family: 'Microsoft YaHei'; text-anchor: end" x="39.271875" y="269.699821" transform="rotate(-0 39.271875 269.699821)">0</text>
     </g>
    </g>
    <g id="ytick_2">
     <g id="line2d_17">
      <path d="M 46.271875 219.499358 
L 466.261875 219.499358 
" clip-path="url(#p7787c9396a)" style="fill: none; stroke: #b0b0b0; stroke-opacity: 0.28; stroke-width: 0.8; stroke-linecap: square"/>
     </g>
     <g id="line2d_18">
      <g>
       <use xlink:href="#m5394758517" x="46.271875" y="219.499358" style="stroke: #000000; stroke-width: 0.8"/>
      </g>
     </g>
     <g id="text_10">
      <text style="font-size: 10px; font-family: 'Microsoft YaHei'; text-anchor: end" x="39.271875" y="223.496233" transform="rotate(-0 39.271875 223.496233)">100</text>
     </g>
    </g>
    <g id="ytick_3">
     <g id="line2d_19">
      <path d="M 46.271875 173.29577 
L 466.261875 173.29577 
" clip-path="url(#p7787c9396a)" style="fill: none; stroke: #b0b0b0; stroke-opacity: 0.28; stroke-width: 0.8; stroke-linecap: square"/>
     </g>
     <g id="line2d_20">
      <g>
       <use xlink:href="#m5394758517" x="46.271875" y="173.29577" style="stroke: #000000; stroke-width: 0.8"/>
      </g>
     </g>
     <g id="text_11">
      <text style="font-size: 10px; font-family: 'Microsoft YaHei'; text-anchor: end" x="39.271875" y="177.292645" transform="rotate(-0 39.271875 177.292645)">200</text>
     </g>
    </g>
    <g id="ytick_4">
     <g id="line2d_21">
      <path d="M 46.271875 127.092183 
L 466.261875 127.092183 
" clip-path="url(#p7787c9396a)" style="fill: none; stroke: #b0b0b0; stroke-opacity: 0.28; stroke-width: 0.8; stroke-linecap: square"/>
     </g>
     <g id="line2d_22">
      <g>
       <use xlink:href="#m5394758517" x="46.271875" y="127.092183" style="stroke: #000000; stroke-width: 0.8"/>
      </g>
     </g>
     <g id="text_12">
      <text style="font-size: 10px; font-family: 'Microsoft YaHei'; text-anchor: end" x="39.271875" y="131.089058" transform="rotate(-0 39.271875 131.089058)">300</text>
     </g>
    </g>
    <g id="ytick_5">
     <g id="line2d_23">
      <path d="M 46.271875 80.888595 
L 466.261875 80.888595 
" clip-path="url(#p7787c9396a)" style="fill: none; stroke: #b0b0b0; stroke-opacity: 0.28; stroke-width: 0.8; stroke-linecap: square"/>
     </g>
     <g id="line2d_24">
      <g>
       <use xlink:href="#m5394758517" x="46.271875" y="80.888595" style="stroke: #000000; stroke-width: 0.8"/>
      </g>
     </g>
     <g id="text_13">
      <text style="font-size: 10px; font-family: 'Microsoft YaHei'; text-anchor: end" x="39.271875" y="84.88547" transform="rotate(-0 39.271875 84.88547)">400</text>
     </g>
    </g>
    <g id="ytick_6">
     <g id="line2d_25">
      <path d="M 46.271875 34.685008 
L 466.261875 34.685008 
" clip-path="url(#p7787c9396a)" style="fill: none; stroke: #b0b0b0; stroke-opacity: 0.28; stroke-width: 0.8; stroke-linecap: square"/>
     </g>
     <g id="line2d_26">
      <g>
       <use xlink:href="#m5394758517" x="46.271875" y="34.685008" style="stroke: #000000; stroke-width: 0.8"/>
      </g>
     </g>
     <g id="text_14">
      <text style="font-size: 10px; font-family: 'Microsoft YaHei'; text-anchor: end" x="39.271875" y="38.681883" transform="rotate(-0 39.271875 38.681883)">500</text>
     </g>
    </g>
    <g id="text_15">
     <text style="font-size: 10px; font-family: 'Microsoft YaHei'; text-anchor: middle" x="15.19375" y="145.473125" transform="rotate(-90 15.19375 145.473125)">BL - BLB (mV)</text>
    </g>
   </g>
   <g id="line2d_27">
    <path d="M 45.650588 265.702946 
L 87.276816 265.610538 
L 92.868399 265.287113 
L 95.353547 265.194706 
L 98.459982 265.056095 
L 100.945129 264.963688 
L 106.536712 264.640263 
L 109.643147 264.547856 
L 113.992156 264.316838 
L 116.477304 264.224431 
L 119.583739 264.08582 
L 120.826313 264.039616 
L 122.068887 263.947209 
L 125.796609 263.762395 
L 128.281757 263.669988 
L 132.009479 263.485173 
L 134.494626 263.392766 
L 139.464922 263.115545 
L 141.95007 263.023138 
L 145.677792 262.838323 
L 148.784227 262.745916 
L 153.133236 262.514898 
L 154.997097 262.422491 
L 159.346106 262.006659 
L 163.695115 261.267401 
L 166.180263 260.805365 
L 169.907984 260.158515 
L 173.014419 259.557868 
L 177.363428 258.818611 
L 179.848576 258.356575 
L 184.197585 257.617318 
L 187.925307 256.87806 
L 192.274316 256.138803 
L 194.759464 255.676767 
L 196.002038 255.399546 
L 198.487186 254.567881 
L 202.214908 253.274181 
L 204.078768 252.62733 
L 207.80649 251.33363 
L 210.291638 250.501965 
L 214.01936 249.208265 
L 216.504508 248.3766 
L 222.096091 246.389846 
L 224.581239 245.558181 
L 227.687674 244.495499 
L 230.172822 243.663834 
L 233.900544 242.370134 
L 235.143118 241.954302 
L 240.113413 239.274493 
L 242.598561 237.888386 
L 248.190144 234.885153 
L 250.054005 233.868674 
L 252.539153 232.482566 
L 255.024301 231.096458 
L 261.237171 227.7698 
L 263.722319 226.383693 
L 267.450041 224.350735 
L 269.935189 222.964627 
L 273.041624 221.301298 
L 278.633206 217.050568 
L 281.739641 214.647981 
L 284.846076 212.245395 
L 287.952511 209.842808 
L 292.922807 206.054114 
L 296.029242 203.651527 
L 298.51439 201.75718 
L 299.756964 200.740701 
L 304.72726 196.952007 
L 307.833695 194.549421 
L 312.80399 190.760726 
L 319.01686 185.539721 
L 325.851017 179.071219 
L 328.957452 176.160393 
L 338.276757 167.289304 
L 341.383192 164.378478 
L 344.489626 161.282838 
L 351.323783 154.537114 
L 353.808931 152.088324 
L 379.281697 127.600422 
L 382.388132 124.689596 
L 389.222289 118.221094 
L 396.056446 111.98361 
L 399.162881 109.118987 
L 406.618325 102.32706 
L 409.103473 100.063084 
L 414.073768 95.858558 
L 417.80149 92.67051 
L 423.393073 87.957744 
L 427.120795 84.769696 
L 432.712378 80.056931 
L 436.4401 76.868883 
L 441.410396 72.664357 
L 444.516831 70.030752 
L 453.214848 63.654657 
L 455.078709 62.314753 
L 463.15544 56.400694 
L 465.019301 55.06079 
L 466.261875 54.136718 
L 466.261875 54.136718 
" clip-path="url(#p7787c9396a)" style="fill: none; stroke: #1f77b4; stroke-width: 2.2; stroke-linecap: square"/>
   </g>
   <g id="line2d_28">
    <path d="M 46.271875 242.601152 
L 466.261875 242.601152 
" clip-path="url(#p7787c9396a)" style="fill: none; stroke-dasharray: 4.44,1.92; stroke-dashoffset: 0; stroke: #404040; stroke-width: 1.2"/>
   </g>
   <g id="line2d_29">
    <path d="M 186.061446 268.013125 
L 186.061446 22.933125 
" clip-path="url(#p7787c9396a)" style="fill: none; stroke-dasharray: 1.6,2.64; stroke-dashoffset: 0; stroke: #2ca02c; stroke-width: 1.6"/>
   </g>
   <g id="line2d_30">
    <path d="M 233.279257 268.013125 
L 233.279257 22.933125 
" clip-path="url(#p7787c9396a)" style="fill: none; stroke-dasharray: 1.6,2.64; stroke-dashoffset: 0; stroke: #d62728; stroke-width: 1.6"/>
   </g>
   <g id="line2d_31">
    <defs>
     <path id="m3abd04cae8" d="M 0 2.5 
C 0.663008 2.5 1.29895 2.236584 1.767767 1.767767 
C 2.236584 1.29895 2.5 0.663008 2.5 0 
C 2.5 -0.663008 2.236584 -1.29895 1.767767 -1.767767 
C 1.29895 -2.236584 0.663008 -2.5 0 -2.5 
C -0.663008 -2.5 -1.29895 -2.236584 -1.767767 -1.767767 
C -2.236584 -1.29895 -2.5 -0.663008 -2.5 0 
C -2.5 0.663008 -2.236584 1.29895 -1.767767 1.767767 
C -1.29895 2.236584 -0.663008 2.5 0 2.5 
z
" style="stroke: #d62728"/>
    </defs>
    <g clip-path="url(#p7787c9396a)">
     <use xlink:href="#m3abd04cae8" x="233.279257" y="242.601152" style="fill: #d62728; stroke: #d62728"/>
    </g>
   </g>
   <g id="patch_3">
    <path d="M 46.271875 268.013125 
L 46.271875 22.933125 
" style="fill: none; stroke: #000000; stroke-width: 0.8; stroke-linejoin: miter; stroke-linecap: square"/>
   </g>
   <g id="patch_4">
    <path d="M 466.261875 268.013125 
L 466.261875 22.933125 
" style="fill: none; stroke: #000000; stroke-width: 0.8; stroke-linejoin: miter; stroke-linecap: square"/>
   </g>
   <g id="patch_5">
    <path d="M 46.271875 268.013125 
L 466.261875 268.013125 
" style="fill: none; stroke: #000000; stroke-width: 0.8; stroke-linejoin: miter; stroke-linecap: square"/>
   </g>
   <g id="patch_6">
    <path d="M 46.271875 22.933125 
L 466.261875 22.933125 
" style="fill: none; stroke: #000000; stroke-width: 0.8; stroke-linejoin: miter; stroke-linecap: square"/>
   </g>
   <g id="patch_7">
    <path d="M 234.578721 234.304479 
Q 223.65807 237.942014 212.737418 241.57955 
" style="fill: none; stroke: #333333; stroke-width: 1.1; stroke-linecap: round"/>
    <path d="M 230.151672 233.671045 
L 234.578721 234.304479 
L 231.415745 237.466058 
" style="fill: none; stroke: #333333; stroke-width: 1.1; stroke-linecap: round"/>
    <path d="M 217.164467 242.212984 
L 212.737418 241.57955 
L 215.900394 238.417971 
" style="fill: none; stroke: #333333; stroke-width: 1.1; stroke-linecap: round"/>
   </g>
   <g id="text_16">
    <text style="font-size: 10px; font-family: 'Microsoft YaHei'; text-anchor: start" x="210.912925" y="228.740076" transform="rotate(-0 210.912925 228.740076)">read delay = 15.2 ps</text>
   </g>
   <g id="patch_8">
    <path d="M 153.645099 256.818903 
Q 168.889725 260.996854 183.163905 264.908844 
" style="fill: none; stroke: #2ca02c; stroke-width: 0.9; stroke-linecap: round"/>
    <path d="M 180.167699 262.221327 
L 183.163905 264.908844 
L 179.216168 265.693299 
" style="fill: none; stroke: #2ca02c; stroke-width: 0.9; stroke-linecap: round"/>
   </g>
   <g id="text_17">
    <text style="font-size: 9px; font-family: 'Microsoft YaHei'; text-anchor: start; fill: #2ca02c" x="130.145618" y="255.538156" transform="rotate(-0 130.145618 255.538156)">start</text>
   </g>
   <g id="patch_9">
    <path d="M 254.150556 239.525958 
Q 244.704714 240.917716 236.254354 242.162799 
" style="fill: none; stroke: #d62728; stroke-width: 0.9; stroke-linecap: round"/>
    <path d="M 240.078283 243.418812 
L 236.254354 242.162799 
L 239.553521 239.857263 
" style="fill: none; stroke: #d62728; stroke-width: 0.9; stroke-linecap: round"/>
   </g>
   <g id="text_18">
    <text style="font-size: 9px; font-family: 'Microsoft YaHei'; text-anchor: start; fill: #d62728" x="258.130736" y="237.056721" transform="rotate(-0 258.130736 237.056721)">readout point</text>
   </g>
   <g id="text_19">
    <text style="font-size: 12px; font-family: 'Microsoft YaHei'; text-anchor: middle" x="256.266875" y="16.933125" transform="rotate(-0 256.266875 16.933125)">No-RC read delay extraction from HSPICE waveform</text>
   </g>
   <g id="legend_1">
    <g id="patch_10">
     <path d="M 51.871875 91.251875 
L 168.423125 91.251875 
Q 170.023125 91.251875 170.023125 89.651875 
L 170.023125 28.533125 
Q 170.023125 26.933125 168.423125 26.933125 
L 51.871875 26.933125 
Q 50.271875 26.933125 50.271875 28.533125 
L 50.271875 89.651875 
Q 50.271875 91.251875 51.871875 91.251875 
z
" style="fill: #ffffff; opacity: 0.8; stroke: #cccccc; stroke-linejoin: miter"/>
    </g>
    <g id="line2d_32">
     <path d="M 53.471875 33.728125 
L 61.471875 33.728125 
L 69.471875 33.728125 
" style="fill: none; stroke: #1f77b4; stroke-width: 2.2; stroke-linecap: square"/>
    </g>
    <g id="text_20">
     <text style="font-size: 8px; font-family: 'Microsoft YaHei'; text-anchor: start" x="75.871875" y="36.528125" transform="rotate(-0 75.871875 36.528125)">BL - BLB</text>
    </g>
    <g id="line2d_33">
     <path d="M 53.471875 46.111875 
L 61.471875 46.111875 
L 69.471875 46.111875 
" style="fill: none; stroke-dasharray: 4.44,1.92; stroke-dashoffset: 0; stroke: #404040; stroke-width: 1.2"/>
    </g>
    <g id="text_21">
     <text style="font-size: 8px; font-family: 'Microsoft YaHei'; text-anchor: start" x="75.871875" y="48.911875" transform="rotate(-0 75.871875 48.911875)">sense criterion = 50 mV</text>
    </g>
    <g id="line2d_34">
     <path d="M 53.471875 58.495625 
L 61.471875 58.495625 
L 69.471875 58.495625 
" style="fill: none; stroke-dasharray: 1.6,2.64; stroke-dashoffset: 0; stroke: #2ca02c; stroke-width: 1.6"/>
    </g>
    <g id="text_22">
     <text style="font-size: 8px; font-family: 'Microsoft YaHei'; text-anchor: start" x="75.871875" y="61.295625" transform="rotate(-0 75.871875 61.295625)">WL = 0.5VDD</text>
    </g>
    <g id="line2d_35">
     <path d="M 53.471875 70.879375 
L 61.471875 70.879375 
L 69.471875 70.879375 
" style="fill: none; stroke-dasharray: 1.6,2.64; stroke-dashoffset: 0; stroke: #d62728; stroke-width: 1.6"/>
    </g>
    <g id="text_23">
     <text style="font-size: 8px; font-family: 'Microsoft YaHei'; text-anchor: start" x="75.871875" y="73.679375" transform="rotate(-0 75.871875 73.679375)">BL-BLB = 50 mV</text>
    </g>
    <g id="line2d_36">
     <path d="M 53.471875 83.263125 
L 61.471875 83.263125 
L 69.471875 83.263125 
" style="fill: none; stroke: #2ca02c; stroke-opacity: 0.75; stroke-width: 1.3; stroke-linecap: square"/>
    </g>
    <g id="text_24">
     <text style="font-size: 8px; font-family: 'Microsoft YaHei'; text-anchor: start" x="75.871875" y="86.063125" transform="rotate(-0 75.871875 86.063125)">WL / VDD</text>
    </g>
   </g>
  </g>
  <g id="axes_2">
   <g id="matplotlib.axis_3">
    <g id="ytick_7">
     <g id="line2d_37">
      <defs>
       <path id="mfeb11cf784" d="M 0 0 
L 3.5 0 
" style="stroke: #000000; stroke-width: 0.8"/>
      </defs>
      <g>
       <use xlink:href="#mfeb11cf784" x="466.261875" y="257.168877" style="stroke: #000000; stroke-width: 0.8"/>
      </g>
     </g>
     <g id="text_25">
      <text style="font-size: 10px; font-family: 'Microsoft YaHei'; text-anchor: start" x="473.261875" y="261.165752" transform="rotate(-0 473.261875 261.165752)">0.0</text>
     </g>
    </g>
    <g id="ytick_8">
     <g id="line2d_38">
      <g>
       <use xlink:href="#mfeb11cf784" x="466.261875" y="213.791886" style="stroke: #000000; stroke-width: 0.8"/>
      </g>
     </g>
     <g id="text_26">
      <text style="font-size: 10px; font-family: 'Microsoft YaHei'; text-anchor: start" x="473.261875" y="217.788761" transform="rotate(-0 473.261875 217.788761)">0.2</text>
     </g>
    </g>
    <g id="ytick_9">
     <g id="line2d_39">
      <g>
       <use xlink:href="#mfeb11cf784" x="466.261875" y="170.414895" style="stroke: #000000; stroke-width: 0.8"/>
      </g>
     </g>
     <g id="text_27">
      <text style="font-size: 10px; font-family: 'Microsoft YaHei'; text-anchor: start" x="473.261875" y="174.41177" transform="rotate(-0 473.261875 174.41177)">0.4</text>
     </g>
    </g>
    <g id="ytick_10">
     <g id="line2d_40">
      <g>
       <use xlink:href="#mfeb11cf784" x="466.261875" y="127.037904" style="stroke: #000000; stroke-width: 0.8"/>
      </g>
     </g>
     <g id="text_28">
      <text style="font-size: 10px; font-family: 'Microsoft YaHei'; text-anchor: start" x="473.261875" y="131.034779" transform="rotate(-0 473.261875 131.034779)">0.6</text>
     </g>
    </g>
    <g id="ytick_11">
     <g id="line2d_41">
      <g>
       <use xlink:href="#mfeb11cf784" x="466.261875" y="83.660913" style="stroke: #000000; stroke-width: 0.8"/>
      </g>
     </g>
     <g id="text_29">
      <text style="font-size: 10px; font-family: 'Microsoft YaHei'; text-anchor: start" x="473.261875" y="87.657788" transform="rotate(-0 473.261875 87.657788)">0.8</text>
     </g>
    </g>
    <g id="ytick_12">
     <g id="line2d_42">
      <g>
       <use xlink:href="#mfeb11cf784" x="466.261875" y="40.283921" style="stroke: #000000; stroke-width: 0.8"/>
      </g>
     </g>
     <g id="text_30">
      <text style="font-size: 10px; font-family: 'Microsoft YaHei'; text-anchor: start" x="473.261875" y="44.280796" transform="rotate(-0 473.261875 44.280796)">1.0</text>
     </g>
    </g>
    <g id="text_31">
     <text style="font-size: 10px; font-family: 'Microsoft YaHei'; text-anchor: middle" x="499.391562" y="145.473125" transform="rotate(-90 499.391562 145.473125)">WL / VDD</text>
    </g>
   </g>
   <g id="line2d_43">
    <path d="M 45.650588 246.758399 
L 341.383192 40.283921 
L 466.261875 40.283921 
L 466.261875 40.283921 
" clip-path="url(#p7787c9396a)" style="fill: none; stroke: #2ca02c; stroke-opacity: 0.75; stroke-width: 1.3; stroke-linecap: square"/>
   </g>
   <g id="line2d_44">
    <path d="M 46.271875 148.726399 
L 466.261875 148.726399 
" clip-path="url(#p7787c9396a)" style="fill: none; stroke-dasharray: 2.96,1.28; stroke-dashoffset: 0; stroke: #2ca02c; stroke-opacity: 0.45; stroke-width: 0.8"/>
   </g>
   <g id="patch_11">
    <path d="M 46.271875 268.013125 
L 46.271875 22.933125 
" style="fill: none; stroke: #000000; stroke-width: 0.8; stroke-linejoin: miter; stroke-linecap: square"/>
   </g>
   <g id="patch_12">
    <path d="M 466.261875 268.013125 
L 466.261875 22.933125 
" style="fill: none; stroke: #000000; stroke-width: 0.8; stroke-linejoin: miter; stroke-linecap: square"/>
   </g>
   <g id="patch_13">
    <path d="M 46.271875 268.013125 
L 466.261875 268.013125 
" style="fill: none; stroke: #000000; stroke-width: 0.8; stroke-linejoin: miter; stroke-linecap: square"/>
   </g>
   <g id="patch_14">
    <path d="M 46.271875 22.933125 
L 466.261875 22.933125 
" style="fill: none; stroke: #000000; stroke-width: 0.8; stroke-linejoin: miter; stroke-linecap: square"/>
   </g>
  </g>
 </g>
 <defs>
  <clipPath id="p7787c9396a">
   <rect x="46.271875" y="22.933125" width="419.99" height="245.08"/>
  </clipPath>
 </defs>
</svg>
