<?xml version="1.0" encoding="utf-8" standalone="no"?>
<!DOCTYPE svg PUBLIC "-//W3C//DTD SVG 1.1//EN"
  "http://www.w3.org/Graphics/SVG/1.1/DTD/svg11.dtd">
<svg xmlns:xlink="http://www.w3.org/1999/xlink" width="481.7pt" height="296.1625pt" viewBox="0 0 481.7 296.1625" xmlns="http://www.w3.org/2000/svg" version="1.1">
 <metadata>
  <rdf:RDF xmlns:dc="http://purl.org/dc/elements/1.1/" xmlns:cc="http://creativecommons.org/ns#" xmlns:rdf="http://www.w3.org/1999/02/22-rdf-syntax-ns#">
   <cc:Work>
    <dc:type rdf:resource="http://purl.org/dc/dcmitype/StillImage"/>
    <dc:date>2026-07-14T10:41:16.093840</dc:date>
    <dc:format>image/svg+xml</dc:format>
    <dc:creator>
     <cc:Agent>
      <dc:title>Matplotlib v3.10.8, https://matplotlib.org/</dc:title>
     </cc:Agent>
    </dc:creator>
   </cc:Work>
  </rdf:RDF>
 </metadata>
 <defs>
  <style type="text/css">*{stroke-linejoin: round; stroke-linecap: butt}</style>
 </defs>
 <g id="figure_1">
  <g id="patch_1">
   <path d="M 0 296.1625 
L 481.7 296.1625 
L 481.7 0 
L 0 0 
z
" style="fill: #ffffff"/>
  </g>
  <g id="axes_1">
   <g id="patch_2">
    <path d="M 49 257.003125 
L 474.5 257.003125 
L 474.5 22.723125 
L 49 22.723125 
z
" style="fill: #ffffff"/>
   </g>
   <g id="patch_3">
    <path d="M 117.08 257.003125 
L 457.48 257.003125 
L 457.48 22.723125 
L 117.08 22.723125 
z
" clip-path="url(#pf28601d8e5)" style="fill: #d9d9d9; opacity: 0.3; stroke: #d9d9d9; stroke-linejoin: miter"/>
   </g>
   <g id="matplotlib.axis_1">
    <g id="xtick_1">
     <g id="line2d_1">
      <path d="M 49 257.003125 
L 49 22.723125 
" clip-path="url(#pf28601d8e5)" style="fill: none; stroke: #b0b0b0; stroke-opacity: 0.28; stroke-width: 0.8; stroke-linecap: square"/>
     </g>
     <g id="line2d_2">
      <defs>
       <path id="m8b9c9d3dad" d="M 0 0 
L 0 3.5 
" style="stroke: #000000; stroke-width: 0.8"/>
      </defs>
      <g>
       <use xlink:href="#m8b9c9d3dad" x="49" y="257.003125" style="stroke: #000000; stroke-width: 0.8"/>
      </g>
     </g>
     <g id="text_1">
      <text style="font-size: 10px; font-family: 'Microsoft YaHei'; text-anchor: middle" x="49" y="271.996875" transform="rotate(-0 49 271.996875)">0.0</text>
     </g>
    </g>
    <g id="xtick_2">
     <g id="line2d_3">
      <path d="M 117.08 257.003125 
L 117.08 22.723125 
" clip-path="url(#pf28601d8e5)" style="fill: none; stroke: #b0b0b0; stroke-opacity: 0.28; stroke-width: 0.8; stroke-linecap: square"/>
     </g>
     <g id="line2d_4">
      <g>
       <use xlink:href="#m8b9c9d3dad" x="117.08" y="257.003125" style="stroke: #000000; stroke-width: 0.8"/>
      </g>
     </g>
     <g id="text_2">
      <text style="font-size: 10px; font-family: 'Microsoft YaHei'; text-anchor: middle" x="117.08" y="271.996875" transform="rotate(-0 117.08 271.996875)">0.2</text>
     </g>
    </g>
    <g id="xtick_3">
     <g id="line2d_5">
      <path d="M 185.16 257.003125 
L 185.16 22.723125 
" clip-path="url(#pf28601d8e5)" style="fill: none; stroke: #b0b0b0; stroke-opacity: 0.28; stroke-width: 0.8; stroke-linecap: square"/>
     </g>
     <g id="line2d_6">
      <g>
       <use xlink:href="#m8b9c9d3dad" x="185.16" y="257.003125" style="stroke: #000000; stroke-width: 0.8"/>
      </g>
     </g>
     <g id="text_3">
      <text style="font-size: 10px; font-family: 'Microsoft YaHei'; text-anchor: middle" x="185.16" y="271.996875" transform="rotate(-0 185.16 271.996875)">0.4</text>
     </g>
    </g>
    <g id="xtick_4">
     <g id="line2d_7">
      <path d="M 253.24 257.003125 
L 253.24 22.723125 
" clip-path="url(#pf28601d8e5)" style="fill: none; stroke: #b0b0b0; stroke-opacity: 0.28; stroke-width: 0.8; stroke-linecap: square"/>
     </g>
     <g id="line2d_8">
      <g>
       <use xlink:href="#m8b9c9d3dad" x="253.24" y="257.003125" style="stroke: #000000; stroke-width: 0.8"/>
      </g>
     </g>
     <g id="text_4">
      <text style="font-size: 10px; font-family: 'Microsoft YaHei'; text-anchor: middle" x="253.24" y="271.996875" transform="rotate(-0 253.24 271.996875)">0.6</text>
     </g>
    </g>
    <g id="xtick_5">
     <g id="line2d_9">
      <path d="M 321.32 257.003125 
L 321.32 22.723125 
" clip-path="url(#pf28601d8e5)" style="fill: none; stroke: #b0b0b0; stroke-opacity: 0.28; stroke-width: 0.8; stroke-linecap: square"/>
     </g>
     <g id="line2d_10">
      <g>
       <use xlink:href="#m8b9c9d3dad" x="321.32" y="257.003125" style="stroke: #000000; stroke-width: 0.8"/>
      </g>
     </g>
     <g id="text_5">
      <text style="font-size: 10px; font-family: 'Microsoft YaHei'; text-anchor: middle" x="321.32" y="271.996875" transform="rotate(-0 321.32 271.996875)">0.8</text>
     </g>
    </g>
    <g id="xtick_6">
     <g id="line2d_11">
      <path d="M 389.4 257.003125 
L 389.4 22.723125 
" clip-path="url(#pf28601d8e5)" style="fill: none; stroke: #b0b0b0; stroke-opacity: 0.28; stroke-width: 0.8; stroke-linecap: square"/>
     </g>
     <g id="line2d_12">
      <g>
       <use xlink:href="#m8b9c9d3dad" x="389.4" y="257.003125" style="stroke: #000000; stroke-width: 0.8"/>
      </g>
     </g>
     <g id="text_6">
      <text style="font-size: 10px; font-family: 'Microsoft YaHei'; text-anchor: middle" x="389.4" y="271.996875" transform="rotate(-0 389.4 271.996875)">1.0</text>
     </g>
    </g>
    <g id="xtick_7">
     <g id="line2d_13">
      <path d="M 457.48 257.003125 
L 457.48 22.723125 
" clip-path="url(#pf28601d8e5)" style="fill: none; stroke: #b0b0b0; stroke-opacity: 0.28; stroke-width: 0.8; stroke-linecap: square"/>
     </g>
     <g id="line2d_14">
      <g>
       <use xlink:href="#m8b9c9d3dad" x="457.48" y="257.003125" style="stroke: #000000; stroke-width: 0.8"/>
      </g>
     </g>
     <g id="text_7">
      <text style="font-size: 10px; font-family: 'Microsoft YaHei'; text-anchor: middle" x="457.48" y="271.996875" transform="rotate(-0 457.48 271.996875)">1.2</text>
     </g>
    </g>
    <g id="text_8">
     <text style="font-size: 10px; font-family: 'Microsoft YaHei'; text-anchor: middle" x="261.75" y="286.476562" transform="rotate(-0 261.75 286.476562)">Time (ns)</text>
    </g>
   </g>
   <g id="matplotlib.axis_2">
    <g id="ytick_1">
     <g id="line2d_15">
      <path d="M 49 246.354034 
L 474.5 246.354034 
" clip-path="url(#pf28601d8e5)" style="fill: none; stroke: #b0b0b0; stroke-opacity: 0.28; stroke-width: 0.8; stroke-linecap: square"/>
     </g>
     <g id="line2d_16">
      <defs>
       <path id="mf6a6ff3e16" d="M 0 0 
L -3.5 0 
" style="stroke: #000000; stroke-width: 0.8"/>
      </defs>
      <g>
       <use xlink:href="#mf6a6ff3e16" x="49" y="246.354034" style="stroke: #000000; stroke-width: 0.8"/>
      </g>
     </g>
     <g id="text_9">
      <text style="font-size: 10px; font-family: 'Microsoft YaHei'; text-anchor: end" x="42" y="250.350909" transform="rotate(-0 42 250.350909)">0.00</text>
     </g>
    </g>
    <g id="ytick_2">
     <g id="line2d_17">
      <path d="M 49 215.154033 
L 474.5 215.154033 
" clip-path="url(#pf28601d8e5)" style="fill: none; stroke: #b0b0b0; stroke-opacity: 0.28; stroke-width: 0.8; stroke-linecap: square"/>
     </g>
     <g id="line2d_18">
      <g>
       <use xlink:href="#mf6a6ff3e16" x="49" y="215.154033" style="stroke: #000000; stroke-width: 0.8"/>
      </g>
     </g>
     <g id="text_10">
      <text style="font-size: 10px; font-family: 'Microsoft YaHei'; text-anchor: end" x="42" y="219.150908" transform="rotate(-0 42 219.150908)">0.25</text>
     </g>
    </g>
    <g id="ytick_3">
     <g id="line2d_19">
      <path d="M 49 183.954032 
L 474.5 183.954032 
" clip-path="url(#pf28601d8e5)" style="fill: none; stroke: #b0b0b0; stroke-opacity: 0.28; stroke-width: 0.8; stroke-linecap: square"/>
     </g>
     <g id="line2d_20">
      <g>
       <use xlink:href="#mf6a6ff3e16" x="49" y="183.954032" style="stroke: #000000; stroke-width: 0.8"/>
      </g>
     </g>
     <g id="text_11">
      <text style="font-size: 10px; font-family: 'Microsoft YaHei'; text-anchor: end" x="42" y="187.950907" transform="rotate(-0 42 187.950907)">0.50</text>
     </g>
    </g>
    <g id="ytick_4">
     <g id="line2d_21">
      <path d="M 49 152.75403 
L 474.5 152.75403 
" clip-path="url(#pf28601d8e5)" style="fill: none; stroke: #b0b0b0; stroke-opacity: 0.28; stroke-width: 0.8; stroke-linecap: square"/>
     </g>
     <g id="line2d_22">
      <g>
       <use xlink:href="#mf6a6ff3e16" x="49" y="152.75403" style="stroke: #000000; stroke-width: 0.8"/>
      </g>
     </g>
     <g id="text_12">
      <text style="font-size: 10px; font-family: 'Microsoft YaHei'; text-anchor: end" x="42" y="156.750905" transform="rotate(-0 42 156.750905)">0.75</text>
     </g>
    </g>
    <g id="ytick_5">
     <g id="line2d_23">
      <path d="M 49 121.554029 
L 474.5 121.554029 
" clip-path="url(#pf28601d8e5)" style="fill: none; stroke: #b0b0b0; stroke-opacity: 0.28; stroke-width: 0.8; stroke-linecap: square"/>
     </g>
     <g id="line2d_24">
      <g>
       <use xlink:href="#mf6a6ff3e16" x="49" y="121.554029" style="stroke: #000000; stroke-width: 0.8"/>
      </g>
     </g>
     <g id="text_13">
      <text style="font-size: 10px; font-family: 'Microsoft YaHei'; text-anchor: end" x="42" y="125.550904" transform="rotate(-0 42 125.550904)">1.00</text>
     </g>
    </g>
    <g id="ytick_6">
     <g id="line2d_25">
      <path d="M 49 90.354028 
L 474.5 90.354028 
" clip-path="url(#pf28601d8e5)" style="fill: none; stroke: #b0b0b0; stroke-opacity: 0.28; stroke-width: 0.8; stroke-linecap: square"/>
     </g>
     <g id="line2d_26">
      <g>
       <use xlink:href="#mf6a6ff3e16" x="49" y="90.354028" style="stroke: #000000; stroke-width: 0.8"/>
      </g>
     </g>
     <g id="text_14">
      <text style="font-size: 10px; font-family: 'Microsoft YaHei'; text-anchor: end" x="42" y="94.350903" transform="rotate(-0 42 94.350903)">1.25</text>
     </g>
    </g>
    <g id="ytick_7">
     <g id="line2d_27">
      <path d="M 49 59.154027 
L 474.5 59.154027 
" clip-path="url(#pf28601d8e5)" style="fill: none; stroke: #b0b0b0; stroke-opacity: 0.28; stroke-width: 0.8; stroke-linecap: square"/>
     </g>
     <g id="line2d_28">
      <g>
       <use xlink:href="#mf6a6ff3e16" x="49" y="59.154027" style="stroke: #000000; stroke-width: 0.8"/>
      </g>
     </g>
     <g id="text_15">
      <text style="font-size: 10px; font-family: 'Microsoft YaHei'; text-anchor: end" x="42" y="63.150902" transform="rotate(-0 42 63.150902)">1.50</text>
     </g>
    </g>
    <g id="ytick_8">
     <g id="line2d_29">
      <path d="M 49 27.954026 
L 474.5 27.954026 
" clip-path="url(#pf28601d8e5)" style="fill: none; stroke: #b0b0b0; stroke-opacity: 0.28; stroke-width: 0.8; stroke-linecap: square"/>
     </g>
     <g id="line2d_30">
      <g>
       <use xlink:href="#mf6a6ff3e16" x="49" y="27.954026" style="stroke: #000000; stroke-width: 0.8"/>
      </g>
     </g>
     <g id="text_16">
      <text style="font-size: 10px; font-family: 'Microsoft YaHei'; text-anchor: end" x="42" y="31.950901" transform="rotate(-0 42 31.950901)">1.75</text>
     </g>
    </g>
    <g id="text_17">
     <text style="font-size: 10px; font-family: 'Microsoft YaHei'; text-anchor: middle" x="15.45625" y="139.863125" transform="rotate(-90 15.45625 139.863125)">Cumulative energy from VDD·|I(VDD)| (fJ)</text>
    </g>
   </g>
   <g id="line2d_31">
    <path d="M 49 246.354034 
L 86.64824 246.239423 
L 94.68168 245.750039 
L 100.19616 245.213156 
L 104.75752 244.510287 
L 111.83784 243.146978 
L 117.96504 242.052511 
L 129.40248 241.145639 
L 145.19704 239.597843 
L 152.822 239.173306 
L 162.48936 238.873302 
L 176.10536 238.690145 
L 201.56728 238.603606 
L 357.33432 238.528175 
L 457.48 238.479054 
L 457.48 238.479054 
" clip-path="url(#pf28601d8e5)" style="fill: none; stroke: #1f77b4; stroke-width: 2; stroke-linecap: square"/>
   </g>
   <g id="line2d_32">
    <path d="M 49 246.354034 
L 49.27232 246.207518 
L 50.08928 245.363708 
L 50.77008 245.072764 
L 51.7232 244.932079 
L 55.60376 244.830888 
L 62.41176 244.771098 
L 87.05672 244.654605 
L 91.00536 244.375019 
L 92.5712 243.958399 
L 94.20512 243.286871 
L 95.49864 242.548723 
L 96.24752 241.826037 
L 97.06448 240.710887 
L 97.94952 239.118034 
L 98.97072 236.782902 
L 99.92384 234.076524 
L 100.80888 230.828217 
L 101.83008 226.133577 
L 102.91936 220.008593 
L 103.94056 213.060153 
L 105.09792 203.549619 
L 106.32336 191.585229 
L 107.68496 176.036372 
L 109.18272 156.288032 
L 110.81664 131.658539 
L 114.0164 79.731927 
L 115.85456 48.474431 
L 116.46728 41.943309 
L 116.94384 38.858191 
L 117.48848 36.760415 
L 118.03312 35.4835 
L 118.57776 34.743666 
L 119.25856 34.272149 
L 119.93936 34.064635 
L 125.99848 33.607203 
L 140.2272 33.536412 
L 193.05728 33.50639 
L 457.48 33.372216 
L 457.48 33.372216 
" clip-path="url(#pf28601d8e5)" style="fill: none; stroke: #ff7f0e; stroke-width: 2; stroke-linecap: square"/>
   </g>
   <g id="patch_4">
    <path d="M 49 257.003125 
L 49 22.723125 
" style="fill: none; stroke: #000000; stroke-width: 0.8; stroke-linejoin: miter; stroke-linecap: square"/>
   </g>
   <g id="patch_5">
    <path d="M 474.5 257.003125 
L 474.5 22.723125 
" style="fill: none; stroke: #000000; stroke-width: 0.8; stroke-linejoin: miter; stroke-linecap: square"/>
   </g>
   <g id="patch_6">
    <path d="M 49 257.003125 
L 474.5 257.003125 
" style="fill: none; stroke: #000000; stroke-width: 0.8; stroke-linejoin: miter; stroke-linecap: square"/>
   </g>
   <g id="patch_7">
    <path d="M 49 22.723125 
L 474.5 22.723125 
" style="fill: none; stroke: #000000; stroke-width: 0.8; stroke-linejoin: miter; stroke-linecap: square"/>
   </g>
   <g id="text_18">
    <g id="patch_8">
     <path d="M 274.515 224.005669 
L 394.1025 224.005669 
Q 396.3525 224.005669 396.3525 221.755669 
L 396.3525 201.453356 
Q 396.3525 199.203356 394.1025 199.203356 
L 274.515 199.203356 
Q 272.265 199.203356 272.265 201.453356 
L 272.265 221.755669 
Q 272.265 224.005669 274.515 224.005669 
z
" style="fill: #ffffff; opacity: 0.95; stroke: #b2b2b2; stroke-linejoin: miter"/>
    </g>
    <text style="font-size: 9px; font-family: 'Microsoft YaHei'" transform="translate(274.515 208.647731)">Eread(0.2–1.2 ns) = 0.029 fJ</text>
    <text style="font-size: 9px; font-family: 'Microsoft YaHei'" transform="translate(274.515 219.518325)">Ewrite(0.2–1.2 ns) = 0.039 fJ</text>
   </g>
   <g id="text_19">
    <text style="font-size: 12px; font-family: 'Microsoft YaHei'; text-anchor: middle" x="261.75" y="16.723125" transform="rotate(-0 261.75 16.723125)">No-RC energy integration</text>
   </g>
   <g id="legend_1">
    <g id="patch_9">
     <path d="M 54.6 66.413125 
L 171.90375 66.413125 
Q 173.50375 66.413125 173.50375 64.813125 
L 173.50375 28.323125 
Q 173.50375 26.723125 171.90375 26.723125 
L 54.6 26.723125 
Q 53 26.723125 53 28.323125 
L 53 64.813125 
Q 53 66.413125 54.6 66.413125 
z
" style="fill: #ffffff; opacity: 0.8; stroke: #cccccc; stroke-linejoin: miter"/>
    </g>
    <g id="line2d_33">
     <path d="M 56.2 33.518125 
L 64.2 33.518125 
L 72.2 33.518125 
" style="fill: none; stroke: #1f77b4; stroke-width: 2; stroke-linecap: square"/>
    </g>
    <g id="text_20">
     <text style="font-size: 8px; font-family: 'Microsoft YaHei'; text-anchor: start" x="78.6" y="36.318125" transform="rotate(-0 78.6 36.318125)">read cumulative energy</text>
    </g>
    <g id="line2d_34">
     <path d="M 56.2 45.948125 
L 64.2 45.948125 
L 72.2 45.948125 
" style="fill: none; stroke: #ff7f0e; stroke-width: 2; stroke-linecap: square"/>
    </g>
    <g id="text_21">
     <text style="font-size: 8px; font-family: 'Microsoft YaHei'; text-anchor: start" x="78.6" y="48.748125" transform="rotate(-0 78.6 48.748125)">write cumulative energy</text>
    </g>
    <g id="patch_10">
     <path d="M 56.2 61.178125 
L 72.2 61.178125 
L 72.2 55.578125 
L 56.2 55.578125 
z
" style="fill: #d9d9d9; opacity: 0.3; stroke: #d9d9d9; stroke-linejoin: miter"/>
    </g>
    <g id="text_22">
     <text style="font-size: 8px; font-family: 'Microsoft YaHei'; text-anchor: start" x="78.6" y="61.178125" transform="rotate(-0 78.6 61.178125)">integration window</text>
    </g>
   </g>
  </g>
 </g>
 <defs>
  <clipPath id="pf28601d8e5">
   <rect x="49" y="22.723125" width="425.5" height="234.28"/>
  </clipPath>
 </defs>
</svg>
