<?xml version="1.0" encoding="utf-8" standalone="no"?>
<!DOCTYPE svg PUBLIC "-//W3C//DTD SVG 1.1//EN"
  "http://www.w3.org/Graphics/SVG/1.1/DTD/svg11.dtd">
<svg xmlns:xlink="http://www.w3.org/1999/xlink" width="495.823437pt" height="303.431875pt" viewBox="0 0 495.823437 303.431875" xmlns="http://www.w3.org/2000/svg" version="1.1">
 <metadata>
  <rdf:RDF xmlns:dc="http://purl.org/dc/elements/1.1/" xmlns:cc="http://creativecommons.org/ns#" xmlns:rdf="http://www.w3.org/1999/02/22-rdf-syntax-ns#">
   <cc:Work>
    <dc:type rdf:resource="http://purl.org/dc/dcmitype/StillImage"/>
    <dc:date>2026-07-14T10:41:13.413807</dc:date>
    <dc:format>image/svg+xml</dc:format>
    <dc:creator>
     <cc:Agent>
      <dc:title>Matplotlib v3.10.8, https://matplotlib.org/</dc:title>
     </cc:Agent>
    </dc:creator>
   </cc:Work>
  </rdf:RDF>
 </metadata>
 <defs>
  <style type="text/css">*{stroke-linejoin: round; stroke-linecap: butt}</style>
 </defs>
 <g id="figure_1">
  <g id="patch_1">
   <path d="M 0 303.431875 
L 495.823437 303.431875 
L 495.823437 0 
L 0 0 
z
" style="fill: #ffffff"/>
  </g>
  <g id="axes_1">
   <g id="patch_2">
    <path d="M 42.873438 264.2725 
L 488.623437 264.2725 
L 488.623437 22.7925 
L 42.873438 22.7925 
z
" style="fill: #ffffff"/>
   </g>
   <g id="matplotlib.axis_1">
    <g id="xtick_1">
     <g id="line2d_1">
      <path d="M 42.873438 264.2725 
L 42.873438 22.7925 
" clip-path="url(#p43511055f8)" style="fill: none; stroke: #b0b0b0; stroke-opacity: 0.28; stroke-width: 0.8; stroke-linecap: square"/>
     </g>
     <g id="line2d_2">
      <defs>
       <path id="mac65e43ad8" d="M 0 0 
L 0 3.5 
" style="stroke: #000000; stroke-width: 0.8"/>
      </defs>
      <g>
       <use xlink:href="#mac65e43ad8" x="42.873438" y="264.2725" style="stroke: #000000; stroke-width: 0.8"/>
      </g>
     </g>
     <g id="text_1">
      <text style="font-size: 10px; font-family: 'Microsoft YaHei'; text-anchor: middle" x="42.873438" y="279.26625" transform="rotate(-0 42.873438 279.26625)">0.0</text>
     </g>
    </g>
    <g id="xtick_2">
     <g id="line2d_3">
      <path d="M 114.193438 264.2725 
L 114.193438 22.7925 
" clip-path="url(#p43511055f8)" style="fill: none; stroke: #b0b0b0; stroke-opacity: 0.28; stroke-width: 0.8; stroke-linecap: square"/>
     </g>
     <g id="line2d_4">
      <g>
       <use xlink:href="#mac65e43ad8" x="114.193438" y="264.2725" style="stroke: #000000; stroke-width: 0.8"/>
      </g>
     </g>
     <g id="text_2">
      <text style="font-size: 10px; font-family: 'Microsoft YaHei'; text-anchor: middle" x="114.193438" y="279.26625" transform="rotate(-0 114.193438 279.26625)">0.2</text>
     </g>
    </g>
    <g id="xtick_3">
     <g id="line2d_5">
      <path d="M 185.513438 264.2725 
L 185.513438 22.7925 
" clip-path="url(#p43511055f8)" style="fill: none; stroke: #b0b0b0; stroke-opacity: 0.28; stroke-width: 0.8; stroke-linecap: square"/>
     </g>
     <g id="line2d_6">
      <g>
       <use xlink:href="#mac65e43ad8" x="185.513438" y="264.2725" style="stroke: #000000; stroke-width: 0.8"/>
      </g>
     </g>
     <g id="text_3">
      <text style="font-size: 10px; font-family: 'Microsoft YaHei'; text-anchor: middle" x="185.513438" y="279.26625" transform="rotate(-0 185.513438 279.26625)">0.4</text>
     </g>
    </g>
    <g id="xtick_4">
     <g id="line2d_7">
      <path d="M 256.833438 264.2725 
L 256.833438 22.7925 
" clip-path="url(#p43511055f8)" style="fill: none; stroke: #b0b0b0; stroke-opacity: 0.28; stroke-width: 0.8; stroke-linecap: square"/>
     </g>
     <g id="line2d_8">
      <g>
       <use xlink:href="#mac65e43ad8" x="256.833438" y="264.2725" style="stroke: #000000; stroke-width: 0.8"/>
      </g>
     </g>
     <g id="text_4">
      <text style="font-size: 10px; font-family: 'Microsoft YaHei'; text-anchor: middle" x="256.833438" y="279.26625" transform="rotate(-0 256.833438 279.26625)">0.6</text>
     </g>
    </g>
    <g id="xtick_5">
     <g id="line2d_9">
      <path d="M 328.153437 264.2725 
L 328.153437 22.7925 
" clip-path="url(#p43511055f8)" style="fill: none; stroke: #b0b0b0; stroke-opacity: 0.28; stroke-width: 0.8; stroke-linecap: square"/>
     </g>
     <g id="line2d_10">
      <g>
       <use xlink:href="#mac65e43ad8" x="328.153437" y="264.2725" style="stroke: #000000; stroke-width: 0.8"/>
      </g>
     </g>
     <g id="text_5">
      <text style="font-size: 10px; font-family: 'Microsoft YaHei'; text-anchor: middle" x="328.153437" y="279.26625" transform="rotate(-0 328.153437 279.26625)">0.8</text>
     </g>
    </g>
    <g id="xtick_6">
     <g id="line2d_11">
      <path d="M 399.473437 264.2725 
L 399.473437 22.7925 
" clip-path="url(#p43511055f8)" style="fill: none; stroke: #b0b0b0; stroke-opacity: 0.28; stroke-width: 0.8; stroke-linecap: square"/>
     </g>
     <g id="line2d_12">
      <g>
       <use xlink:href="#mac65e43ad8" x="399.473437" y="264.2725" style="stroke: #000000; stroke-width: 0.8"/>
      </g>
     </g>
     <g id="text_6">
      <text style="font-size: 10px; font-family: 'Microsoft YaHei'; text-anchor: middle" x="399.473437" y="279.26625" transform="rotate(-0 399.473437 279.26625)">1.0</text>
     </g>
    </g>
    <g id="xtick_7">
     <g id="line2d_13">
      <path d="M 470.793438 264.2725 
L 470.793438 22.7925 
" clip-path="url(#p43511055f8)" style="fill: none; stroke: #b0b0b0; stroke-opacity: 0.28; stroke-width: 0.8; stroke-linecap: square"/>
     </g>
     <g id="line2d_14">
      <g>
       <use xlink:href="#mac65e43ad8" x="470.793438" y="264.2725" style="stroke: #000000; stroke-width: 0.8"/>
      </g>
     </g>
     <g id="text_7">
      <text style="font-size: 10px; font-family: 'Microsoft YaHei'; text-anchor: middle" x="470.793438" y="279.26625" transform="rotate(-0 470.793438 279.26625)">1.2</text>
     </g>
    </g>
    <g id="text_8">
     <text style="font-size: 10px; font-family: 'Microsoft YaHei'; text-anchor: middle" x="265.748437" y="293.745937" transform="rotate(-0 265.748437 293.745937)">Time (ns)</text>
    </g>
   </g>
   <g id="matplotlib.axis_2">
    <g id="ytick_1">
     <g id="line2d_15">
      <path d="M 42.873438 254.864188 
L 488.623437 254.864188 
" clip-path="url(#p43511055f8)" style="fill: none; stroke: #b0b0b0; stroke-opacity: 0.28; stroke-width: 0.8; stroke-linecap: square"/>
     </g>
     <g id="line2d_16">
      <defs>
       <path id="maebf7c8457" d="M 0 0 
L -3.5 0 
" style="stroke: #000000; stroke-width: 0.8"/>
      </defs>
      <g>
       <use xlink:href="#maebf7c8457" x="42.873438" y="254.864188" style="stroke: #000000; stroke-width: 0.8"/>
      </g>
     </g>
     <g id="text_9">
      <text style="font-size: 10px; font-family: 'Microsoft YaHei'; text-anchor: end" x="35.873438" y="258.861063" transform="rotate(-0 35.873438 258.861063)">0.0</text>
     </g>
    </g>
    <g id="ytick_2">
     <g id="line2d_17">
      <path d="M 42.873438 223.503149 
L 488.623437 223.503149 
" clip-path="url(#p43511055f8)" style="fill: none; stroke: #b0b0b0; stroke-opacity: 0.28; stroke-width: 0.8; stroke-linecap: square"/>
     </g>
     <g id="line2d_18">
      <g>
       <use xlink:href="#maebf7c8457" x="42.873438" y="223.503149" style="stroke: #000000; stroke-width: 0.8"/>
      </g>
     </g>
     <g id="text_10">
      <text style="font-size: 10px; font-family: 'Microsoft YaHei'; text-anchor: end" x="35.873438" y="227.500024" transform="rotate(-0 35.873438 227.500024)">0.1</text>
     </g>
    </g>
    <g id="ytick_3">
     <g id="line2d_19">
      <path d="M 42.873438 192.14211 
L 488.623437 192.14211 
" clip-path="url(#p43511055f8)" style="fill: none; stroke: #b0b0b0; stroke-opacity: 0.28; stroke-width: 0.8; stroke-linecap: square"/>
     </g>
     <g id="line2d_20">
      <g>
       <use xlink:href="#maebf7c8457" x="42.873438" y="192.14211" style="stroke: #000000; stroke-width: 0.8"/>
      </g>
     </g>
     <g id="text_11">
      <text style="font-size: 10px; font-family: 'Microsoft YaHei'; text-anchor: end" x="35.873438" y="196.138985" transform="rotate(-0 35.873438 196.138985)">0.2</text>
     </g>
    </g>
    <g id="ytick_4">
     <g id="line2d_21">
      <path d="M 42.873438 160.781071 
L 488.623437 160.781071 
" clip-path="url(#p43511055f8)" style="fill: none; stroke: #b0b0b0; stroke-opacity: 0.28; stroke-width: 0.8; stroke-linecap: square"/>
     </g>
     <g id="line2d_22">
      <g>
       <use xlink:href="#maebf7c8457" x="42.873438" y="160.781071" style="stroke: #000000; stroke-width: 0.8"/>
      </g>
     </g>
     <g id="text_12">
      <text style="font-size: 10px; font-family: 'Microsoft YaHei'; text-anchor: end" x="35.873438" y="164.777946" transform="rotate(-0 35.873438 164.777946)">0.3</text>
     </g>
    </g>
    <g id="ytick_5">
     <g id="line2d_23">
      <path d="M 42.873438 129.420032 
L 488.623437 129.420032 
" clip-path="url(#p43511055f8)" style="fill: none; stroke: #b0b0b0; stroke-opacity: 0.28; stroke-width: 0.8; stroke-linecap: square"/>
     </g>
     <g id="line2d_24">
      <g>
       <use xlink:href="#maebf7c8457" x="42.873438" y="129.420032" style="stroke: #000000; stroke-width: 0.8"/>
      </g>
     </g>
     <g id="text_13">
      <text style="font-size: 10px; font-family: 'Microsoft YaHei'; text-anchor: end" x="35.873438" y="133.416907" transform="rotate(-0 35.873438 133.416907)">0.4</text>
     </g>
    </g>
    <g id="ytick_6">
     <g id="line2d_25">
      <path d="M 42.873438 98.058994 
L 488.623437 98.058994 
" clip-path="url(#p43511055f8)" style="fill: none; stroke: #b0b0b0; stroke-opacity: 0.28; stroke-width: 0.8; stroke-linecap: square"/>
     </g>
     <g id="line2d_26">
      <g>
       <use xlink:href="#maebf7c8457" x="42.873438" y="98.058994" style="stroke: #000000; stroke-width: 0.8"/>
      </g>
     </g>
     <g id="text_14">
      <text style="font-size: 10px; font-family: 'Microsoft YaHei'; text-anchor: end" x="35.873438" y="102.055869" transform="rotate(-0 35.873438 102.055869)">0.5</text>
     </g>
    </g>
    <g id="ytick_7">
     <g id="line2d_27">
      <path d="M 42.873438 66.697955 
L 488.623437 66.697955 
" clip-path="url(#p43511055f8)" style="fill: none; stroke: #b0b0b0; stroke-opacity: 0.28; stroke-width: 0.8; stroke-linecap: square"/>
     </g>
     <g id="line2d_28">
      <g>
       <use xlink:href="#maebf7c8457" x="42.873438" y="66.697955" style="stroke: #000000; stroke-width: 0.8"/>
      </g>
     </g>
     <g id="text_15">
      <text style="font-size: 10px; font-family: 'Microsoft YaHei'; text-anchor: end" x="35.873438" y="70.69483" transform="rotate(-0 35.873438 70.69483)">0.6</text>
     </g>
    </g>
    <g id="ytick_8">
     <g id="line2d_29">
      <path d="M 42.873438 35.336916 
L 488.623437 35.336916 
" clip-path="url(#p43511055f8)" style="fill: none; stroke: #b0b0b0; stroke-opacity: 0.28; stroke-width: 0.8; stroke-linecap: square"/>
     </g>
     <g id="line2d_30">
      <g>
       <use xlink:href="#maebf7c8457" x="42.873438" y="35.336916" style="stroke: #000000; stroke-width: 0.8"/>
      </g>
     </g>
     <g id="text_16">
      <text style="font-size: 10px; font-family: 'Microsoft YaHei'; text-anchor: end" x="35.873438" y="39.333791" transform="rotate(-0 35.873438 39.333791)">0.7</text>
     </g>
    </g>
    <g id="text_17">
     <text style="font-size: 10px; font-family: 'Microsoft YaHei'; text-anchor: middle" x="15.19375" y="143.5325" transform="rotate(-90 15.19375 143.5325)">Voltage (V)</text>
    </g>
   </g>
   <g id="line2d_31">
    <path d="M 42.873438 35.336916 
L 81.814157 35.242832 
L 82.099438 35.211471 
L 94.937038 35.117388 
L 95.222318 35.086027 
L 100.785278 34.991944 
L 101.070558 34.960583 
L 114.692678 35.054666 
L 115.191917 35.18011 
L 115.905118 35.274194 
L 116.261718 35.336916 
L 117.117558 35.430999 
L 117.402838 35.46236 
L 129.313277 35.556443 
L 129.598557 35.587804 
L 143.505958 35.493721 
L 143.791238 35.46236 
L 175.100718 35.368277 
L 175.385997 35.336916 
L 470.793437 35.336916 
L 470.793437 35.336916 
" clip-path="url(#p43511055f8)" style="fill: none; stroke: #1f77b4; stroke-width: 1.9; stroke-linecap: square"/>
   </g>
   <g id="line2d_32">
    <path d="M 42.873438 254.864188 
L 83.668478 254.716697 
L 85.094878 254.590124 
L 93.225358 251.759445 
L 97.647198 246.355938 
L 102.710918 237.000941 
L 108.559157 223.882618 
L 114.264758 210.55104 
L 115.049278 209.955181 
L 115.405878 209.861097 
L 115.691158 209.829736 
L 116.475678 209.923819 
L 116.832278 209.986542 
L 117.117558 210.080625 
L 119.114517 211.052817 
L 119.471117 211.240983 
L 119.827717 211.491871 
L 120.826197 212.244536 
L 121.182797 212.495425 
L 123.108438 214.314365 
L 123.750318 215.004308 
L 124.534838 215.819695 
L 125.176718 216.509638 
L 125.889917 217.262303 
L 129.170637 221.746931 
L 129.812517 222.656401 
L 132.237397 226.037121 
L 137.158478 232.776609 
L 141.081077 237.446267 
L 146.572718 242.614566 
L 152.848878 246.898484 
L 158.768438 249.645711 
L 162.120477 250.708851 
L 165.900437 251.756937 
L 172.604517 253.000715 
L 180.449717 253.856872 
L 190.862437 254.433601 
L 204.769837 254.750944 
L 221.316078 254.865704 
L 252.768197 254.883723 
L 470.793437 254.86345 
L 470.793437 254.86345 
" clip-path="url(#p43511055f8)" style="fill: none; stroke: #ff7f0e; stroke-width: 1.9; stroke-linecap: square"/>
   </g>
   <g id="line2d_33">
    <path d="M 42.873438 35.336916 
L 85.094878 35.242832 
L 85.380158 35.211471 
L 92.654798 35.117388 
L 92.940078 35.086027 
L 100.143397 34.991944 
L 100.428678 34.960583 
L 107.489357 34.8665 
L 107.774637 34.835139 
L 470.793437 34.741056 
L 470.793437 34.741056 
" clip-path="url(#p43511055f8)" style="fill: none; stroke: #2ca02c; stroke-width: 1.5; stroke-linecap: square"/>
   </g>
   <g id="line2d_34">
    <path d="M 42.873438 35.336916 
L 85.522798 35.430999 
L 86.164678 35.619165 
L 86.592598 35.713248 
L 87.234478 35.901414 
L 87.662398 35.995497 
L 88.232957 36.152303 
L 88.660877 36.246386 
L 89.302758 36.434552 
L 89.730678 36.528635 
L 90.301238 36.68544 
L 90.729158 36.779523 
L 91.371037 36.96769 
L 91.798958 37.061773 
L 92.369518 37.218578 
L 92.797438 37.312661 
L 93.367998 37.657632 
L 94.152518 38.473019 
L 94.723078 39.068879 
L 95.507598 39.884266 
L 96.078158 40.480126 
L 96.862677 41.295513 
L 97.932478 42.863565 
L 99.430197 45.905586 
L 100.357358 47.755887 
L 101.855077 50.797908 
L 102.140358 51.519212 
L 104.993157 60.645274 
L 106.276917 64.784931 
L 106.562197 65.94529 
L 108.345197 74.036438 
L 111.411957 87.9921 
L 120.326958 138.326568 
L 125.034077 162.568651 
L 127.387638 173.41957 
L 128.671398 178.939113 
L 131.167597 189.476422 
L 136.231318 206.944521 
L 141.437678 220.398406 
L 143.220677 224.05824 
L 146.144798 229.875712 
L 152.349638 238.710117 
L 156.985437 243.141432 
L 158.554477 244.52759 
L 165.401197 248.617069 
L 171.962637 251.094591 
L 181.091597 252.992875 
L 189.293398 253.93057 
L 199.848757 254.515767 
L 215.681797 254.822635 
L 240.358517 254.907153 
L 317.812038 254.864169 
L 470.793437 254.863028 
L 470.793437 254.863028 
" clip-path="url(#p43511055f8)" style="fill: none; stroke: #d62728; stroke-width: 1.5; stroke-linecap: square"/>
   </g>
   <g id="line2d_35">
    <path d="M 42.873438 254.864188 
L 78.533438 254.864188 
L 114.264758 35.336916 
L 470.793437 35.336916 
L 470.793437 35.336916 
" clip-path="url(#p43511055f8)" style="fill: none; stroke-dasharray: 5.18,2.24; stroke-dashoffset: 0; stroke: #9467bd; stroke-width: 1.4"/>
   </g>
   <g id="line2d_36">
    <path d="M 96.363438 264.2725 
L 96.363438 22.7925 
" clip-path="url(#p43511055f8)" style="fill: none; stroke-dasharray: 1,1.65; stroke-dashoffset: 0; stroke: #737373"/>
   </g>
   <g id="line2d_37">
    <path d="M 101.783758 264.2725 
L 101.783758 22.7925 
" clip-path="url(#p43511055f8)" style="fill: none; stroke-dasharray: 1,1.65; stroke-dashoffset: 0; stroke: #737373"/>
   </g>
   <g id="line2d_38">
    <path d="M 42.873438 145.100552 
L 488.623437 145.100552 
" clip-path="url(#p43511055f8)" style="fill: none; stroke-dasharray: 3.33,1.44; stroke-dashoffset: 0; stroke: #595959; stroke-width: 0.9"/>
   </g>
   <g id="line2d_39">
    <defs>
     <path id="m511c51cbcd" d="M 0 2.5 
C 0.663008 2.5 1.29895 2.236584 1.767767 1.767767 
C 2.236584 1.29895 2.5 0.663008 2.5 0 
C 2.5 -0.663008 2.236584 -1.29895 1.767767 -1.767767 
C 1.29895 -2.236584 0.663008 -2.5 0 -2.5 
C -0.663008 -2.5 -1.29895 -2.236584 -1.767767 -1.767767 
C -2.236584 -1.29895 -2.5 -0.663008 -2.5 0 
C -2.5 0.663008 -2.236584 1.29895 -1.767767 1.767767 
C -1.29895 2.236584 -0.663008 2.5 0 2.5 
z
" style="stroke: #d62728"/>
    </defs>
    <g clip-path="url(#p43511055f8)">
     <use xlink:href="#m511c51cbcd" x="115.548518" y="209.798375" style="fill: #d62728; stroke: #d62728"/>
    </g>
   </g>
   <g id="patch_3">
    <path d="M 42.873438 264.2725 
L 42.873438 22.7925 
" style="fill: none; stroke: #000000; stroke-width: 0.8; stroke-linejoin: miter; stroke-linecap: square"/>
   </g>
   <g id="patch_4">
    <path d="M 488.623437 264.2725 
L 488.623437 22.7925 
" style="fill: none; stroke: #000000; stroke-width: 0.8; stroke-linejoin: miter; stroke-linecap: square"/>
   </g>
   <g id="patch_5">
    <path d="M 42.873438 264.2725 
L 488.623437 264.2725 
" style="fill: none; stroke: #000000; stroke-width: 0.8; stroke-linejoin: miter; stroke-linecap: square"/>
   </g>
   <g id="patch_6">
    <path d="M 42.873438 22.7925 
L 488.623437 22.7925 
" style="fill: none; stroke: #000000; stroke-width: 0.8; stroke-linejoin: miter; stroke-linecap: square"/>
   </g>
   <g id="patch_7">
    <path d="M 155.123098 200.673315 
Q 136.30923 205.011394 118.475866 209.123391 
" style="fill: none; stroke: #d62728; stroke-width: 0.9; stroke-linecap: round"/>
    <path d="M 122.38825 210.068508 
L 118.475866 209.123391 
L 121.57939 206.560553 
" style="fill: none; stroke: #d62728; stroke-width: 0.9; stroke-linecap: round"/>
   </g>
   <g id="text_18">
    <g id="patch_8">
     <path d="M 135.161518 199.723252 
L 239.842767 199.723252 
Q 241.642767 199.723252 241.642767 197.923252 
L 241.642767 188.491533 
Q 241.642767 186.691533 239.842767 186.691533 
L 135.161518 186.691533 
Q 133.361517 186.691533 133.361517 188.491533 
L 133.361517 197.923252 
Q 133.361517 199.723252 135.161518 199.723252 
z
" style="fill: #ffffff; opacity: 0.95; stroke: #bfbfbf; stroke-linejoin: miter"/>
    </g>
    <text style="font-size: 9px; font-family: 'Microsoft YaHei'; text-anchor: start; fill: #d62728" x="135.161518" y="195.685908" transform="rotate(-0 135.161518 195.685908)">read disturb = 143.7 mV</text>
   </g>
   <g id="text_19">
    <g id="patch_9">
     <path d="M 292.493438 244.663875 
L 402.02625 244.663875 
Q 404.27625 244.663875 404.27625 242.413875 
L 404.27625 222.0075 
Q 404.27625 219.7575 402.02625 219.7575 
L 292.493438 219.7575 
Q 290.243438 219.7575 290.243438 222.0075 
L 290.243438 242.413875 
Q 290.243438 244.663875 292.493438 244.663875 
z
" style="fill: #ffffff; opacity: 0.95; stroke: #b2b2b2; stroke-linejoin: miter"/>
    </g>
    <text style="font-size: 9px; font-family: 'Microsoft YaHei'" transform="translate(292.493438 229.201875)">read delay = 15.2 ps</text>
    <text style="font-size: 9px; font-family: 'Microsoft YaHei'" transform="translate(292.493438 240.1245)">margin proxy = 206.3 mV</text>
   </g>
   <g id="text_20">
    <text style="font-size: 12px; font-family: 'Microsoft YaHei'; text-anchor: middle" x="265.748437" y="16.7925" transform="rotate(-0 265.748437 16.7925)">No-RC read transient</text>
   </g>
   <g id="legend_1">
    <g id="patch_10">
     <path d="M 396.877187 175.691875 
L 483.023437 175.691875 
Q 484.623437 175.691875 484.623437 174.091875 
L 484.623437 112.973125 
Q 484.623437 111.373125 483.023437 111.373125 
L 396.877187 111.373125 
Q 395.277187 111.373125 395.277187 112.973125 
L 395.277187 174.091875 
Q 395.277187 175.691875 396.877187 175.691875 
z
" style="fill: #ffffff; opacity: 0.8; stroke: #cccccc; stroke-linejoin: miter"/>
    </g>
    <g id="line2d_40">
     <path d="M 398.477187 118.168125 
L 406.477187 118.168125 
L 414.477187 118.168125 
" style="fill: none; stroke: #1f77b4; stroke-width: 1.9; stroke-linecap: square"/>
    </g>
    <g id="text_21">
     <text style="font-size: 8px; font-family: 'Microsoft YaHei'; text-anchor: start" x="420.877187" y="120.968125" transform="rotate(-0 420.877187 120.968125)">Q</text>
    </g>
    <g id="line2d_41">
     <path d="M 398.477187 130.551875 
L 406.477187 130.551875 
L 414.477187 130.551875 
" style="fill: none; stroke: #ff7f0e; stroke-width: 1.9; stroke-linecap: square"/>
    </g>
    <g id="text_22">
     <text style="font-size: 8px; font-family: 'Microsoft YaHei'; text-anchor: start" x="420.877187" y="133.351875" transform="rotate(-0 420.877187 133.351875)">QB (stored-low)</text>
    </g>
    <g id="line2d_42">
     <path d="M 398.477187 142.935625 
L 406.477187 142.935625 
L 414.477187 142.935625 
" style="fill: none; stroke: #2ca02c; stroke-width: 1.5; stroke-linecap: square"/>
    </g>
    <g id="text_23">
     <text style="font-size: 8px; font-family: 'Microsoft YaHei'; text-anchor: start" x="420.877187" y="145.735625" transform="rotate(-0 420.877187 145.735625)">BL</text>
    </g>
    <g id="line2d_43">
     <path d="M 398.477187 155.319375 
L 406.477187 155.319375 
L 414.477187 155.319375 
" style="fill: none; stroke: #d62728; stroke-width: 1.5; stroke-linecap: square"/>
    </g>
    <g id="text_24">
     <text style="font-size: 8px; font-family: 'Microsoft YaHei'; text-anchor: start" x="420.877187" y="158.119375" transform="rotate(-0 420.877187 158.119375)">BLB</text>
    </g>
    <g id="line2d_44">
     <path d="M 398.477187 167.703125 
L 406.477187 167.703125 
L 414.477187 167.703125 
" style="fill: none; stroke-dasharray: 5.18,2.24; stroke-dashoffset: 0; stroke: #9467bd; stroke-width: 1.4"/>
    </g>
    <g id="text_25">
     <text style="font-size: 8px; font-family: 'Microsoft YaHei'; text-anchor: start" x="420.877187" y="170.503125" transform="rotate(-0 420.877187 170.503125)">WL</text>
    </g>
   </g>
  </g>
 </g>
 <defs>
  <clipPath id="p43511055f8">
   <rect x="42.873438" y="22.7925" width="445.75" height="241.48"/>
  </clipPath>
 </defs>
</svg>
