<?xml version="1.0" encoding="utf-8" standalone="no"?>
<!DOCTYPE svg PUBLIC "-//W3C//DTD SVG 1.1//EN"
  "http://www.w3.org/Graphics/SVG/1.1/DTD/svg11.dtd">
<svg xmlns:xlink="http://www.w3.org/1999/xlink" width="445.423437pt" height="296.289688pt" viewBox="0 0 445.423437 296.289688" xmlns="http://www.w3.org/2000/svg" version="1.1">
 <metadata>
  <rdf:RDF xmlns:dc="http://purl.org/dc/elements/1.1/" xmlns:cc="http://creativecommons.org/ns#" xmlns:rdf="http://www.w3.org/1999/02/22-rdf-syntax-ns#">
   <cc:Work>
    <dc:type rdf:resource="http://purl.org/dc/dcmitype/StillImage"/>
    <dc:date>2026-07-14T10:41:15.261878</dc:date>
    <dc:format>image/svg+xml</dc:format>
    <dc:creator>
     <cc:Agent>
      <dc:title>Matplotlib v3.10.8, https://matplotlib.org/</dc:title>
     </cc:Agent>
    </dc:creator>
   </cc:Work>
  </rdf:RDF>
 </metadata>
 <defs>
  <style type="text/css">*{stroke-linejoin: round; stroke-linecap: butt}</style>
 </defs>
 <g id="figure_1">
  <g id="patch_1">
   <path d="M 0 296.289688 
L 445.423437 296.289688 
L 445.423437 0 
L 0 0 
z
" style="fill: #ffffff"/>
  </g>
  <g id="axes_1">
   <g id="patch_2">
    <path d="M 42.873438 257.0725 
L 438.223437 257.0725 
L 438.223437 22.7925 
L 42.873438 22.7925 
z
" style="fill: #ffffff"/>
   </g>
   <g id="matplotlib.axis_1">
    <g id="xtick_1">
     <g id="line2d_1">
      <path d="M 420.252983 257.0725 
L 420.252983 22.7925 
" clip-path="url(#paaf19e14d9)" style="fill: none; stroke: #b0b0b0; stroke-opacity: 0.28; stroke-width: 0.8; stroke-linecap: square"/>
     </g>
     <g id="line2d_2">
      <defs>
       <path id="mf4e03d891d" d="M 0 0 
L 0 3.5 
" style="stroke: #000000; stroke-width: 0.8"/>
      </defs>
      <g>
       <use xlink:href="#mf4e03d891d" x="420.252983" y="257.0725" style="stroke: #000000; stroke-width: 0.8"/>
      </g>
     </g>
     <g id="text_1">
      <text style="font-size: 10px; font-family: 'Microsoft YaHei'; text-anchor: middle" x="420.252983" y="272.06625" transform="rotate(-0 420.252983 272.06625)">0.0</text>
     </g>
    </g>
    <g id="xtick_2">
     <g id="line2d_3">
      <path d="M 368.908827 257.0725 
L 368.908827 22.7925 
" clip-path="url(#paaf19e14d9)" style="fill: none; stroke: #b0b0b0; stroke-opacity: 0.28; stroke-width: 0.8; stroke-linecap: square"/>
     </g>
     <g id="line2d_4">
      <g>
       <use xlink:href="#mf4e03d891d" x="368.908827" y="257.0725" style="stroke: #000000; stroke-width: 0.8"/>
      </g>
     </g>
     <g id="text_2">
      <text style="font-size: 10px; font-family: 'Microsoft YaHei'; text-anchor: middle" x="368.908827" y="272.06625" transform="rotate(-0 368.908827 272.06625)">0.1</text>
     </g>
    </g>
    <g id="xtick_3">
     <g id="line2d_5">
      <path d="M 317.564671 257.0725 
L 317.564671 22.7925 
" clip-path="url(#paaf19e14d9)" style="fill: none; stroke: #b0b0b0; stroke-opacity: 0.28; stroke-width: 0.8; stroke-linecap: square"/>
     </g>
     <g id="line2d_6">
      <g>
       <use xlink:href="#mf4e03d891d" x="317.564671" y="257.0725" style="stroke: #000000; stroke-width: 0.8"/>
      </g>
     </g>
     <g id="text_3">
      <text style="font-size: 10px; font-family: 'Microsoft YaHei'; text-anchor: middle" x="317.564671" y="272.06625" transform="rotate(-0 317.564671 272.06625)">0.2</text>
     </g>
    </g>
    <g id="xtick_4">
     <g id="line2d_7">
      <path d="M 266.220515 257.0725 
L 266.220515 22.7925 
" clip-path="url(#paaf19e14d9)" style="fill: none; stroke: #b0b0b0; stroke-opacity: 0.28; stroke-width: 0.8; stroke-linecap: square"/>
     </g>
     <g id="line2d_8">
      <g>
       <use xlink:href="#mf4e03d891d" x="266.220515" y="257.0725" style="stroke: #000000; stroke-width: 0.8"/>
      </g>
     </g>
     <g id="text_4">
      <text style="font-size: 10px; font-family: 'Microsoft YaHei'; text-anchor: middle" x="266.220515" y="272.06625" transform="rotate(-0 266.220515 272.06625)">0.3</text>
     </g>
    </g>
    <g id="xtick_5">
     <g id="line2d_9">
      <path d="M 214.87636 257.0725 
L 214.87636 22.7925 
" clip-path="url(#paaf19e14d9)" style="fill: none; stroke: #b0b0b0; stroke-opacity: 0.28; stroke-width: 0.8; stroke-linecap: square"/>
     </g>
     <g id="line2d_10">
      <g>
       <use xlink:href="#mf4e03d891d" x="214.87636" y="257.0725" style="stroke: #000000; stroke-width: 0.8"/>
      </g>
     </g>
     <g id="text_5">
      <text style="font-size: 10px; font-family: 'Microsoft YaHei'; text-anchor: middle" x="214.87636" y="272.06625" transform="rotate(-0 214.87636 272.06625)">0.4</text>
     </g>
    </g>
    <g id="xtick_6">
     <g id="line2d_11">
      <path d="M 163.532204 257.0725 
L 163.532204 22.7925 
" clip-path="url(#paaf19e14d9)" style="fill: none; stroke: #b0b0b0; stroke-opacity: 0.28; stroke-width: 0.8; stroke-linecap: square"/>
     </g>
     <g id="line2d_12">
      <g>
       <use xlink:href="#mf4e03d891d" x="163.532204" y="257.0725" style="stroke: #000000; stroke-width: 0.8"/>
      </g>
     </g>
     <g id="text_6">
      <text style="font-size: 10px; font-family: 'Microsoft YaHei'; text-anchor: middle" x="163.532204" y="272.06625" transform="rotate(-0 163.532204 272.06625)">0.5</text>
     </g>
    </g>
    <g id="xtick_7">
     <g id="line2d_13">
      <path d="M 112.188048 257.0725 
L 112.188048 22.7925 
" clip-path="url(#paaf19e14d9)" style="fill: none; stroke: #b0b0b0; stroke-opacity: 0.28; stroke-width: 0.8; stroke-linecap: square"/>
     </g>
     <g id="line2d_14">
      <g>
       <use xlink:href="#mf4e03d891d" x="112.188048" y="257.0725" style="stroke: #000000; stroke-width: 0.8"/>
      </g>
     </g>
     <g id="text_7">
      <text style="font-size: 10px; font-family: 'Microsoft YaHei'; text-anchor: middle" x="112.188048" y="272.06625" transform="rotate(-0 112.188048 272.06625)">0.6</text>
     </g>
    </g>
    <g id="xtick_8">
     <g id="line2d_15">
      <path d="M 60.843892 257.0725 
L 60.843892 22.7925 
" clip-path="url(#paaf19e14d9)" style="fill: none; stroke: #b0b0b0; stroke-opacity: 0.28; stroke-width: 0.8; stroke-linecap: square"/>
     </g>
     <g id="line2d_16">
      <g>
       <use xlink:href="#mf4e03d891d" x="60.843892" y="257.0725" style="stroke: #000000; stroke-width: 0.8"/>
      </g>
     </g>
     <g id="text_8">
      <text style="font-size: 10px; font-family: 'Microsoft YaHei'; text-anchor: middle" x="60.843892" y="272.06625" transform="rotate(-0 60.843892 272.06625)">0.7</text>
     </g>
    </g>
    <g id="text_9">
     <text style="font-size: 10px; font-family: 'Microsoft YaHei'; text-anchor: middle" x="240.548437" y="286.545938" transform="rotate(-0 240.548437 286.545938)">Forced BL voltage during write-0 DC sweep (V)</text>
    </g>
   </g>
   <g id="matplotlib.axis_2">
    <g id="ytick_1">
     <g id="line2d_17">
      <path d="M 42.873438 247.944708 
L 438.223437 247.944708 
" clip-path="url(#paaf19e14d9)" style="fill: none; stroke: #b0b0b0; stroke-opacity: 0.28; stroke-width: 0.8; stroke-linecap: square"/>
     </g>
     <g id="line2d_18">
      <defs>
       <path id="ma0c67d0400" d="M 0 0 
L -3.5 0 
" style="stroke: #000000; stroke-width: 0.8"/>
      </defs>
      <g>
       <use xlink:href="#ma0c67d0400" x="42.873438" y="247.944708" style="stroke: #000000; stroke-width: 0.8"/>
      </g>
     </g>
     <g id="text_10">
      <text style="font-size: 10px; font-family: 'Microsoft YaHei'; text-anchor: end" x="35.873438" y="251.941583" transform="rotate(-0 35.873438 251.941583)">0.0</text>
     </g>
    </g>
    <g id="ytick_2">
     <g id="line2d_19">
      <path d="M 42.873438 217.518734 
L 438.223437 217.518734 
" clip-path="url(#paaf19e14d9)" style="fill: none; stroke: #b0b0b0; stroke-opacity: 0.28; stroke-width: 0.8; stroke-linecap: square"/>
     </g>
     <g id="line2d_20">
      <g>
       <use xlink:href="#ma0c67d0400" x="42.873438" y="217.518734" style="stroke: #000000; stroke-width: 0.8"/>
      </g>
     </g>
     <g id="text_11">
      <text style="font-size: 10px; font-family: 'Microsoft YaHei'; text-anchor: end" x="35.873438" y="221.515609" transform="rotate(-0 35.873438 221.515609)">0.1</text>
     </g>
    </g>
    <g id="ytick_3">
     <g id="line2d_21">
      <path d="M 42.873438 187.09276 
L 438.223437 187.09276 
" clip-path="url(#paaf19e14d9)" style="fill: none; stroke: #b0b0b0; stroke-opacity: 0.28; stroke-width: 0.8; stroke-linecap: square"/>
     </g>
     <g id="line2d_22">
      <g>
       <use xlink:href="#ma0c67d0400" x="42.873438" y="187.09276" style="stroke: #000000; stroke-width: 0.8"/>
      </g>
     </g>
     <g id="text_12">
      <text style="font-size: 10px; font-family: 'Microsoft YaHei'; text-anchor: end" x="35.873438" y="191.089635" transform="rotate(-0 35.873438 191.089635)">0.2</text>
     </g>
    </g>
    <g id="ytick_4">
     <g id="line2d_23">
      <path d="M 42.873438 156.666786 
L 438.223437 156.666786 
" clip-path="url(#paaf19e14d9)" style="fill: none; stroke: #b0b0b0; stroke-opacity: 0.28; stroke-width: 0.8; stroke-linecap: square"/>
     </g>
     <g id="line2d_24">
      <g>
       <use xlink:href="#ma0c67d0400" x="42.873438" y="156.666786" style="stroke: #000000; stroke-width: 0.8"/>
      </g>
     </g>
     <g id="text_13">
      <text style="font-size: 10px; font-family: 'Microsoft YaHei'; text-anchor: end" x="35.873438" y="160.663661" transform="rotate(-0 35.873438 160.663661)">0.3</text>
     </g>
    </g>
    <g id="ytick_5">
     <g id="line2d_25">
      <path d="M 42.873438 126.240812 
L 438.223437 126.240812 
" clip-path="url(#paaf19e14d9)" style="fill: none; stroke: #b0b0b0; stroke-opacity: 0.28; stroke-width: 0.8; stroke-linecap: square"/>
     </g>
     <g id="line2d_26">
      <g>
       <use xlink:href="#ma0c67d0400" x="42.873438" y="126.240812" style="stroke: #000000; stroke-width: 0.8"/>
      </g>
     </g>
     <g id="text_14">
      <text style="font-size: 10px; font-family: 'Microsoft YaHei'; text-anchor: end" x="35.873438" y="130.237687" transform="rotate(-0 35.873438 130.237687)">0.4</text>
     </g>
    </g>
    <g id="ytick_6">
     <g id="line2d_27">
      <path d="M 42.873438 95.814838 
L 438.223437 95.814838 
" clip-path="url(#paaf19e14d9)" style="fill: none; stroke: #b0b0b0; stroke-opacity: 0.28; stroke-width: 0.8; stroke-linecap: square"/>
     </g>
     <g id="line2d_28">
      <g>
       <use xlink:href="#ma0c67d0400" x="42.873438" y="95.814838" style="stroke: #000000; stroke-width: 0.8"/>
      </g>
     </g>
     <g id="text_15">
      <text style="font-size: 10px; font-family: 'Microsoft YaHei'; text-anchor: end" x="35.873438" y="99.811713" transform="rotate(-0 35.873438 99.811713)">0.5</text>
     </g>
    </g>
    <g id="ytick_7">
     <g id="line2d_29">
      <path d="M 42.873438 65.388864 
L 438.223437 65.388864 
" clip-path="url(#paaf19e14d9)" style="fill: none; stroke: #b0b0b0; stroke-opacity: 0.28; stroke-width: 0.8; stroke-linecap: square"/>
     </g>
     <g id="line2d_30">
      <g>
       <use xlink:href="#ma0c67d0400" x="42.873438" y="65.388864" style="stroke: #000000; stroke-width: 0.8"/>
      </g>
     </g>
     <g id="text_16">
      <text style="font-size: 10px; font-family: 'Microsoft YaHei'; text-anchor: end" x="35.873438" y="69.385739" transform="rotate(-0 35.873438 69.385739)">0.6</text>
     </g>
    </g>
    <g id="ytick_8">
     <g id="line2d_31">
      <path d="M 42.873438 34.96289 
L 438.223437 34.96289 
" clip-path="url(#paaf19e14d9)" style="fill: none; stroke: #b0b0b0; stroke-opacity: 0.28; stroke-width: 0.8; stroke-linecap: square"/>
     </g>
     <g id="line2d_32">
      <g>
       <use xlink:href="#ma0c67d0400" x="42.873438" y="34.96289" style="stroke: #000000; stroke-width: 0.8"/>
      </g>
     </g>
     <g id="text_17">
      <text style="font-size: 10px; font-family: 'Microsoft YaHei'; text-anchor: end" x="35.873438" y="38.959765" transform="rotate(-0 35.873438 38.959765)">0.7</text>
     </g>
    </g>
    <g id="text_18">
     <text style="font-size: 10px; font-family: 'Microsoft YaHei'; text-anchor: middle" x="15.19375" y="139.9325" transform="rotate(-90 15.19375 139.9325)">Storage-node voltage (V)</text>
    </g>
   </g>
   <g id="line2d_33">
    <path d="M 60.843892 35.145445 
L 136.833243 35.236723 
L 138.887009 35.267149 
L 148.642399 35.358427 
L 151.209606 35.419279 
L 156.857463 35.510557 
L 159.938113 35.601835 
L 163.532204 35.693113 
L 167.639736 35.845243 
L 170.206944 35.936521 
L 188.69084 37.123134 
L 192.798373 37.518671 
L 194.852139 37.731653 
L 206.661295 39.222526 
L 212.822593 40.226583 
L 214.87636 40.561269 
L 220.524217 41.656604 
L 226.172074 42.904069 
L 228.22584 43.360458 
L 230.279606 43.8777 
L 234.387139 44.942609 
L 246.196295 48.532874 
L 254.41136 51.545045 
L 262.112983 54.831051 
L 267.76084 57.63024 
L 272.381814 60.216448 
L 276.489347 62.77223 
L 281.110321 66.149513 
L 284.704412 69.252962 
L 287.785061 72.508542 
L 289.325386 74.455804 
L 290.86571 76.798604 
L 291.892593 78.776292 
L 292.919476 81.392926 
L 293.432918 83.492318 
L 293.94636 215.328064 
L 299.594217 216.423399 
L 302.674866 217.062344 
L 306.268957 217.804738 
L 320.131879 220.871676 
L 335.021684 224.42543 
L 353.50558 229.138413 
L 378.664217 235.959917 
L 399.715321 241.935578 
L 420.252983 247.944554 
L 420.252983 247.944554 
" clip-path="url(#paaf19e14d9)" style="fill: none; stroke: #1f77b4; stroke-width: 2; stroke-linecap: square"/>
   </g>
   <g id="line2d_34">
    <path d="M 60.843892 201.088708 
L 163.018762 200.99743 
L 165.072528 200.967004 
L 178.93545 200.875726 
L 180.989217 200.8453 
L 188.69084 200.754022 
L 191.258048 200.69317 
L 196.905905 200.601892 
L 199.473113 200.54104 
L 204.094087 200.449762 
L 207.688178 200.328058 
L 211.79571 200.236781 
L 215.903243 200.084651 
L 218.983892 199.993373 
L 225.145191 199.719539 
L 227.712399 199.628261 
L 250.817269 198.167814 
L 254.41136 197.833129 
L 257.492009 197.559295 
L 270.328048 195.946718 
L 279.056554 194.303716 
L 282.650645 193.36051 
L 285.731295 192.356453 
L 288.811944 191.01771 
L 290.86571 189.739819 
L 291.892593 188.857466 
L 292.919476 187.610001 
L 293.432918 186.575518 
L 293.94636 34.993316 
L 420.252983 34.96289 
L 420.252983 34.96289 
" clip-path="url(#paaf19e14d9)" style="fill: none; stroke: #ff7f0e; stroke-width: 2; stroke-linecap: square"/>
   </g>
   <g id="line2d_35">
    <path d="M 42.873438 141.453799 
L 438.223437 141.453799 
" clip-path="url(#paaf19e14d9)" style="fill: none; stroke-dasharray: 3.33,1.44; stroke-dashoffset: 0; stroke: #595959; stroke-width: 0.9"/>
   </g>
   <g id="line2d_36">
    <path d="M 293.619664 257.0725 
L 293.619664 22.7925 
" clip-path="url(#paaf19e14d9)" style="fill: none; stroke-dasharray: 1.4,2.31; stroke-dashoffset: 0; stroke: #d62728; stroke-width: 1.4"/>
   </g>
   <g id="line2d_37">
    <defs>
     <path id="m21be7868cf" d="M 0 2.5 
C 0.663008 2.5 1.29895 2.236584 1.767767 1.767767 
C 2.236584 1.29895 2.5 0.663008 2.5 0 
C 2.5 -0.663008 2.236584 -1.29895 1.767767 -1.767767 
C 1.29895 -2.236584 0.663008 -2.5 0 -2.5 
C -0.663008 -2.5 -1.29895 -2.236584 -1.767767 -1.767767 
C -2.236584 -1.29895 -2.5 -0.663008 -2.5 0 
C -2.5 0.663008 -2.236584 1.29895 -1.767767 1.767767 
C -1.29895 2.236584 -0.663008 2.5 0 2.5 
z
" style="stroke: #d62728"/>
    </defs>
    <g clip-path="url(#paaf19e14d9)">
     <use xlink:href="#m21be7868cf" x="293.619664" y="131.442882" style="fill: #d62728; stroke: #d62728"/>
    </g>
   </g>
   <g id="patch_3">
    <path d="M 42.873438 257.0725 
L 42.873438 22.7925 
" style="fill: none; stroke: #000000; stroke-width: 0.8; stroke-linejoin: miter; stroke-linecap: square"/>
   </g>
   <g id="patch_4">
    <path d="M 438.223437 257.0725 
L 438.223437 22.7925 
" style="fill: none; stroke: #000000; stroke-width: 0.8; stroke-linejoin: miter; stroke-linecap: square"/>
   </g>
   <g id="patch_5">
    <path d="M 42.873438 257.0725 
L 438.223437 257.0725 
" style="fill: none; stroke: #000000; stroke-width: 0.8; stroke-linejoin: miter; stroke-linecap: square"/>
   </g>
   <g id="patch_6">
    <path d="M 42.873438 22.7925 
L 438.223437 22.7925 
" style="fill: none; stroke: #000000; stroke-width: 0.8; stroke-linejoin: miter; stroke-linecap: square"/>
   </g>
   <g id="patch_7">
    <path d="M 302.564742 123.289213 
Q 298.534434 131.473476 294.948663 138.755029 
" style="fill: none; stroke: #d62728; stroke-width: 0.9; stroke-linecap: round"/>
    <path d="M 298.153903 136.320602 
L 294.948663 138.755029 
L 294.924266 134.73018 
" style="fill: none; stroke: #d62728; stroke-width: 0.9; stroke-linecap: round"/>
   </g>
   <g id="text_19">
    <g id="patch_8">
     <path d="M 272.176437 120.991844 
L 352.782687 120.991844 
Q 355.032687 120.991844 355.032687 118.741844 
L 355.032687 87.516906 
Q 355.032687 85.266906 352.782687 85.266906 
L 272.176437 85.266906 
Q 269.926437 85.266906 269.926437 87.516906 
L 269.926437 118.741844 
Q 269.926437 120.991844 272.176437 120.991844 
z
" style="fill: #ffffff; opacity: 0.95; stroke: #b2b2b2; stroke-linejoin: miter"/>
    </g>
    <text style="font-size: 9px; font-family: 'Microsoft YaHei'" transform="translate(272.176437 94.711281)">Q=QB crossing</text>
    <text style="font-size: 9px; font-family: 'Microsoft YaHei'" transform="translate(272.176437 105.633906)">BL=0.247 V</text>
    <text style="font-size: 9px; font-family: 'Microsoft YaHei'" transform="translate(272.176437 116.5045)">BL drop=453.4 mV</text>
   </g>
   <g id="text_20">
    <text style="font-size: 12px; font-family: 'Microsoft YaHei'; text-anchor: middle" x="240.548437" y="16.7925" transform="rotate(-0 240.548437 16.7925)">No-RC write-trip DC curve</text>
   </g>
   <g id="legend_1">
    <g id="patch_9">
     <path d="M 395.483437 153.51625 
L 432.623437 153.51625 
Q 434.223437 153.51625 434.223437 151.91625 
L 434.223437 127.94875 
Q 434.223437 126.34875 432.623437 126.34875 
L 395.483437 126.34875 
Q 393.883437 126.34875 393.883437 127.94875 
L 393.883437 151.91625 
Q 393.883437 153.51625 395.483437 153.51625 
z
" style="fill: #ffffff; opacity: 0.8; stroke: #cccccc; stroke-linejoin: miter"/>
    </g>
    <g id="line2d_38">
     <path d="M 397.083437 133.14375 
L 405.083437 133.14375 
L 413.083437 133.14375 
" style="fill: none; stroke: #1f77b4; stroke-width: 2; stroke-linecap: square"/>
    </g>
    <g id="text_21">
     <text style="font-size: 8px; font-family: 'Microsoft YaHei'; text-anchor: start" x="419.483437" y="135.94375" transform="rotate(-0 419.483437 135.94375)">Q</text>
    </g>
    <g id="line2d_39">
     <path d="M 397.083437 145.5275 
L 405.083437 145.5275 
L 413.083437 145.5275 
" style="fill: none; stroke: #ff7f0e; stroke-width: 2; stroke-linecap: square"/>
    </g>
    <g id="text_22">
     <text style="font-size: 8px; font-family: 'Microsoft YaHei'; text-anchor: start" x="419.483437" y="148.3275" transform="rotate(-0 419.483437 148.3275)">QB</text>
    </g>
   </g>
  </g>
 </g>
 <defs>
  <clipPath id="paaf19e14d9">
   <rect x="42.873438" y="22.7925" width="395.35" height="234.28"/>
  </clipPath>
 </defs>
</svg>
