<?xml version="1.0" encoding="utf-8" standalone="no"?>
<!DOCTYPE svg PUBLIC "-//W3C//DTD SVG 1.1//EN"
  "http://www.w3.org/Graphics/SVG/1.1/DTD/svg11.dtd">
<svg xmlns:xlink="http://www.w3.org/1999/xlink" width="777.6pt" height="302.4pt" viewBox="0 0 777.6 302.4" xmlns="http://www.w3.org/2000/svg" version="1.1">
 <metadata>
  <rdf:RDF xmlns:dc="http://purl.org/dc/elements/1.1/" xmlns:cc="http://creativecommons.org/ns#" xmlns:rdf="http://www.w3.org/1999/02/22-rdf-syntax-ns#">
   <cc:Work>
    <dc:type rdf:resource="http://purl.org/dc/dcmitype/StillImage"/>
    <dc:date>2026-07-13T12:57:56.900282</dc:date>
    <dc:format>image/svg+xml</dc:format>
    <dc:creator>
     <cc:Agent>
      <dc:title>Matplotlib v3.10.8, https://matplotlib.org/</dc:title>
     </cc:Agent>
    </dc:creator>
   </cc:Work>
  </rdf:RDF>
 </metadata>
 <defs>
  <style type="text/css">*{stroke-linejoin: round; stroke-linecap: butt}</style>
 </defs>
 <g id="figure_1">
  <g id="patch_1">
   <path d="M 0 302.4 
L 777.6 302.4 
L 777.6 0 
L 0 0 
z
" style="fill: #ffffff"/>
  </g>
  <g id="axes_1">
   <g id="patch_2">
    <path d="M 47.72 260.44 
L 347.697576 260.44 
L 347.697576 71.808 
L 47.72 71.808 
z
" style="fill: #ffffff"/>
   </g>
   <g id="matplotlib.axis_1">
    <g id="xtick_1">
     <g id="line2d_1">
      <path d="M 47.72 260.44 
L 47.72 71.808 
" clip-path="url(#p00ece7f0dc)" style="fill: none; stroke: #b0b0b0; stroke-opacity: 0.3; stroke-width: 0.8; stroke-linecap: square"/>
     </g>
     <g id="line2d_2">
      <defs>
       <path id="m6073edcc6a" d="M 0 0 
L 0 3.5 
" style="stroke: #000000; stroke-width: 0.8"/>
      </defs>
      <g>
       <use xlink:href="#m6073edcc6a" x="47.72" y="260.44" style="stroke: #000000; stroke-width: 0.8"/>
      </g>
     </g>
     <g id="text_1">
      <!-- 0 -->
      <g transform="translate(44.53875 275.038438) scale(0.1 -0.1)">
       <defs>
        <path id="DejaVuSans-30" d="M 2034 4250 
Q 1547 4250 1301 3770 
Q 1056 3291 1056 2328 
Q 1056 1369 1301 889 
Q 1547 409 2034 409 
Q 2525 409 2770 889 
Q 3016 1369 3016 2328 
Q 3016 3291 2770 3770 
Q 2525 4250 2034 4250 
z
M 2034 4750 
Q 2819 4750 3233 4129 
Q 3647 3509 3647 2328 
Q 3647 1150 3233 529 
Q 2819 -91 2034 -91 
Q 1250 -91 836 529 
Q 422 1150 422 2328 
Q 422 3509 836 4129 
Q 1250 4750 2034 4750 
z
" transform="scale(0.015625)"/>
       </defs>
       <use xlink:href="#DejaVuSans-30"/>
      </g>
     </g>
    </g>
    <g id="xtick_2">
     <g id="line2d_3">
      <path d="M 107.715515 260.44 
L 107.715515 71.808 
" clip-path="url(#p00ece7f0dc)" style="fill: none; stroke: #b0b0b0; stroke-opacity: 0.3; stroke-width: 0.8; stroke-linecap: square"/>
     </g>
     <g id="line2d_4">
      <g>
       <use xlink:href="#m6073edcc6a" x="107.715515" y="260.44" style="stroke: #000000; stroke-width: 0.8"/>
      </g>
     </g>
     <g id="text_2">
      <!-- 100 -->
      <g transform="translate(98.171765 275.038438) scale(0.1 -0.1)">
       <defs>
        <path id="DejaVuSans-31" d="M 794 531 
L 1825 531 
L 1825 4091 
L 703 3866 
L 703 4441 
L 1819 4666 
L 2450 4666 
L 2450 531 
L 3481 531 
L 3481 0 
L 794 0 
L 794 531 
z
" transform="scale(0.015625)"/>
       </defs>
       <use xlink:href="#DejaVuSans-31"/>
       <use xlink:href="#DejaVuSans-30" transform="translate(63.623047 0)"/>
       <use xlink:href="#DejaVuSans-30" transform="translate(127.246094 0)"/>
      </g>
     </g>
    </g>
    <g id="xtick_3">
     <g id="line2d_5">
      <path d="M 167.71103 260.44 
L 167.71103 71.808 
" clip-path="url(#p00ece7f0dc)" style="fill: none; stroke: #b0b0b0; stroke-opacity: 0.3; stroke-width: 0.8; stroke-linecap: square"/>
     </g>
     <g id="line2d_6">
      <g>
       <use xlink:href="#m6073edcc6a" x="167.71103" y="260.44" style="stroke: #000000; stroke-width: 0.8"/>
      </g>
     </g>
     <g id="text_3">
      <!-- 200 -->
      <g transform="translate(158.16728 275.038438) scale(0.1 -0.1)">
       <defs>
        <path id="DejaVuSans-32" d="M 1228 531 
L 3431 531 
L 3431 0 
L 469 0 
L 469 531 
Q 828 903 1448 1529 
Q 2069 2156 2228 2338 
Q 2531 2678 2651 2914 
Q 2772 3150 2772 3378 
Q 2772 3750 2511 3984 
Q 2250 4219 1831 4219 
Q 1534 4219 1204 4116 
Q 875 4013 500 3803 
L 500 4441 
Q 881 4594 1212 4672 
Q 1544 4750 1819 4750 
Q 2544 4750 2975 4387 
Q 3406 4025 3406 3419 
Q 3406 3131 3298 2873 
Q 3191 2616 2906 2266 
Q 2828 2175 2409 1742 
Q 1991 1309 1228 531 
z
" transform="scale(0.015625)"/>
       </defs>
       <use xlink:href="#DejaVuSans-32"/>
       <use xlink:href="#DejaVuSans-30" transform="translate(63.623047 0)"/>
       <use xlink:href="#DejaVuSans-30" transform="translate(127.246094 0)"/>
      </g>
     </g>
    </g>
    <g id="xtick_4">
     <g id="line2d_7">
      <path d="M 227.706545 260.44 
L 227.706545 71.808 
" clip-path="url(#p00ece7f0dc)" style="fill: none; stroke: #b0b0b0; stroke-opacity: 0.3; stroke-width: 0.8; stroke-linecap: square"/>
     </g>
     <g id="line2d_8">
      <g>
       <use xlink:href="#m6073edcc6a" x="227.706545" y="260.44" style="stroke: #000000; stroke-width: 0.8"/>
      </g>
     </g>
     <g id="text_4">
      <!-- 300 -->
      <g transform="translate(218.162795 275.038438) scale(0.1 -0.1)">
       <defs>
        <path id="DejaVuSans-33" d="M 2597 2516 
Q 3050 2419 3304 2112 
Q 3559 1806 3559 1356 
Q 3559 666 3084 287 
Q 2609 -91 1734 -91 
Q 1441 -91 1130 -33 
Q 819 25 488 141 
L 488 750 
Q 750 597 1062 519 
Q 1375 441 1716 441 
Q 2309 441 2620 675 
Q 2931 909 2931 1356 
Q 2931 1769 2642 2001 
Q 2353 2234 1838 2234 
L 1294 2234 
L 1294 2753 
L 1863 2753 
Q 2328 2753 2575 2939 
Q 2822 3125 2822 3475 
Q 2822 3834 2567 4026 
Q 2313 4219 1838 4219 
Q 1578 4219 1281 4162 
Q 984 4106 628 3988 
L 628 4550 
Q 988 4650 1302 4700 
Q 1616 4750 1894 4750 
Q 2613 4750 3031 4423 
Q 3450 4097 3450 3541 
Q 3450 3153 3228 2886 
Q 3006 2619 2597 2516 
z
" transform="scale(0.015625)"/>
       </defs>
       <use xlink:href="#DejaVuSans-33"/>
       <use xlink:href="#DejaVuSans-30" transform="translate(63.623047 0)"/>
       <use xlink:href="#DejaVuSans-30" transform="translate(127.246094 0)"/>
      </g>
     </g>
    </g>
    <g id="xtick_5">
     <g id="line2d_9">
      <path d="M 287.702061 260.44 
L 287.702061 71.808 
" clip-path="url(#p00ece7f0dc)" style="fill: none; stroke: #b0b0b0; stroke-opacity: 0.3; stroke-width: 0.8; stroke-linecap: square"/>
     </g>
     <g id="line2d_10">
      <g>
       <use xlink:href="#m6073edcc6a" x="287.702061" y="260.44" style="stroke: #000000; stroke-width: 0.8"/>
      </g>
     </g>
     <g id="text_5">
      <!-- 400 -->
      <g transform="translate(278.158311 275.038438) scale(0.1 -0.1)">
       <defs>
        <path id="DejaVuSans-34" d="M 2419 4116 
L 825 1625 
L 2419 1625 
L 2419 4116 
z
M 2253 4666 
L 3047 4666 
L 3047 1625 
L 3713 1625 
L 3713 1100 
L 3047 1100 
L 3047 0 
L 2419 0 
L 2419 1100 
L 313 1100 
L 313 1709 
L 2253 4666 
z
" transform="scale(0.015625)"/>
       </defs>
       <use xlink:href="#DejaVuSans-34"/>
       <use xlink:href="#DejaVuSans-30" transform="translate(63.623047 0)"/>
       <use xlink:href="#DejaVuSans-30" transform="translate(127.246094 0)"/>
      </g>
     </g>
    </g>
    <g id="xtick_6">
     <g id="line2d_11">
      <path d="M 347.697576 260.44 
L 347.697576 71.808 
" clip-path="url(#p00ece7f0dc)" style="fill: none; stroke: #b0b0b0; stroke-opacity: 0.3; stroke-width: 0.8; stroke-linecap: square"/>
     </g>
     <g id="line2d_12">
      <g>
       <use xlink:href="#m6073edcc6a" x="347.697576" y="260.44" style="stroke: #000000; stroke-width: 0.8"/>
      </g>
     </g>
     <g id="text_6">
      <!-- 500 -->
      <g transform="translate(338.153826 275.038438) scale(0.1 -0.1)">
       <defs>
        <path id="DejaVuSans-35" d="M 691 4666 
L 3169 4666 
L 3169 4134 
L 1269 4134 
L 1269 2991 
Q 1406 3038 1543 3061 
Q 1681 3084 1819 3084 
Q 2600 3084 3056 2656 
Q 3513 2228 3513 1497 
Q 3513 744 3044 326 
Q 2575 -91 1722 -91 
Q 1428 -91 1123 -41 
Q 819 9 494 109 
L 494 744 
Q 775 591 1075 516 
Q 1375 441 1709 441 
Q 2250 441 2565 725 
Q 2881 1009 2881 1497 
Q 2881 1984 2565 2268 
Q 2250 2553 1709 2553 
Q 1456 2553 1204 2497 
Q 953 2441 691 2322 
L 691 4666 
z
" transform="scale(0.015625)"/>
       </defs>
       <use xlink:href="#DejaVuSans-35"/>
       <use xlink:href="#DejaVuSans-30" transform="translate(63.623047 0)"/>
       <use xlink:href="#DejaVuSans-30" transform="translate(127.246094 0)"/>
      </g>
     </g>
    </g>
    <g id="text_7">
     <!-- Injected read noise VN / mV -->
     <g transform="translate(128.001757 288.716563) scale(0.1 -0.1)">
      <defs>
       <path id="DejaVuSans-49" d="M 628 4666 
L 1259 4666 
L 1259 0 
L 628 0 
L 628 4666 
z
" transform="scale(0.015625)"/>
       <path id="DejaVuSans-6e" d="M 3513 2113 
L 3513 0 
L 2938 0 
L 2938 2094 
Q 2938 2591 2744 2837 
Q 2550 3084 2163 3084 
Q 1697 3084 1428 2787 
Q 1159 2491 1159 1978 
L 1159 0 
L 581 0 
L 581 3500 
L 1159 3500 
L 1159 2956 
Q 1366 3272 1645 3428 
Q 1925 3584 2291 3584 
Q 2894 3584 3203 3211 
Q 3513 2838 3513 2113 
z
" transform="scale(0.015625)"/>
       <path id="DejaVuSans-6a" d="M 603 3500 
L 1178 3500 
L 1178 -63 
Q 1178 -731 923 -1031 
Q 669 -1331 103 -1331 
L -116 -1331 
L -116 -844 
L 38 -844 
Q 366 -844 484 -692 
Q 603 -541 603 -63 
L 603 3500 
z
M 603 4863 
L 1178 4863 
L 1178 4134 
L 603 4134 
L 603 4863 
z
" transform="scale(0.015625)"/>
       <path id="DejaVuSans-65" d="M 3597 1894 
L 3597 1613 
L 953 1613 
Q 991 1019 1311 708 
Q 1631 397 2203 397 
Q 2534 397 2845 478 
Q 3156 559 3463 722 
L 3463 178 
Q 3153 47 2828 -22 
Q 2503 -91 2169 -91 
Q 1331 -91 842 396 
Q 353 884 353 1716 
Q 353 2575 817 3079 
Q 1281 3584 2069 3584 
Q 2775 3584 3186 3129 
Q 3597 2675 3597 1894 
z
M 3022 2063 
Q 3016 2534 2758 2815 
Q 2500 3097 2075 3097 
Q 1594 3097 1305 2825 
Q 1016 2553 972 2059 
L 3022 2063 
z
" transform="scale(0.015625)"/>
       <path id="DejaVuSans-63" d="M 3122 3366 
L 3122 2828 
Q 2878 2963 2633 3030 
Q 2388 3097 2138 3097 
Q 1578 3097 1268 2742 
Q 959 2388 959 1747 
Q 959 1106 1268 751 
Q 1578 397 2138 397 
Q 2388 397 2633 464 
Q 2878 531 3122 666 
L 3122 134 
Q 2881 22 2623 -34 
Q 2366 -91 2075 -91 
Q 1284 -91 818 406 
Q 353 903 353 1747 
Q 353 2603 823 3093 
Q 1294 3584 2113 3584 
Q 2378 3584 2631 3529 
Q 2884 3475 3122 3366 
z
" transform="scale(0.015625)"/>
       <path id="DejaVuSans-74" d="M 1172 4494 
L 1172 3500 
L 2356 3500 
L 2356 3053 
L 1172 3053 
L 1172 1153 
Q 1172 725 1289 603 
Q 1406 481 1766 481 
L 2356 481 
L 2356 0 
L 1766 0 
Q 1100 0 847 248 
Q 594 497 594 1153 
L 594 3053 
L 172 3053 
L 172 3500 
L 594 3500 
L 594 4494 
L 1172 4494 
z
" transform="scale(0.015625)"/>
       <path id="DejaVuSans-64" d="M 2906 2969 
L 2906 4863 
L 3481 4863 
L 3481 0 
L 2906 0 
L 2906 525 
Q 2725 213 2448 61 
Q 2172 -91 1784 -91 
Q 1150 -91 751 415 
Q 353 922 353 1747 
Q 353 2572 751 3078 
Q 1150 3584 1784 3584 
Q 2172 3584 2448 3432 
Q 2725 3281 2906 2969 
z
M 947 1747 
Q 947 1113 1208 752 
Q 1469 391 1925 391 
Q 2381 391 2643 752 
Q 2906 1113 2906 1747 
Q 2906 2381 2643 2742 
Q 2381 3103 1925 3103 
Q 1469 3103 1208 2742 
Q 947 2381 947 1747 
z
" transform="scale(0.015625)"/>
       <path id="DejaVuSans-20" transform="scale(0.015625)"/>
       <path id="DejaVuSans-72" d="M 2631 2963 
Q 2534 3019 2420 3045 
Q 2306 3072 2169 3072 
Q 1681 3072 1420 2755 
Q 1159 2438 1159 1844 
L 1159 0 
L 581 0 
L 581 3500 
L 1159 3500 
L 1159 2956 
Q 1341 3275 1631 3429 
Q 1922 3584 2338 3584 
Q 2397 3584 2469 3576 
Q 2541 3569 2628 3553 
L 2631 2963 
z
" transform="scale(0.015625)"/>
       <path id="DejaVuSans-61" d="M 2194 1759 
Q 1497 1759 1228 1600 
Q 959 1441 959 1056 
Q 959 750 1161 570 
Q 1363 391 1709 391 
Q 2188 391 2477 730 
Q 2766 1069 2766 1631 
L 2766 1759 
L 2194 1759 
z
M 3341 1997 
L 3341 0 
L 2766 0 
L 2766 531 
Q 2569 213 2275 61 
Q 1981 -91 1556 -91 
Q 1019 -91 701 211 
Q 384 513 384 1019 
Q 384 1609 779 1909 
Q 1175 2209 1959 2209 
L 2766 2209 
L 2766 2266 
Q 2766 2663 2505 2880 
Q 2244 3097 1772 3097 
Q 1472 3097 1187 3025 
Q 903 2953 641 2809 
L 641 3341 
Q 956 3463 1253 3523 
Q 1550 3584 1831 3584 
Q 2591 3584 2966 3190 
Q 3341 2797 3341 1997 
z
" transform="scale(0.015625)"/>
       <path id="DejaVuSans-6f" d="M 1959 3097 
Q 1497 3097 1228 2736 
Q 959 2375 959 1747 
Q 959 1119 1226 758 
Q 1494 397 1959 397 
Q 2419 397 2687 759 
Q 2956 1122 2956 1747 
Q 2956 2369 2687 2733 
Q 2419 3097 1959 3097 
z
M 1959 3584 
Q 2709 3584 3137 3096 
Q 3566 2609 3566 1747 
Q 3566 888 3137 398 
Q 2709 -91 1959 -91 
Q 1206 -91 779 398 
Q 353 888 353 1747 
Q 353 2609 779 3096 
Q 1206 3584 1959 3584 
z
" transform="scale(0.015625)"/>
       <path id="DejaVuSans-69" d="M 603 3500 
L 1178 3500 
L 1178 0 
L 603 0 
L 603 3500 
z
M 603 4863 
L 1178 4863 
L 1178 4134 
L 603 4134 
L 603 4863 
z
" transform="scale(0.015625)"/>
       <path id="DejaVuSans-73" d="M 2834 3397 
L 2834 2853 
Q 2591 2978 2328 3040 
Q 2066 3103 1784 3103 
Q 1356 3103 1142 2972 
Q 928 2841 928 2578 
Q 928 2378 1081 2264 
Q 1234 2150 1697 2047 
L 1894 2003 
Q 2506 1872 2764 1633 
Q 3022 1394 3022 966 
Q 3022 478 2636 193 
Q 2250 -91 1575 -91 
Q 1294 -91 989 -36 
Q 684 19 347 128 
L 347 722 
Q 666 556 975 473 
Q 1284 391 1588 391 
Q 1994 391 2212 530 
Q 2431 669 2431 922 
Q 2431 1156 2273 1281 
Q 2116 1406 1581 1522 
L 1381 1569 
Q 847 1681 609 1914 
Q 372 2147 372 2553 
Q 372 3047 722 3315 
Q 1072 3584 1716 3584 
Q 2034 3584 2315 3537 
Q 2597 3491 2834 3397 
z
" transform="scale(0.015625)"/>
       <path id="DejaVuSans-56" d="M 1831 0 
L 50 4666 
L 709 4666 
L 2188 738 
L 3669 4666 
L 4325 4666 
L 2547 0 
L 1831 0 
z
" transform="scale(0.015625)"/>
       <path id="DejaVuSans-4e" d="M 628 4666 
L 1478 4666 
L 3547 763 
L 3547 4666 
L 4159 4666 
L 4159 0 
L 3309 0 
L 1241 3903 
L 1241 0 
L 628 0 
L 628 4666 
z
" transform="scale(0.015625)"/>
       <path id="DejaVuSans-2f" d="M 1625 4666 
L 2156 4666 
L 531 -594 
L 0 -594 
L 1625 4666 
z
" transform="scale(0.015625)"/>
       <path id="DejaVuSans-6d" d="M 3328 2828 
Q 3544 3216 3844 3400 
Q 4144 3584 4550 3584 
Q 5097 3584 5394 3201 
Q 5691 2819 5691 2113 
L 5691 0 
L 5113 0 
L 5113 2094 
Q 5113 2597 4934 2840 
Q 4756 3084 4391 3084 
Q 3944 3084 3684 2787 
Q 3425 2491 3425 1978 
L 3425 0 
L 2847 0 
L 2847 2094 
Q 2847 2600 2669 2842 
Q 2491 3084 2119 3084 
Q 1678 3084 1418 2786 
Q 1159 2488 1159 1978 
L 1159 0 
L 581 0 
L 581 3500 
L 1159 3500 
L 1159 2956 
Q 1356 3278 1631 3431 
Q 1906 3584 2284 3584 
Q 2666 3584 2933 3390 
Q 3200 3197 3328 2828 
z
" transform="scale(0.015625)"/>
      </defs>
      <use xlink:href="#DejaVuSans-49"/>
      <use xlink:href="#DejaVuSans-6e" transform="translate(29.492188 0)"/>
      <use xlink:href="#DejaVuSans-6a" transform="translate(92.871094 0)"/>
      <use xlink:href="#DejaVuSans-65" transform="translate(120.654297 0)"/>
      <use xlink:href="#DejaVuSans-63" transform="translate(182.177734 0)"/>
      <use xlink:href="#DejaVuSans-74" transform="translate(237.158203 0)"/>
      <use xlink:href="#DejaVuSans-65" transform="translate(276.367188 0)"/>
      <use xlink:href="#DejaVuSans-64" transform="translate(337.890625 0)"/>
      <use xlink:href="#DejaVuSans-20" transform="translate(401.367188 0)"/>
      <use xlink:href="#DejaVuSans-72" transform="translate(433.154297 0)"/>
      <use xlink:href="#DejaVuSans-65" transform="translate(472.017578 0)"/>
      <use xlink:href="#DejaVuSans-61" transform="translate(533.541016 0)"/>
      <use xlink:href="#DejaVuSans-64" transform="translate(594.820312 0)"/>
      <use xlink:href="#DejaVuSans-20" transform="translate(658.296875 0)"/>
      <use xlink:href="#DejaVuSans-6e" transform="translate(690.083984 0)"/>
      <use xlink:href="#DejaVuSans-6f" transform="translate(753.462891 0)"/>
      <use xlink:href="#DejaVuSans-69" transform="translate(814.644531 0)"/>
      <use xlink:href="#DejaVuSans-73" transform="translate(842.427734 0)"/>
      <use xlink:href="#DejaVuSans-65" transform="translate(894.527344 0)"/>
      <use xlink:href="#DejaVuSans-20" transform="translate(956.050781 0)"/>
      <use xlink:href="#DejaVuSans-56" transform="translate(987.837891 0)"/>
      <use xlink:href="#DejaVuSans-4e" transform="translate(1056.246094 0)"/>
      <use xlink:href="#DejaVuSans-20" transform="translate(1131.050781 0)"/>
      <use xlink:href="#DejaVuSans-2f" transform="translate(1162.837891 0)"/>
      <use xlink:href="#DejaVuSans-20" transform="translate(1196.529297 0)"/>
      <use xlink:href="#DejaVuSans-6d" transform="translate(1228.316406 0)"/>
      <use xlink:href="#DejaVuSans-56" transform="translate(1325.728516 0)"/>
     </g>
    </g>
   </g>
   <g id="matplotlib.axis_2">
    <g id="ytick_1">
     <g id="line2d_13">
      <path d="M 47.72 252.994 
L 347.697576 252.994 
" clip-path="url(#p00ece7f0dc)" style="fill: none; stroke: #b0b0b0; stroke-opacity: 0.3; stroke-width: 0.8; stroke-linecap: square"/>
     </g>
     <g id="line2d_14">
      <defs>
       <path id="m11a3996652" d="M 0 0 
L -3.5 0 
" style="stroke: #000000; stroke-width: 0.8"/>
      </defs>
      <g>
       <use xlink:href="#m11a3996652" x="47.72" y="252.994" style="stroke: #000000; stroke-width: 0.8"/>
      </g>
     </g>
     <g id="text_8">
      <!-- 0.0 -->
      <g transform="translate(24.816875 256.793219) scale(0.1 -0.1)">
       <defs>
        <path id="DejaVuSans-2e" d="M 684 794 
L 1344 794 
L 1344 0 
L 684 0 
L 684 794 
z
" transform="scale(0.015625)"/>
       </defs>
       <use xlink:href="#DejaVuSans-30"/>
       <use xlink:href="#DejaVuSans-2e" transform="translate(63.623047 0)"/>
       <use xlink:href="#DejaVuSans-30" transform="translate(95.410156 0)"/>
      </g>
     </g>
    </g>
    <g id="ytick_2">
     <g id="line2d_15">
      <path d="M 47.72 228.174 
L 347.697576 228.174 
" clip-path="url(#p00ece7f0dc)" style="fill: none; stroke: #b0b0b0; stroke-opacity: 0.3; stroke-width: 0.8; stroke-linecap: square"/>
     </g>
     <g id="line2d_16">
      <g>
       <use xlink:href="#m11a3996652" x="47.72" y="228.174" style="stroke: #000000; stroke-width: 0.8"/>
      </g>
     </g>
     <g id="text_9">
      <!-- 0.1 -->
      <g transform="translate(24.816875 231.973219) scale(0.1 -0.1)">
       <use xlink:href="#DejaVuSans-30"/>
       <use xlink:href="#DejaVuSans-2e" transform="translate(63.623047 0)"/>
       <use xlink:href="#DejaVuSans-31" transform="translate(95.410156 0)"/>
      </g>
     </g>
    </g>
    <g id="ytick_3">
     <g id="line2d_17">
      <path d="M 47.72 203.354 
L 347.697576 203.354 
" clip-path="url(#p00ece7f0dc)" style="fill: none; stroke: #b0b0b0; stroke-opacity: 0.3; stroke-width: 0.8; stroke-linecap: square"/>
     </g>
     <g id="line2d_18">
      <g>
       <use xlink:href="#m11a3996652" x="47.72" y="203.354" style="stroke: #000000; stroke-width: 0.8"/>
      </g>
     </g>
     <g id="text_10">
      <!-- 0.2 -->
      <g transform="translate(24.816875 207.153219) scale(0.1 -0.1)">
       <use xlink:href="#DejaVuSans-30"/>
       <use xlink:href="#DejaVuSans-2e" transform="translate(63.623047 0)"/>
       <use xlink:href="#DejaVuSans-32" transform="translate(95.410156 0)"/>
      </g>
     </g>
    </g>
    <g id="ytick_4">
     <g id="line2d_19">
      <path d="M 47.72 178.534 
L 347.697576 178.534 
" clip-path="url(#p00ece7f0dc)" style="fill: none; stroke: #b0b0b0; stroke-opacity: 0.3; stroke-width: 0.8; stroke-linecap: square"/>
     </g>
     <g id="line2d_20">
      <g>
       <use xlink:href="#m11a3996652" x="47.72" y="178.534" style="stroke: #000000; stroke-width: 0.8"/>
      </g>
     </g>
     <g id="text_11">
      <!-- 0.3 -->
      <g transform="translate(24.816875 182.333219) scale(0.1 -0.1)">
       <use xlink:href="#DejaVuSans-30"/>
       <use xlink:href="#DejaVuSans-2e" transform="translate(63.623047 0)"/>
       <use xlink:href="#DejaVuSans-33" transform="translate(95.410156 0)"/>
      </g>
     </g>
    </g>
    <g id="ytick_5">
     <g id="line2d_21">
      <path d="M 47.72 153.714 
L 347.697576 153.714 
" clip-path="url(#p00ece7f0dc)" style="fill: none; stroke: #b0b0b0; stroke-opacity: 0.3; stroke-width: 0.8; stroke-linecap: square"/>
     </g>
     <g id="line2d_22">
      <g>
       <use xlink:href="#m11a3996652" x="47.72" y="153.714" style="stroke: #000000; stroke-width: 0.8"/>
      </g>
     </g>
     <g id="text_12">
      <!-- 0.4 -->
      <g transform="translate(24.816875 157.513219) scale(0.1 -0.1)">
       <use xlink:href="#DejaVuSans-30"/>
       <use xlink:href="#DejaVuSans-2e" transform="translate(63.623047 0)"/>
       <use xlink:href="#DejaVuSans-34" transform="translate(95.410156 0)"/>
      </g>
     </g>
    </g>
    <g id="ytick_6">
     <g id="line2d_23">
      <path d="M 47.72 128.894 
L 347.697576 128.894 
" clip-path="url(#p00ece7f0dc)" style="fill: none; stroke: #b0b0b0; stroke-opacity: 0.3; stroke-width: 0.8; stroke-linecap: square"/>
     </g>
     <g id="line2d_24">
      <g>
       <use xlink:href="#m11a3996652" x="47.72" y="128.894" style="stroke: #000000; stroke-width: 0.8"/>
      </g>
     </g>
     <g id="text_13">
      <!-- 0.5 -->
      <g transform="translate(24.816875 132.693219) scale(0.1 -0.1)">
       <use xlink:href="#DejaVuSans-30"/>
       <use xlink:href="#DejaVuSans-2e" transform="translate(63.623047 0)"/>
       <use xlink:href="#DejaVuSans-35" transform="translate(95.410156 0)"/>
      </g>
     </g>
    </g>
    <g id="ytick_7">
     <g id="line2d_25">
      <path d="M 47.72 104.074 
L 347.697576 104.074 
" clip-path="url(#p00ece7f0dc)" style="fill: none; stroke: #b0b0b0; stroke-opacity: 0.3; stroke-width: 0.8; stroke-linecap: square"/>
     </g>
     <g id="line2d_26">
      <g>
       <use xlink:href="#m11a3996652" x="47.72" y="104.074" style="stroke: #000000; stroke-width: 0.8"/>
      </g>
     </g>
     <g id="text_14">
      <!-- 0.6 -->
      <g transform="translate(24.816875 107.873219) scale(0.1 -0.1)">
       <defs>
        <path id="DejaVuSans-36" d="M 2113 2584 
Q 1688 2584 1439 2293 
Q 1191 2003 1191 1497 
Q 1191 994 1439 701 
Q 1688 409 2113 409 
Q 2538 409 2786 701 
Q 3034 994 3034 1497 
Q 3034 2003 2786 2293 
Q 2538 2584 2113 2584 
z
M 3366 4563 
L 3366 3988 
Q 3128 4100 2886 4159 
Q 2644 4219 2406 4219 
Q 1781 4219 1451 3797 
Q 1122 3375 1075 2522 
Q 1259 2794 1537 2939 
Q 1816 3084 2150 3084 
Q 2853 3084 3261 2657 
Q 3669 2231 3669 1497 
Q 3669 778 3244 343 
Q 2819 -91 2113 -91 
Q 1303 -91 875 529 
Q 447 1150 447 2328 
Q 447 3434 972 4092 
Q 1497 4750 2381 4750 
Q 2619 4750 2861 4703 
Q 3103 4656 3366 4563 
z
" transform="scale(0.015625)"/>
       </defs>
       <use xlink:href="#DejaVuSans-30"/>
       <use xlink:href="#DejaVuSans-2e" transform="translate(63.623047 0)"/>
       <use xlink:href="#DejaVuSans-36" transform="translate(95.410156 0)"/>
      </g>
     </g>
    </g>
    <g id="ytick_8">
     <g id="line2d_27">
      <path d="M 47.72 79.254 
L 347.697576 79.254 
" clip-path="url(#p00ece7f0dc)" style="fill: none; stroke: #b0b0b0; stroke-opacity: 0.3; stroke-width: 0.8; stroke-linecap: square"/>
     </g>
     <g id="line2d_28">
      <g>
       <use xlink:href="#m11a3996652" x="47.72" y="79.254" style="stroke: #000000; stroke-width: 0.8"/>
      </g>
     </g>
     <g id="text_15">
      <!-- 0.7 -->
      <g transform="translate(24.816875 83.053219) scale(0.1 -0.1)">
       <defs>
        <path id="DejaVuSans-37" d="M 525 4666 
L 3525 4666 
L 3525 4397 
L 1831 0 
L 1172 0 
L 2766 4134 
L 525 4134 
L 525 4666 
z
" transform="scale(0.015625)"/>
       </defs>
       <use xlink:href="#DejaVuSans-30"/>
       <use xlink:href="#DejaVuSans-2e" transform="translate(63.623047 0)"/>
       <use xlink:href="#DejaVuSans-37" transform="translate(95.410156 0)"/>
      </g>
     </g>
    </g>
    <g id="text_16">
     <!-- Storage-node voltage / V -->
     <g transform="translate(18.737187 228.525563) rotate(-90) scale(0.1 -0.1)">
      <defs>
       <path id="DejaVuSans-53" d="M 3425 4513 
L 3425 3897 
Q 3066 4069 2747 4153 
Q 2428 4238 2131 4238 
Q 1616 4238 1336 4038 
Q 1056 3838 1056 3469 
Q 1056 3159 1242 3001 
Q 1428 2844 1947 2747 
L 2328 2669 
Q 3034 2534 3370 2195 
Q 3706 1856 3706 1288 
Q 3706 609 3251 259 
Q 2797 -91 1919 -91 
Q 1588 -91 1214 -16 
Q 841 59 441 206 
L 441 856 
Q 825 641 1194 531 
Q 1563 422 1919 422 
Q 2459 422 2753 634 
Q 3047 847 3047 1241 
Q 3047 1584 2836 1778 
Q 2625 1972 2144 2069 
L 1759 2144 
Q 1053 2284 737 2584 
Q 422 2884 422 3419 
Q 422 4038 858 4394 
Q 1294 4750 2059 4750 
Q 2388 4750 2728 4690 
Q 3069 4631 3425 4513 
z
" transform="scale(0.015625)"/>
       <path id="DejaVuSans-67" d="M 2906 1791 
Q 2906 2416 2648 2759 
Q 2391 3103 1925 3103 
Q 1463 3103 1205 2759 
Q 947 2416 947 1791 
Q 947 1169 1205 825 
Q 1463 481 1925 481 
Q 2391 481 2648 825 
Q 2906 1169 2906 1791 
z
M 3481 434 
Q 3481 -459 3084 -895 
Q 2688 -1331 1869 -1331 
Q 1566 -1331 1297 -1286 
Q 1028 -1241 775 -1147 
L 775 -588 
Q 1028 -725 1275 -790 
Q 1522 -856 1778 -856 
Q 2344 -856 2625 -561 
Q 2906 -266 2906 331 
L 2906 616 
Q 2728 306 2450 153 
Q 2172 0 1784 0 
Q 1141 0 747 490 
Q 353 981 353 1791 
Q 353 2603 747 3093 
Q 1141 3584 1784 3584 
Q 2172 3584 2450 3431 
Q 2728 3278 2906 2969 
L 2906 3500 
L 3481 3500 
L 3481 434 
z
" transform="scale(0.015625)"/>
       <path id="DejaVuSans-2d" d="M 313 2009 
L 1997 2009 
L 1997 1497 
L 313 1497 
L 313 2009 
z
" transform="scale(0.015625)"/>
       <path id="DejaVuSans-76" d="M 191 3500 
L 800 3500 
L 1894 563 
L 2988 3500 
L 3597 3500 
L 2284 0 
L 1503 0 
L 191 3500 
z
" transform="scale(0.015625)"/>
       <path id="DejaVuSans-6c" d="M 603 4863 
L 1178 4863 
L 1178 0 
L 603 0 
L 603 4863 
z
" transform="scale(0.015625)"/>
      </defs>
      <use xlink:href="#DejaVuSans-53"/>
      <use xlink:href="#DejaVuSans-74" transform="translate(63.476562 0)"/>
      <use xlink:href="#DejaVuSans-6f" transform="translate(102.685547 0)"/>
      <use xlink:href="#DejaVuSans-72" transform="translate(163.867188 0)"/>
      <use xlink:href="#DejaVuSans-61" transform="translate(204.980469 0)"/>
      <use xlink:href="#DejaVuSans-67" transform="translate(266.259766 0)"/>
      <use xlink:href="#DejaVuSans-65" transform="translate(329.736328 0)"/>
      <use xlink:href="#DejaVuSans-2d" transform="translate(391.259766 0)"/>
      <use xlink:href="#DejaVuSans-6e" transform="translate(427.34375 0)"/>
      <use xlink:href="#DejaVuSans-6f" transform="translate(490.722656 0)"/>
      <use xlink:href="#DejaVuSans-64" transform="translate(551.904297 0)"/>
      <use xlink:href="#DejaVuSans-65" transform="translate(615.380859 0)"/>
      <use xlink:href="#DejaVuSans-20" transform="translate(676.904297 0)"/>
      <use xlink:href="#DejaVuSans-76" transform="translate(708.691406 0)"/>
      <use xlink:href="#DejaVuSans-6f" transform="translate(767.871094 0)"/>
      <use xlink:href="#DejaVuSans-6c" transform="translate(829.052734 0)"/>
      <use xlink:href="#DejaVuSans-74" transform="translate(856.835938 0)"/>
      <use xlink:href="#DejaVuSans-61" transform="translate(896.044922 0)"/>
      <use xlink:href="#DejaVuSans-67" transform="translate(957.324219 0)"/>
      <use xlink:href="#DejaVuSans-65" transform="translate(1020.800781 0)"/>
      <use xlink:href="#DejaVuSans-20" transform="translate(1082.324219 0)"/>
      <use xlink:href="#DejaVuSans-2f" transform="translate(1114.111328 0)"/>
      <use xlink:href="#DejaVuSans-20" transform="translate(1147.802734 0)"/>
      <use xlink:href="#DejaVuSans-56" transform="translate(1179.589844 0)"/>
     </g>
    </g>
   </g>
   <g id="line2d_29">
    <path d="M 47.72 79.40292 
L 56.119372 79.5022 
L 60.919013 79.60148 
L 65.118699 79.70076 
L 80.717533 80.44536 
L 89.116905 81.2396 
L 93.916547 81.93456 
L 97.516278 82.6047 
L 102.315919 83.87052 
L 104.715739 84.73922 
L 106.515605 85.55828 
L 108.31547 86.62554 
L 109.515381 87.5687 
L 110.715291 88.88416 
L 111.315246 89.8025 
L 111.915201 91.34134 
L 112.515156 218.14672 
L 133.513587 218.91614 
L 137.113318 219.01542 
L 149.112421 219.41254 
L 152.712152 219.51182 
L 161.111524 219.76002 
L 164.711255 219.8593 
L 171.910716 220.05786 
L 176.110402 220.15714 
L 182.709909 220.33088 
L 187.50955 220.43016 
L 194.109057 220.6039 
L 198.908698 220.70318 
L 204.308295 220.82728 
L 209.107936 220.92656 
L 214.507532 221.05066 
L 219.907128 221.14994 
L 224.70677 221.24922 
L 230.106366 221.3485 
L 234.906007 221.44778 
L 240.905559 221.54706 
L 245.7052 221.64634 
L 252.304707 221.74562 
L 256.504393 221.82008 
L 263.103899 221.91936 
L 267.903541 222.01864 
L 275.702958 222.11792 
L 279.902644 222.19238 
L 287.102105 222.29166 
L 291.301792 222.36612 
L 299.701164 222.4654 
L 303.90085 222.53986 
L 312.300222 222.63914 
L 316.499908 222.7136 
L 326.09919 222.81288 
L 330.298876 222.88734 
L 340.498114 222.98662 
L 344.097845 223.03626 
L 347.697576 223.0859 
L 347.697576 223.0859 
" clip-path="url(#p00ece7f0dc)" style="fill: none; stroke: #1f77b4; stroke-width: 1.5; stroke-linecap: square"/>
   </g>
   <g id="line2d_30">
    <path d="M 47.72 214.7712 
L 76.517847 212.2892 
L 92.116681 210.25396 
L 98.116233 209.16188 
L 102.915874 208.0698 
L 106.515605 206.9529 
L 108.31547 206.23312 
L 110.115336 205.26514 
L 111.315246 204.27234 
L 111.915201 203.40364 
L 112.515156 79.254 
L 347.697576 79.254 
L 347.697576 79.254 
" clip-path="url(#p00ece7f0dc)" style="fill: none; stroke-dasharray: 5.55,2.4; stroke-dashoffset: 0; stroke: #ff7f0e; stroke-width: 1.5"/>
   </g>
   <g id="line2d_31">
    <path d="M 47.72 214.7712 
L 76.517847 212.2892 
L 92.116681 210.25396 
L 98.116233 209.16188 
L 102.915874 208.0698 
L 106.515605 206.9529 
L 108.31547 206.23312 
L 110.115336 205.26514 
L 111.315246 204.27234 
L 111.915201 203.40364 
L 112.515156 79.254 
L 347.697576 79.254 
L 347.697576 79.254 
" clip-path="url(#p00ece7f0dc)" style="fill: none; stroke: #2ca02c; stroke-width: 1.5; stroke-linecap: square"/>
   </g>
   <g id="line2d_32">
    <path d="M 47.72 79.40292 
L 56.119372 79.5022 
L 60.919013 79.60148 
L 65.118699 79.70076 
L 80.717533 80.44536 
L 89.116905 81.2396 
L 93.916547 81.93456 
L 97.516278 82.6047 
L 102.315919 83.87052 
L 104.715739 84.73922 
L 106.515605 85.55828 
L 108.31547 86.62554 
L 109.515381 87.5687 
L 110.715291 88.88416 
L 111.315246 89.8025 
L 111.915201 91.34134 
L 112.515156 218.14672 
L 133.513587 218.91614 
L 137.113318 219.01542 
L 149.112421 219.41254 
L 152.712152 219.51182 
L 161.111524 219.76002 
L 164.711255 219.8593 
L 171.910716 220.05786 
L 176.110402 220.15714 
L 182.709909 220.33088 
L 187.50955 220.43016 
L 194.109057 220.6039 
L 198.908698 220.70318 
L 204.308295 220.82728 
L 209.107936 220.92656 
L 214.507532 221.05066 
L 219.907128 221.14994 
L 224.70677 221.24922 
L 230.106366 221.3485 
L 234.906007 221.44778 
L 240.905559 221.54706 
L 245.7052 221.64634 
L 252.304707 221.74562 
L 256.504393 221.82008 
L 263.103899 221.91936 
L 267.903541 222.01864 
L 275.702958 222.11792 
L 279.902644 222.19238 
L 287.102105 222.29166 
L 291.301792 222.36612 
L 299.701164 222.4654 
L 303.90085 222.53986 
L 312.300222 222.63914 
L 316.499908 222.7136 
L 326.09919 222.81288 
L 330.298876 222.88734 
L 340.498114 222.98662 
L 344.097845 223.03626 
L 347.697576 223.0859 
L 347.697576 223.0859 
" clip-path="url(#p00ece7f0dc)" style="fill: none; stroke-dasharray: 5.55,2.4; stroke-dashoffset: 0; stroke: #d62728; stroke-width: 1.5"/>
   </g>
   <g id="line2d_33">
    <path d="M 112.515156 260.44 
L 112.515156 71.808 
" clip-path="url(#p00ece7f0dc)" style="fill: none; stroke-dasharray: 7.68,1.92,1.2,1.92; stroke-dashoffset: 0; stroke: #1a1a1a; stroke-width: 1.2"/>
   </g>
   <g id="patch_3">
    <path d="M 47.72 260.44 
L 47.72 71.808 
" style="fill: none; stroke: #000000; stroke-width: 0.8; stroke-linejoin: miter; stroke-linecap: square"/>
   </g>
   <g id="patch_4">
    <path d="M 347.697576 260.44 
L 347.697576 71.808 
" style="fill: none; stroke: #000000; stroke-width: 0.8; stroke-linejoin: miter; stroke-linecap: square"/>
   </g>
   <g id="patch_5">
    <path d="M 47.72 260.44 
L 347.697576 260.44 
" style="fill: none; stroke: #000000; stroke-width: 0.8; stroke-linejoin: miter; stroke-linecap: square"/>
   </g>
   <g id="patch_6">
    <path d="M 47.72 71.808 
L 347.697576 71.808 
" style="fill: none; stroke: #000000; stroke-width: 0.8; stroke-linejoin: miter; stroke-linecap: square"/>
   </g>
   <g id="text_17">
    <!-- Full sweep -->
    <g transform="translate(166.319413 65.808) scale(0.12 -0.12)">
     <defs>
      <path id="DejaVuSans-46" d="M 628 4666 
L 3309 4666 
L 3309 4134 
L 1259 4134 
L 1259 2759 
L 3109 2759 
L 3109 2228 
L 1259 2228 
L 1259 0 
L 628 0 
L 628 4666 
z
" transform="scale(0.015625)"/>
      <path id="DejaVuSans-75" d="M 544 1381 
L 544 3500 
L 1119 3500 
L 1119 1403 
Q 1119 906 1312 657 
Q 1506 409 1894 409 
Q 2359 409 2629 706 
Q 2900 1003 2900 1516 
L 2900 3500 
L 3475 3500 
L 3475 0 
L 2900 0 
L 2900 538 
Q 2691 219 2414 64 
Q 2138 -91 1772 -91 
Q 1169 -91 856 284 
Q 544 659 544 1381 
z
M 1991 3584 
L 1991 3584 
z
" transform="scale(0.015625)"/>
      <path id="DejaVuSans-77" d="M 269 3500 
L 844 3500 
L 1563 769 
L 2278 3500 
L 2956 3500 
L 3675 769 
L 4391 3500 
L 4966 3500 
L 4050 0 
L 3372 0 
L 2619 2869 
L 1863 0 
L 1184 0 
L 269 3500 
z
" transform="scale(0.015625)"/>
      <path id="DejaVuSans-70" d="M 1159 525 
L 1159 -1331 
L 581 -1331 
L 581 3500 
L 1159 3500 
L 1159 2969 
Q 1341 3281 1617 3432 
Q 1894 3584 2278 3584 
Q 2916 3584 3314 3078 
Q 3713 2572 3713 1747 
Q 3713 922 3314 415 
Q 2916 -91 2278 -91 
Q 1894 -91 1617 61 
Q 1341 213 1159 525 
z
M 3116 1747 
Q 3116 2381 2855 2742 
Q 2594 3103 2138 3103 
Q 1681 3103 1420 2742 
Q 1159 2381 1159 1747 
Q 1159 1113 1420 752 
Q 1681 391 2138 391 
Q 2594 391 2855 752 
Q 3116 1113 3116 1747 
z
" transform="scale(0.015625)"/>
     </defs>
     <use xlink:href="#DejaVuSans-46"/>
     <use xlink:href="#DejaVuSans-75" transform="translate(52.019531 0)"/>
     <use xlink:href="#DejaVuSans-6c" transform="translate(115.398438 0)"/>
     <use xlink:href="#DejaVuSans-6c" transform="translate(143.181641 0)"/>
     <use xlink:href="#DejaVuSans-20" transform="translate(170.964844 0)"/>
     <use xlink:href="#DejaVuSans-73" transform="translate(202.751953 0)"/>
     <use xlink:href="#DejaVuSans-77" transform="translate(254.851562 0)"/>
     <use xlink:href="#DejaVuSans-65" transform="translate(336.638672 0)"/>
     <use xlink:href="#DejaVuSans-65" transform="translate(398.162109 0)"/>
     <use xlink:href="#DejaVuSans-70" transform="translate(459.685547 0)"/>
    </g>
   </g>
   <g id="legend_1">
    <g id="patch_7">
     <path d="M 260.512013 257.04 
L 342.937576 257.04 
Q 344.297576 257.04 344.297576 255.68 
L 344.297576 216.4355 
Q 344.297576 215.0755 342.937576 215.0755 
L 260.512013 215.0755 
Q 259.152013 215.0755 259.152013 216.4355 
L 259.152013 255.68 
Q 259.152013 257.04 260.512013 257.04 
z
" style="fill: #ffffff; opacity: 0.8; stroke: #cccccc; stroke-linejoin: miter"/>
    </g>
    <g id="line2d_34">
     <path d="M 261.872013 220.582438 
L 268.672013 220.582438 
L 275.472013 220.582438 
" style="fill: none; stroke: #1f77b4; stroke-width: 1.5; stroke-linecap: square"/>
    </g>
    <g id="text_18">
     <!-- Q=1 initial: V(Q) -->
     <g transform="translate(280.912013 222.962438) scale(0.068 -0.068)">
      <defs>
       <path id="DejaVuSans-51" d="M 2522 4238 
Q 1834 4238 1429 3725 
Q 1025 3213 1025 2328 
Q 1025 1447 1429 934 
Q 1834 422 2522 422 
Q 3209 422 3611 934 
Q 4013 1447 4013 2328 
Q 4013 3213 3611 3725 
Q 3209 4238 2522 4238 
z
M 3406 84 
L 4238 -825 
L 3475 -825 
L 2784 -78 
Q 2681 -84 2626 -87 
Q 2572 -91 2522 -91 
Q 1538 -91 948 567 
Q 359 1225 359 2328 
Q 359 3434 948 4092 
Q 1538 4750 2522 4750 
Q 3503 4750 4090 4092 
Q 4678 3434 4678 2328 
Q 4678 1516 4351 937 
Q 4025 359 3406 84 
z
" transform="scale(0.015625)"/>
       <path id="DejaVuSans-3d" d="M 678 2906 
L 4684 2906 
L 4684 2381 
L 678 2381 
L 678 2906 
z
M 678 1631 
L 4684 1631 
L 4684 1100 
L 678 1100 
L 678 1631 
z
" transform="scale(0.015625)"/>
       <path id="DejaVuSans-3a" d="M 750 794 
L 1409 794 
L 1409 0 
L 750 0 
L 750 794 
z
M 750 3309 
L 1409 3309 
L 1409 2516 
L 750 2516 
L 750 3309 
z
" transform="scale(0.015625)"/>
       <path id="DejaVuSans-28" d="M 1984 4856 
Q 1566 4138 1362 3434 
Q 1159 2731 1159 2009 
Q 1159 1288 1364 580 
Q 1569 -128 1984 -844 
L 1484 -844 
Q 1016 -109 783 600 
Q 550 1309 550 2009 
Q 550 2706 781 3412 
Q 1013 4119 1484 4856 
L 1984 4856 
z
" transform="scale(0.015625)"/>
       <path id="DejaVuSans-29" d="M 513 4856 
L 1013 4856 
Q 1481 4119 1714 3412 
Q 1947 2706 1947 2009 
Q 1947 1309 1714 600 
Q 1481 -109 1013 -844 
L 513 -844 
Q 928 -128 1133 580 
Q 1338 1288 1338 2009 
Q 1338 2731 1133 3434 
Q 928 4138 513 4856 
z
" transform="scale(0.015625)"/>
      </defs>
      <use xlink:href="#DejaVuSans-51"/>
      <use xlink:href="#DejaVuSans-3d" transform="translate(78.710938 0)"/>
      <use xlink:href="#DejaVuSans-31" transform="translate(162.5 0)"/>
      <use xlink:href="#DejaVuSans-20" transform="translate(226.123047 0)"/>
      <use xlink:href="#DejaVuSans-69" transform="translate(257.910156 0)"/>
      <use xlink:href="#DejaVuSans-6e" transform="translate(285.693359 0)"/>
      <use xlink:href="#DejaVuSans-69" transform="translate(349.072266 0)"/>
      <use xlink:href="#DejaVuSans-74" transform="translate(376.855469 0)"/>
      <use xlink:href="#DejaVuSans-69" transform="translate(416.064453 0)"/>
      <use xlink:href="#DejaVuSans-61" transform="translate(443.847656 0)"/>
      <use xlink:href="#DejaVuSans-6c" transform="translate(505.126953 0)"/>
      <use xlink:href="#DejaVuSans-3a" transform="translate(532.910156 0)"/>
      <use xlink:href="#DejaVuSans-20" transform="translate(566.601562 0)"/>
      <use xlink:href="#DejaVuSans-56" transform="translate(598.388672 0)"/>
      <use xlink:href="#DejaVuSans-28" transform="translate(666.796875 0)"/>
      <use xlink:href="#DejaVuSans-51" transform="translate(705.810547 0)"/>
      <use xlink:href="#DejaVuSans-29" transform="translate(784.521484 0)"/>
     </g>
    </g>
    <g id="line2d_35">
     <path d="M 261.872013 230.563563 
L 268.672013 230.563563 
L 275.472013 230.563563 
" style="fill: none; stroke-dasharray: 5.55,2.4; stroke-dashoffset: 0; stroke: #ff7f0e; stroke-width: 1.5"/>
    </g>
    <g id="text_19">
     <!-- Q=1 initial: V(QB) -->
     <g transform="translate(280.912013 232.943563) scale(0.068 -0.068)">
      <defs>
       <path id="DejaVuSans-42" d="M 1259 2228 
L 1259 519 
L 2272 519 
Q 2781 519 3026 730 
Q 3272 941 3272 1375 
Q 3272 1813 3026 2020 
Q 2781 2228 2272 2228 
L 1259 2228 
z
M 1259 4147 
L 1259 2741 
L 2194 2741 
Q 2656 2741 2882 2914 
Q 3109 3088 3109 3444 
Q 3109 3797 2882 3972 
Q 2656 4147 2194 4147 
L 1259 4147 
z
M 628 4666 
L 2241 4666 
Q 2963 4666 3353 4366 
Q 3744 4066 3744 3513 
Q 3744 3084 3544 2831 
Q 3344 2578 2956 2516 
Q 3422 2416 3680 2098 
Q 3938 1781 3938 1306 
Q 3938 681 3513 340 
Q 3088 0 2303 0 
L 628 0 
L 628 4666 
z
" transform="scale(0.015625)"/>
      </defs>
      <use xlink:href="#DejaVuSans-51"/>
      <use xlink:href="#DejaVuSans-3d" transform="translate(78.710938 0)"/>
      <use xlink:href="#DejaVuSans-31" transform="translate(162.5 0)"/>
      <use xlink:href="#DejaVuSans-20" transform="translate(226.123047 0)"/>
      <use xlink:href="#DejaVuSans-69" transform="translate(257.910156 0)"/>
      <use xlink:href="#DejaVuSans-6e" transform="translate(285.693359 0)"/>
      <use xlink:href="#DejaVuSans-69" transform="translate(349.072266 0)"/>
      <use xlink:href="#DejaVuSans-74" transform="translate(376.855469 0)"/>
      <use xlink:href="#DejaVuSans-69" transform="translate(416.064453 0)"/>
      <use xlink:href="#DejaVuSans-61" transform="translate(443.847656 0)"/>
      <use xlink:href="#DejaVuSans-6c" transform="translate(505.126953 0)"/>
      <use xlink:href="#DejaVuSans-3a" transform="translate(532.910156 0)"/>
      <use xlink:href="#DejaVuSans-20" transform="translate(566.601562 0)"/>
      <use xlink:href="#DejaVuSans-56" transform="translate(598.388672 0)"/>
      <use xlink:href="#DejaVuSans-28" transform="translate(666.796875 0)"/>
      <use xlink:href="#DejaVuSans-51" transform="translate(705.810547 0)"/>
      <use xlink:href="#DejaVuSans-42" transform="translate(784.521484 0)"/>
      <use xlink:href="#DejaVuSans-29" transform="translate(853.125 0)"/>
     </g>
    </g>
    <g id="line2d_36">
     <path d="M 261.872013 240.544688 
L 268.672013 240.544688 
L 275.472013 240.544688 
" style="fill: none; stroke: #2ca02c; stroke-width: 1.5; stroke-linecap: square"/>
    </g>
    <g id="text_20">
     <!-- Q=0 initial: V(Q) -->
     <g transform="translate(280.912013 242.924688) scale(0.068 -0.068)">
      <use xlink:href="#DejaVuSans-51"/>
      <use xlink:href="#DejaVuSans-3d" transform="translate(78.710938 0)"/>
      <use xlink:href="#DejaVuSans-30" transform="translate(162.5 0)"/>
      <use xlink:href="#DejaVuSans-20" transform="translate(226.123047 0)"/>
      <use xlink:href="#DejaVuSans-69" transform="translate(257.910156 0)"/>
      <use xlink:href="#DejaVuSans-6e" transform="translate(285.693359 0)"/>
      <use xlink:href="#DejaVuSans-69" transform="translate(349.072266 0)"/>
      <use xlink:href="#DejaVuSans-74" transform="translate(376.855469 0)"/>
      <use xlink:href="#DejaVuSans-69" transform="translate(416.064453 0)"/>
      <use xlink:href="#DejaVuSans-61" transform="translate(443.847656 0)"/>
      <use xlink:href="#DejaVuSans-6c" transform="translate(505.126953 0)"/>
      <use xlink:href="#DejaVuSans-3a" transform="translate(532.910156 0)"/>
      <use xlink:href="#DejaVuSans-20" transform="translate(566.601562 0)"/>
      <use xlink:href="#DejaVuSans-56" transform="translate(598.388672 0)"/>
      <use xlink:href="#DejaVuSans-28" transform="translate(666.796875 0)"/>
      <use xlink:href="#DejaVuSans-51" transform="translate(705.810547 0)"/>
      <use xlink:href="#DejaVuSans-29" transform="translate(784.521484 0)"/>
     </g>
    </g>
    <g id="line2d_37">
     <path d="M 261.872013 250.525813 
L 268.672013 250.525813 
L 275.472013 250.525813 
" style="fill: none; stroke-dasharray: 5.55,2.4; stroke-dashoffset: 0; stroke: #d62728; stroke-width: 1.5"/>
    </g>
    <g id="text_21">
     <!-- Q=0 initial: V(QB) -->
     <g transform="translate(280.912013 252.905813) scale(0.068 -0.068)">
      <use xlink:href="#DejaVuSans-51"/>
      <use xlink:href="#DejaVuSans-3d" transform="translate(78.710938 0)"/>
      <use xlink:href="#DejaVuSans-30" transform="translate(162.5 0)"/>
      <use xlink:href="#DejaVuSans-20" transform="translate(226.123047 0)"/>
      <use xlink:href="#DejaVuSans-69" transform="translate(257.910156 0)"/>
      <use xlink:href="#DejaVuSans-6e" transform="translate(285.693359 0)"/>
      <use xlink:href="#DejaVuSans-69" transform="translate(349.072266 0)"/>
      <use xlink:href="#DejaVuSans-74" transform="translate(376.855469 0)"/>
      <use xlink:href="#DejaVuSans-69" transform="translate(416.064453 0)"/>
      <use xlink:href="#DejaVuSans-61" transform="translate(443.847656 0)"/>
      <use xlink:href="#DejaVuSans-6c" transform="translate(505.126953 0)"/>
      <use xlink:href="#DejaVuSans-3a" transform="translate(532.910156 0)"/>
      <use xlink:href="#DejaVuSans-20" transform="translate(566.601562 0)"/>
      <use xlink:href="#DejaVuSans-56" transform="translate(598.388672 0)"/>
      <use xlink:href="#DejaVuSans-28" transform="translate(666.796875 0)"/>
      <use xlink:href="#DejaVuSans-51" transform="translate(705.810547 0)"/>
      <use xlink:href="#DejaVuSans-42" transform="translate(784.521484 0)"/>
      <use xlink:href="#DejaVuSans-29" transform="translate(853.125 0)"/>
     </g>
    </g>
   </g>
  </g>
  <g id="axes_2">
   <g id="patch_8">
    <path d="M 390.787576 260.44 
L 765.759545 260.44 
L 765.759545 71.808 
L 390.787576 71.808 
z
" style="fill: #ffffff"/>
   </g>
   <g id="matplotlib.axis_3">
    <g id="xtick_7">
     <g id="line2d_38">
      <path d="M 390.787576 260.44 
L 390.787576 71.808 
" clip-path="url(#pfcdef5f858)" style="fill: none; stroke: #b0b0b0; stroke-opacity: 0.3; stroke-width: 0.8; stroke-linecap: square"/>
     </g>
     <g id="line2d_39">
      <g>
       <use xlink:href="#m6073edcc6a" x="390.787576" y="260.44" style="stroke: #000000; stroke-width: 0.8"/>
      </g>
     </g>
     <g id="text_22">
      <!-- 90 -->
      <g transform="translate(384.425076 275.038438) scale(0.1 -0.1)">
       <defs>
        <path id="DejaVuSans-39" d="M 703 97 
L 703 672 
Q 941 559 1184 500 
Q 1428 441 1663 441 
Q 2288 441 2617 861 
Q 2947 1281 2994 2138 
Q 2813 1869 2534 1725 
Q 2256 1581 1919 1581 
Q 1219 1581 811 2004 
Q 403 2428 403 3163 
Q 403 3881 828 4315 
Q 1253 4750 1959 4750 
Q 2769 4750 3195 4129 
Q 3622 3509 3622 2328 
Q 3622 1225 3098 567 
Q 2575 -91 1691 -91 
Q 1453 -91 1209 -44 
Q 966 3 703 97 
z
M 1959 2075 
Q 2384 2075 2632 2365 
Q 2881 2656 2881 3163 
Q 2881 3666 2632 3958 
Q 2384 4250 1959 4250 
Q 1534 4250 1286 3958 
Q 1038 3666 1038 3163 
Q 1038 2656 1286 2365 
Q 1534 2075 1959 2075 
z
" transform="scale(0.015625)"/>
       </defs>
       <use xlink:href="#DejaVuSans-39"/>
       <use xlink:href="#DejaVuSans-30" transform="translate(63.623047 0)"/>
      </g>
     </g>
    </g>
    <g id="xtick_8">
     <g id="line2d_40">
      <path d="M 442.867016 260.44 
L 442.867016 71.808 
" clip-path="url(#pfcdef5f858)" style="fill: none; stroke: #b0b0b0; stroke-opacity: 0.3; stroke-width: 0.8; stroke-linecap: square"/>
     </g>
     <g id="line2d_41">
      <g>
       <use xlink:href="#m6073edcc6a" x="442.867016" y="260.44" style="stroke: #000000; stroke-width: 0.8"/>
      </g>
     </g>
     <g id="text_23">
      <!-- 95 -->
      <g transform="translate(436.504516 275.038438) scale(0.1 -0.1)">
       <use xlink:href="#DejaVuSans-39"/>
       <use xlink:href="#DejaVuSans-35" transform="translate(63.623047 0)"/>
      </g>
     </g>
    </g>
    <g id="xtick_9">
     <g id="line2d_42">
      <path d="M 494.946456 260.44 
L 494.946456 71.808 
" clip-path="url(#pfcdef5f858)" style="fill: none; stroke: #b0b0b0; stroke-opacity: 0.3; stroke-width: 0.8; stroke-linecap: square"/>
     </g>
     <g id="line2d_43">
      <g>
       <use xlink:href="#m6073edcc6a" x="494.946456" y="260.44" style="stroke: #000000; stroke-width: 0.8"/>
      </g>
     </g>
     <g id="text_24">
      <!-- 100 -->
      <g transform="translate(485.402706 275.038438) scale(0.1 -0.1)">
       <use xlink:href="#DejaVuSans-31"/>
       <use xlink:href="#DejaVuSans-30" transform="translate(63.623047 0)"/>
       <use xlink:href="#DejaVuSans-30" transform="translate(127.246094 0)"/>
      </g>
     </g>
    </g>
    <g id="xtick_10">
     <g id="line2d_44">
      <path d="M 547.025896 260.44 
L 547.025896 71.808 
" clip-path="url(#pfcdef5f858)" style="fill: none; stroke: #b0b0b0; stroke-opacity: 0.3; stroke-width: 0.8; stroke-linecap: square"/>
     </g>
     <g id="line2d_45">
      <g>
       <use xlink:href="#m6073edcc6a" x="547.025896" y="260.44" style="stroke: #000000; stroke-width: 0.8"/>
      </g>
     </g>
     <g id="text_25">
      <!-- 105 -->
      <g transform="translate(537.482146 275.038438) scale(0.1 -0.1)">
       <use xlink:href="#DejaVuSans-31"/>
       <use xlink:href="#DejaVuSans-30" transform="translate(63.623047 0)"/>
       <use xlink:href="#DejaVuSans-35" transform="translate(127.246094 0)"/>
      </g>
     </g>
    </g>
    <g id="xtick_11">
     <g id="line2d_46">
      <path d="M 599.105337 260.44 
L 599.105337 71.808 
" clip-path="url(#pfcdef5f858)" style="fill: none; stroke: #b0b0b0; stroke-opacity: 0.3; stroke-width: 0.8; stroke-linecap: square"/>
     </g>
     <g id="line2d_47">
      <g>
       <use xlink:href="#m6073edcc6a" x="599.105337" y="260.44" style="stroke: #000000; stroke-width: 0.8"/>
      </g>
     </g>
     <g id="text_26">
      <!-- 110 -->
      <g transform="translate(589.561587 275.038438) scale(0.1 -0.1)">
       <use xlink:href="#DejaVuSans-31"/>
       <use xlink:href="#DejaVuSans-31" transform="translate(63.623047 0)"/>
       <use xlink:href="#DejaVuSans-30" transform="translate(127.246094 0)"/>
      </g>
     </g>
    </g>
    <g id="xtick_12">
     <g id="line2d_48">
      <path d="M 651.184777 260.44 
L 651.184777 71.808 
" clip-path="url(#pfcdef5f858)" style="fill: none; stroke: #b0b0b0; stroke-opacity: 0.3; stroke-width: 0.8; stroke-linecap: square"/>
     </g>
     <g id="line2d_49">
      <g>
       <use xlink:href="#m6073edcc6a" x="651.184777" y="260.44" style="stroke: #000000; stroke-width: 0.8"/>
      </g>
     </g>
     <g id="text_27">
      <!-- 115 -->
      <g transform="translate(641.641027 275.038438) scale(0.1 -0.1)">
       <use xlink:href="#DejaVuSans-31"/>
       <use xlink:href="#DejaVuSans-31" transform="translate(63.623047 0)"/>
       <use xlink:href="#DejaVuSans-35" transform="translate(127.246094 0)"/>
      </g>
     </g>
    </g>
    <g id="xtick_13">
     <g id="line2d_50">
      <path d="M 703.264217 260.44 
L 703.264217 71.808 
" clip-path="url(#pfcdef5f858)" style="fill: none; stroke: #b0b0b0; stroke-opacity: 0.3; stroke-width: 0.8; stroke-linecap: square"/>
     </g>
     <g id="line2d_51">
      <g>
       <use xlink:href="#m6073edcc6a" x="703.264217" y="260.44" style="stroke: #000000; stroke-width: 0.8"/>
      </g>
     </g>
     <g id="text_28">
      <!-- 120 -->
      <g transform="translate(693.720467 275.038438) scale(0.1 -0.1)">
       <use xlink:href="#DejaVuSans-31"/>
       <use xlink:href="#DejaVuSans-32" transform="translate(63.623047 0)"/>
       <use xlink:href="#DejaVuSans-30" transform="translate(127.246094 0)"/>
      </g>
     </g>
    </g>
    <g id="xtick_14">
     <g id="line2d_52">
      <path d="M 755.343657 260.44 
L 755.343657 71.808 
" clip-path="url(#pfcdef5f858)" style="fill: none; stroke: #b0b0b0; stroke-opacity: 0.3; stroke-width: 0.8; stroke-linecap: square"/>
     </g>
     <g id="line2d_53">
      <g>
       <use xlink:href="#m6073edcc6a" x="755.343657" y="260.44" style="stroke: #000000; stroke-width: 0.8"/>
      </g>
     </g>
     <g id="text_29">
      <!-- 125 -->
      <g transform="translate(745.799907 275.038438) scale(0.1 -0.1)">
       <use xlink:href="#DejaVuSans-31"/>
       <use xlink:href="#DejaVuSans-32" transform="translate(63.623047 0)"/>
       <use xlink:href="#DejaVuSans-35" transform="translate(127.246094 0)"/>
      </g>
     </g>
    </g>
    <g id="text_30">
     <!-- Injected read noise VN / mV -->
     <g transform="translate(508.566529 288.716563) scale(0.1 -0.1)">
      <use xlink:href="#DejaVuSans-49"/>
      <use xlink:href="#DejaVuSans-6e" transform="translate(29.492188 0)"/>
      <use xlink:href="#DejaVuSans-6a" transform="translate(92.871094 0)"/>
      <use xlink:href="#DejaVuSans-65" transform="translate(120.654297 0)"/>
      <use xlink:href="#DejaVuSans-63" transform="translate(182.177734 0)"/>
      <use xlink:href="#DejaVuSans-74" transform="translate(237.158203 0)"/>
      <use xlink:href="#DejaVuSans-65" transform="translate(276.367188 0)"/>
      <use xlink:href="#DejaVuSans-64" transform="translate(337.890625 0)"/>
      <use xlink:href="#DejaVuSans-20" transform="translate(401.367188 0)"/>
      <use xlink:href="#DejaVuSans-72" transform="translate(433.154297 0)"/>
      <use xlink:href="#DejaVuSans-65" transform="translate(472.017578 0)"/>
      <use xlink:href="#DejaVuSans-61" transform="translate(533.541016 0)"/>
      <use xlink:href="#DejaVuSans-64" transform="translate(594.820312 0)"/>
      <use xlink:href="#DejaVuSans-20" transform="translate(658.296875 0)"/>
      <use xlink:href="#DejaVuSans-6e" transform="translate(690.083984 0)"/>
      <use xlink:href="#DejaVuSans-6f" transform="translate(753.462891 0)"/>
      <use xlink:href="#DejaVuSans-69" transform="translate(814.644531 0)"/>
      <use xlink:href="#DejaVuSans-73" transform="translate(842.427734 0)"/>
      <use xlink:href="#DejaVuSans-65" transform="translate(894.527344 0)"/>
      <use xlink:href="#DejaVuSans-20" transform="translate(956.050781 0)"/>
      <use xlink:href="#DejaVuSans-56" transform="translate(987.837891 0)"/>
      <use xlink:href="#DejaVuSans-4e" transform="translate(1056.246094 0)"/>
      <use xlink:href="#DejaVuSans-20" transform="translate(1131.050781 0)"/>
      <use xlink:href="#DejaVuSans-2f" transform="translate(1162.837891 0)"/>
      <use xlink:href="#DejaVuSans-20" transform="translate(1196.529297 0)"/>
      <use xlink:href="#DejaVuSans-6d" transform="translate(1228.316406 0)"/>
      <use xlink:href="#DejaVuSans-56" transform="translate(1325.728516 0)"/>
     </g>
    </g>
   </g>
   <g id="matplotlib.axis_4">
    <g id="ytick_9">
     <g id="line2d_54">
      <path d="M 390.787576 260.44 
L 765.759545 260.44 
" clip-path="url(#pfcdef5f858)" style="fill: none; stroke: #b0b0b0; stroke-opacity: 0.3; stroke-width: 0.8; stroke-linecap: square"/>
     </g>
     <g id="line2d_55">
      <g>
       <use xlink:href="#m11a3996652" x="390.787576" y="260.44" style="stroke: #000000; stroke-width: 0.8"/>
      </g>
     </g>
     <g id="text_31">
      <!-- 0.1 -->
      <g transform="translate(367.884451 264.239219) scale(0.1 -0.1)">
       <use xlink:href="#DejaVuSans-30"/>
       <use xlink:href="#DejaVuSans-2e" transform="translate(63.623047 0)"/>
       <use xlink:href="#DejaVuSans-31" transform="translate(95.410156 0)"/>
      </g>
     </g>
    </g>
    <g id="ytick_10">
     <g id="line2d_56">
      <path d="M 390.787576 230.015484 
L 765.759545 230.015484 
" clip-path="url(#pfcdef5f858)" style="fill: none; stroke: #b0b0b0; stroke-opacity: 0.3; stroke-width: 0.8; stroke-linecap: square"/>
     </g>
     <g id="line2d_57">
      <g>
       <use xlink:href="#m11a3996652" x="390.787576" y="230.015484" style="stroke: #000000; stroke-width: 0.8"/>
      </g>
     </g>
     <g id="text_32">
      <!-- 0.2 -->
      <g transform="translate(367.884451 233.814703) scale(0.1 -0.1)">
       <use xlink:href="#DejaVuSans-30"/>
       <use xlink:href="#DejaVuSans-2e" transform="translate(63.623047 0)"/>
       <use xlink:href="#DejaVuSans-32" transform="translate(95.410156 0)"/>
      </g>
     </g>
    </g>
    <g id="ytick_11">
     <g id="line2d_58">
      <path d="M 390.787576 199.590968 
L 765.759545 199.590968 
" clip-path="url(#pfcdef5f858)" style="fill: none; stroke: #b0b0b0; stroke-opacity: 0.3; stroke-width: 0.8; stroke-linecap: square"/>
     </g>
     <g id="line2d_59">
      <g>
       <use xlink:href="#m11a3996652" x="390.787576" y="199.590968" style="stroke: #000000; stroke-width: 0.8"/>
      </g>
     </g>
     <g id="text_33">
      <!-- 0.3 -->
      <g transform="translate(367.884451 203.390186) scale(0.1 -0.1)">
       <use xlink:href="#DejaVuSans-30"/>
       <use xlink:href="#DejaVuSans-2e" transform="translate(63.623047 0)"/>
       <use xlink:href="#DejaVuSans-33" transform="translate(95.410156 0)"/>
      </g>
     </g>
    </g>
    <g id="ytick_12">
     <g id="line2d_60">
      <path d="M 390.787576 169.166452 
L 765.759545 169.166452 
" clip-path="url(#pfcdef5f858)" style="fill: none; stroke: #b0b0b0; stroke-opacity: 0.3; stroke-width: 0.8; stroke-linecap: square"/>
     </g>
     <g id="line2d_61">
      <g>
       <use xlink:href="#m11a3996652" x="390.787576" y="169.166452" style="stroke: #000000; stroke-width: 0.8"/>
      </g>
     </g>
     <g id="text_34">
      <!-- 0.4 -->
      <g transform="translate(367.884451 172.96567) scale(0.1 -0.1)">
       <use xlink:href="#DejaVuSans-30"/>
       <use xlink:href="#DejaVuSans-2e" transform="translate(63.623047 0)"/>
       <use xlink:href="#DejaVuSans-34" transform="translate(95.410156 0)"/>
      </g>
     </g>
    </g>
    <g id="ytick_13">
     <g id="line2d_62">
      <path d="M 390.787576 138.741935 
L 765.759545 138.741935 
" clip-path="url(#pfcdef5f858)" style="fill: none; stroke: #b0b0b0; stroke-opacity: 0.3; stroke-width: 0.8; stroke-linecap: square"/>
     </g>
     <g id="line2d_63">
      <g>
       <use xlink:href="#m11a3996652" x="390.787576" y="138.741935" style="stroke: #000000; stroke-width: 0.8"/>
      </g>
     </g>
     <g id="text_35">
      <!-- 0.5 -->
      <g transform="translate(367.884451 142.541154) scale(0.1 -0.1)">
       <use xlink:href="#DejaVuSans-30"/>
       <use xlink:href="#DejaVuSans-2e" transform="translate(63.623047 0)"/>
       <use xlink:href="#DejaVuSans-35" transform="translate(95.410156 0)"/>
      </g>
     </g>
    </g>
    <g id="ytick_14">
     <g id="line2d_64">
      <path d="M 390.787576 108.317419 
L 765.759545 108.317419 
" clip-path="url(#pfcdef5f858)" style="fill: none; stroke: #b0b0b0; stroke-opacity: 0.3; stroke-width: 0.8; stroke-linecap: square"/>
     </g>
     <g id="line2d_65">
      <g>
       <use xlink:href="#m11a3996652" x="390.787576" y="108.317419" style="stroke: #000000; stroke-width: 0.8"/>
      </g>
     </g>
     <g id="text_36">
      <!-- 0.6 -->
      <g transform="translate(367.884451 112.116638) scale(0.1 -0.1)">
       <use xlink:href="#DejaVuSans-30"/>
       <use xlink:href="#DejaVuSans-2e" transform="translate(63.623047 0)"/>
       <use xlink:href="#DejaVuSans-36" transform="translate(95.410156 0)"/>
      </g>
     </g>
    </g>
    <g id="ytick_15">
     <g id="line2d_66">
      <path d="M 390.787576 77.892903 
L 765.759545 77.892903 
" clip-path="url(#pfcdef5f858)" style="fill: none; stroke: #b0b0b0; stroke-opacity: 0.3; stroke-width: 0.8; stroke-linecap: square"/>
     </g>
     <g id="line2d_67">
      <g>
       <use xlink:href="#m11a3996652" x="390.787576" y="77.892903" style="stroke: #000000; stroke-width: 0.8"/>
      </g>
     </g>
     <g id="text_37">
      <!-- 0.7 -->
      <g transform="translate(367.884451 81.692122) scale(0.1 -0.1)">
       <use xlink:href="#DejaVuSans-30"/>
       <use xlink:href="#DejaVuSans-2e" transform="translate(63.623047 0)"/>
       <use xlink:href="#DejaVuSans-37" transform="translate(95.410156 0)"/>
      </g>
     </g>
    </g>
   </g>
   <g id="line2d_68">
    <path d="M -1 79.22462 
L 172.053927 80.326865 
L 244.965143 81.057053 
L 317.876359 82.000213 
L 401.203464 83.551863 
L 442.867016 84.616721 
L 474.11468 85.62073 
L 494.946456 86.472617 
L 515.778232 87.476626 
L 526.19412 88.085116 
L 536.610008 88.815305 
L 547.025896 89.697615 
L 557.441785 90.823323 
L 567.857673 92.709643 
L 578.273561 248.148495 
L 778.6 248.672794 
L 778.6 248.672794 
" clip-path="url(#pfcdef5f858)" style="fill: none; stroke: #1f77b4; stroke-width: 1.5; stroke-linecap: square"/>
   </g>
   <g id="line2d_69">
    <path d="M -1 240.598447 
L 203.301591 238.716895 
L 317.876359 237.286943 
L 401.203464 235.978689 
L 442.867016 235.157227 
L 494.946456 233.848973 
L 515.778232 233.179634 
L 536.610008 232.358172 
L 547.025896 231.81053 
L 557.441785 231.141191 
L 567.857673 230.076333 
L 578.273561 77.892903 
L 778.6 77.892903 
L 778.6 77.892903 
" clip-path="url(#pfcdef5f858)" style="fill: none; stroke-dasharray: 5.55,2.4; stroke-dashoffset: 0; stroke: #ff7f0e; stroke-width: 1.5"/>
   </g>
   <g id="line2d_70">
    <path d="M -1 240.598447 
L 203.301591 238.716895 
L 317.876359 237.286943 
L 401.203464 235.978689 
L 442.867016 235.157227 
L 494.946456 233.848973 
L 515.778232 233.179634 
L 536.610008 232.358172 
L 547.025896 231.81053 
L 557.441785 231.141191 
L 567.857673 230.076333 
L 578.273561 77.892903 
L 778.6 77.892903 
L 778.6 77.892903 
" clip-path="url(#pfcdef5f858)" style="fill: none; stroke: #2ca02c; stroke-width: 1.5; stroke-linecap: square"/>
   </g>
   <g id="line2d_71">
    <path d="M -1 79.22462 
L 172.053927 80.326865 
L 244.965143 81.057053 
L 317.876359 82.000213 
L 401.203464 83.551863 
L 442.867016 84.616721 
L 474.11468 85.62073 
L 494.946456 86.472617 
L 515.778232 87.476626 
L 526.19412 88.085116 
L 536.610008 88.815305 
L 547.025896 89.697615 
L 557.441785 90.823323 
L 567.857673 92.709643 
L 578.273561 248.148495 
L 778.6 248.672794 
L 778.6 248.672794 
" clip-path="url(#pfcdef5f858)" style="fill: none; stroke-dasharray: 5.55,2.4; stroke-dashoffset: 0; stroke: #d62728; stroke-width: 1.5"/>
   </g>
   <g id="line2d_72">
    <path d="M 578.273561 260.44 
L 578.273561 71.808 
" clip-path="url(#pfcdef5f858)" style="fill: none; stroke-dasharray: 7.68,1.92,1.2,1.92; stroke-dashoffset: 0; stroke: #1a1a1a; stroke-width: 1.2"/>
   </g>
   <g id="patch_9">
    <path d="M 390.787576 260.44 
L 390.787576 71.808 
" style="fill: none; stroke: #000000; stroke-width: 0.8; stroke-linejoin: miter; stroke-linecap: square"/>
   </g>
   <g id="patch_10">
    <path d="M 765.759545 260.44 
L 765.759545 71.808 
" style="fill: none; stroke: #000000; stroke-width: 0.8; stroke-linejoin: miter; stroke-linecap: square"/>
   </g>
   <g id="patch_11">
    <path d="M 390.787576 260.44 
L 765.759545 260.44 
" style="fill: none; stroke: #000000; stroke-width: 0.8; stroke-linejoin: miter; stroke-linecap: square"/>
   </g>
   <g id="patch_12">
    <path d="M 390.787576 71.808 
L 765.759545 71.808 
" style="fill: none; stroke: #000000; stroke-width: 0.8; stroke-linejoin: miter; stroke-linecap: square"/>
   </g>
   <g id="text_38">
    <g id="patch_13">
     <path d="M 586.606271 142.005685 
L 660.630021 142.005685 
Q 662.230021 142.005685 662.230021 140.405685 
L 662.230021 132.663185 
Q 662.230021 131.063185 660.630021 131.063185 
L 586.606271 131.063185 
Q 585.006271 131.063185 585.006271 132.663185 
L 585.006271 140.405685 
Q 585.006271 142.005685 586.606271 142.005685 
z
" style="fill: #ffffff; opacity: 0.9; stroke: #b2b2b2; stroke-linejoin: miter"/>
    </g>
    <!-- RSNM = 108.0 mV -->
    <g transform="translate(586.606271 138.741935) scale(0.08 -0.08)">
     <defs>
      <path id="DejaVuSans-52" d="M 2841 2188 
Q 3044 2119 3236 1894 
Q 3428 1669 3622 1275 
L 4263 0 
L 3584 0 
L 2988 1197 
Q 2756 1666 2539 1819 
Q 2322 1972 1947 1972 
L 1259 1972 
L 1259 0 
L 628 0 
L 628 4666 
L 2053 4666 
Q 2853 4666 3247 4331 
Q 3641 3997 3641 3322 
Q 3641 2881 3436 2590 
Q 3231 2300 2841 2188 
z
M 1259 4147 
L 1259 2491 
L 2053 2491 
Q 2509 2491 2742 2702 
Q 2975 2913 2975 3322 
Q 2975 3731 2742 3939 
Q 2509 4147 2053 4147 
L 1259 4147 
z
" transform="scale(0.015625)"/>
      <path id="DejaVuSans-4d" d="M 628 4666 
L 1569 4666 
L 2759 1491 
L 3956 4666 
L 4897 4666 
L 4897 0 
L 4281 0 
L 4281 4097 
L 3078 897 
L 2444 897 
L 1241 4097 
L 1241 0 
L 628 0 
L 628 4666 
z
" transform="scale(0.015625)"/>
      <path id="DejaVuSans-38" d="M 2034 2216 
Q 1584 2216 1326 1975 
Q 1069 1734 1069 1313 
Q 1069 891 1326 650 
Q 1584 409 2034 409 
Q 2484 409 2743 651 
Q 3003 894 3003 1313 
Q 3003 1734 2745 1975 
Q 2488 2216 2034 2216 
z
M 1403 2484 
Q 997 2584 770 2862 
Q 544 3141 544 3541 
Q 544 4100 942 4425 
Q 1341 4750 2034 4750 
Q 2731 4750 3128 4425 
Q 3525 4100 3525 3541 
Q 3525 3141 3298 2862 
Q 3072 2584 2669 2484 
Q 3125 2378 3379 2068 
Q 3634 1759 3634 1313 
Q 3634 634 3220 271 
Q 2806 -91 2034 -91 
Q 1263 -91 848 271 
Q 434 634 434 1313 
Q 434 1759 690 2068 
Q 947 2378 1403 2484 
z
M 1172 3481 
Q 1172 3119 1398 2916 
Q 1625 2713 2034 2713 
Q 2441 2713 2670 2916 
Q 2900 3119 2900 3481 
Q 2900 3844 2670 4047 
Q 2441 4250 2034 4250 
Q 1625 4250 1398 4047 
Q 1172 3844 1172 3481 
z
" transform="scale(0.015625)"/>
     </defs>
     <use xlink:href="#DejaVuSans-52"/>
     <use xlink:href="#DejaVuSans-53" transform="translate(69.482422 0)"/>
     <use xlink:href="#DejaVuSans-4e" transform="translate(132.958984 0)"/>
     <use xlink:href="#DejaVuSans-4d" transform="translate(207.763672 0)"/>
     <use xlink:href="#DejaVuSans-20" transform="translate(294.042969 0)"/>
     <use xlink:href="#DejaVuSans-3d" transform="translate(325.830078 0)"/>
     <use xlink:href="#DejaVuSans-20" transform="translate(409.619141 0)"/>
     <use xlink:href="#DejaVuSans-31" transform="translate(441.40625 0)"/>
     <use xlink:href="#DejaVuSans-30" transform="translate(505.029297 0)"/>
     <use xlink:href="#DejaVuSans-38" transform="translate(568.652344 0)"/>
     <use xlink:href="#DejaVuSans-2e" transform="translate(632.275391 0)"/>
     <use xlink:href="#DejaVuSans-30" transform="translate(664.0625 0)"/>
     <use xlink:href="#DejaVuSans-20" transform="translate(727.685547 0)"/>
     <use xlink:href="#DejaVuSans-6d" transform="translate(759.472656 0)"/>
     <use xlink:href="#DejaVuSans-56" transform="translate(856.884766 0)"/>
    </g>
   </g>
   <g id="text_39">
    <!-- Critical region -->
    <g transform="translate(536.408561 65.808) scale(0.12 -0.12)">
     <defs>
      <path id="DejaVuSans-43" d="M 4122 4306 
L 4122 3641 
Q 3803 3938 3442 4084 
Q 3081 4231 2675 4231 
Q 1875 4231 1450 3742 
Q 1025 3253 1025 2328 
Q 1025 1406 1450 917 
Q 1875 428 2675 428 
Q 3081 428 3442 575 
Q 3803 722 4122 1019 
L 4122 359 
Q 3791 134 3420 21 
Q 3050 -91 2638 -91 
Q 1578 -91 968 557 
Q 359 1206 359 2328 
Q 359 3453 968 4101 
Q 1578 4750 2638 4750 
Q 3056 4750 3426 4639 
Q 3797 4528 4122 4306 
z
" transform="scale(0.015625)"/>
     </defs>
     <use xlink:href="#DejaVuSans-43"/>
     <use xlink:href="#DejaVuSans-72" transform="translate(69.824219 0)"/>
     <use xlink:href="#DejaVuSans-69" transform="translate(110.9375 0)"/>
     <use xlink:href="#DejaVuSans-74" transform="translate(138.720703 0)"/>
     <use xlink:href="#DejaVuSans-69" transform="translate(177.929688 0)"/>
     <use xlink:href="#DejaVuSans-63" transform="translate(205.712891 0)"/>
     <use xlink:href="#DejaVuSans-61" transform="translate(260.693359 0)"/>
     <use xlink:href="#DejaVuSans-6c" transform="translate(321.972656 0)"/>
     <use xlink:href="#DejaVuSans-20" transform="translate(349.755859 0)"/>
     <use xlink:href="#DejaVuSans-72" transform="translate(381.542969 0)"/>
     <use xlink:href="#DejaVuSans-65" transform="translate(420.40625 0)"/>
     <use xlink:href="#DejaVuSans-67" transform="translate(481.929688 0)"/>
     <use xlink:href="#DejaVuSans-69" transform="translate(545.40625 0)"/>
     <use xlink:href="#DejaVuSans-6f" transform="translate(573.189453 0)"/>
     <use xlink:href="#DejaVuSans-6e" transform="translate(634.371094 0)"/>
    </g>
   </g>
   <g id="legend_2">
    <g id="patch_14">
     <path d="M 678.573983 187.10625 
L 760.999545 187.10625 
Q 762.359545 187.10625 762.359545 185.74625 
L 762.359545 146.50175 
Q 762.359545 145.14175 760.999545 145.14175 
L 678.573983 145.14175 
Q 677.213983 145.14175 677.213983 146.50175 
L 677.213983 185.74625 
Q 677.213983 187.10625 678.573983 187.10625 
z
" style="fill: #ffffff; opacity: 0.8; stroke: #cccccc; stroke-linejoin: miter"/>
    </g>
    <g id="line2d_73">
     <path d="M 679.933983 150.648688 
L 686.733983 150.648688 
L 693.533983 150.648688 
" style="fill: none; stroke: #1f77b4; stroke-width: 1.5; stroke-linecap: square"/>
    </g>
    <g id="text_40">
     <!-- Q=1 initial: V(Q) -->
     <g transform="translate(698.973983 153.028688) scale(0.068 -0.068)">
      <use xlink:href="#DejaVuSans-51"/>
      <use xlink:href="#DejaVuSans-3d" transform="translate(78.710938 0)"/>
      <use xlink:href="#DejaVuSans-31" transform="translate(162.5 0)"/>
      <use xlink:href="#DejaVuSans-20" transform="translate(226.123047 0)"/>
      <use xlink:href="#DejaVuSans-69" transform="translate(257.910156 0)"/>
      <use xlink:href="#DejaVuSans-6e" transform="translate(285.693359 0)"/>
      <use xlink:href="#DejaVuSans-69" transform="translate(349.072266 0)"/>
      <use xlink:href="#DejaVuSans-74" transform="translate(376.855469 0)"/>
      <use xlink:href="#DejaVuSans-69" transform="translate(416.064453 0)"/>
      <use xlink:href="#DejaVuSans-61" transform="translate(443.847656 0)"/>
      <use xlink:href="#DejaVuSans-6c" transform="translate(505.126953 0)"/>
      <use xlink:href="#DejaVuSans-3a" transform="translate(532.910156 0)"/>
      <use xlink:href="#DejaVuSans-20" transform="translate(566.601562 0)"/>
      <use xlink:href="#DejaVuSans-56" transform="translate(598.388672 0)"/>
      <use xlink:href="#DejaVuSans-28" transform="translate(666.796875 0)"/>
      <use xlink:href="#DejaVuSans-51" transform="translate(705.810547 0)"/>
      <use xlink:href="#DejaVuSans-29" transform="translate(784.521484 0)"/>
     </g>
    </g>
    <g id="line2d_74">
     <path d="M 679.933983 160.629813 
L 686.733983 160.629813 
L 693.533983 160.629813 
" style="fill: none; stroke-dasharray: 5.55,2.4; stroke-dashoffset: 0; stroke: #ff7f0e; stroke-width: 1.5"/>
    </g>
    <g id="text_41">
     <!-- Q=1 initial: V(QB) -->
     <g transform="translate(698.973983 163.009813) scale(0.068 -0.068)">
      <use xlink:href="#DejaVuSans-51"/>
      <use xlink:href="#DejaVuSans-3d" transform="translate(78.710938 0)"/>
      <use xlink:href="#DejaVuSans-31" transform="translate(162.5 0)"/>
      <use xlink:href="#DejaVuSans-20" transform="translate(226.123047 0)"/>
      <use xlink:href="#DejaVuSans-69" transform="translate(257.910156 0)"/>
      <use xlink:href="#DejaVuSans-6e" transform="translate(285.693359 0)"/>
      <use xlink:href="#DejaVuSans-69" transform="translate(349.072266 0)"/>
      <use xlink:href="#DejaVuSans-74" transform="translate(376.855469 0)"/>
      <use xlink:href="#DejaVuSans-69" transform="translate(416.064453 0)"/>
      <use xlink:href="#DejaVuSans-61" transform="translate(443.847656 0)"/>
      <use xlink:href="#DejaVuSans-6c" transform="translate(505.126953 0)"/>
      <use xlink:href="#DejaVuSans-3a" transform="translate(532.910156 0)"/>
      <use xlink:href="#DejaVuSans-20" transform="translate(566.601562 0)"/>
      <use xlink:href="#DejaVuSans-56" transform="translate(598.388672 0)"/>
      <use xlink:href="#DejaVuSans-28" transform="translate(666.796875 0)"/>
      <use xlink:href="#DejaVuSans-51" transform="translate(705.810547 0)"/>
      <use xlink:href="#DejaVuSans-42" transform="translate(784.521484 0)"/>
      <use xlink:href="#DejaVuSans-29" transform="translate(853.125 0)"/>
     </g>
    </g>
    <g id="line2d_75">
     <path d="M 679.933983 170.610938 
L 686.733983 170.610938 
L 693.533983 170.610938 
" style="fill: none; stroke: #2ca02c; stroke-width: 1.5; stroke-linecap: square"/>
    </g>
    <g id="text_42">
     <!-- Q=0 initial: V(Q) -->
     <g transform="translate(698.973983 172.990938) scale(0.068 -0.068)">
      <use xlink:href="#DejaVuSans-51"/>
      <use xlink:href="#DejaVuSans-3d" transform="translate(78.710938 0)"/>
      <use xlink:href="#DejaVuSans-30" transform="translate(162.5 0)"/>
      <use xlink:href="#DejaVuSans-20" transform="translate(226.123047 0)"/>
      <use xlink:href="#DejaVuSans-69" transform="translate(257.910156 0)"/>
      <use xlink:href="#DejaVuSans-6e" transform="translate(285.693359 0)"/>
      <use xlink:href="#DejaVuSans-69" transform="translate(349.072266 0)"/>
      <use xlink:href="#DejaVuSans-74" transform="translate(376.855469 0)"/>
      <use xlink:href="#DejaVuSans-69" transform="translate(416.064453 0)"/>
      <use xlink:href="#DejaVuSans-61" transform="translate(443.847656 0)"/>
      <use xlink:href="#DejaVuSans-6c" transform="translate(505.126953 0)"/>
      <use xlink:href="#DejaVuSans-3a" transform="translate(532.910156 0)"/>
      <use xlink:href="#DejaVuSans-20" transform="translate(566.601562 0)"/>
      <use xlink:href="#DejaVuSans-56" transform="translate(598.388672 0)"/>
      <use xlink:href="#DejaVuSans-28" transform="translate(666.796875 0)"/>
      <use xlink:href="#DejaVuSans-51" transform="translate(705.810547 0)"/>
      <use xlink:href="#DejaVuSans-29" transform="translate(784.521484 0)"/>
     </g>
    </g>
    <g id="line2d_76">
     <path d="M 679.933983 180.592063 
L 686.733983 180.592063 
L 693.533983 180.592063 
" style="fill: none; stroke-dasharray: 5.55,2.4; stroke-dashoffset: 0; stroke: #d62728; stroke-width: 1.5"/>
    </g>
    <g id="text_43">
     <!-- Q=0 initial: V(QB) -->
     <g transform="translate(698.973983 182.972063) scale(0.068 -0.068)">
      <use xlink:href="#DejaVuSans-51"/>
      <use xlink:href="#DejaVuSans-3d" transform="translate(78.710938 0)"/>
      <use xlink:href="#DejaVuSans-30" transform="translate(162.5 0)"/>
      <use xlink:href="#DejaVuSans-20" transform="translate(226.123047 0)"/>
      <use xlink:href="#DejaVuSans-69" transform="translate(257.910156 0)"/>
      <use xlink:href="#DejaVuSans-6e" transform="translate(285.693359 0)"/>
      <use xlink:href="#DejaVuSans-69" transform="translate(349.072266 0)"/>
      <use xlink:href="#DejaVuSans-74" transform="translate(376.855469 0)"/>
      <use xlink:href="#DejaVuSans-69" transform="translate(416.064453 0)"/>
      <use xlink:href="#DejaVuSans-61" transform="translate(443.847656 0)"/>
      <use xlink:href="#DejaVuSans-6c" transform="translate(505.126953 0)"/>
      <use xlink:href="#DejaVuSans-3a" transform="translate(532.910156 0)"/>
      <use xlink:href="#DejaVuSans-20" transform="translate(566.601562 0)"/>
      <use xlink:href="#DejaVuSans-56" transform="translate(598.388672 0)"/>
      <use xlink:href="#DejaVuSans-28" transform="translate(666.796875 0)"/>
      <use xlink:href="#DejaVuSans-51" transform="translate(705.810547 0)"/>
      <use xlink:href="#DejaVuSans-42" transform="translate(784.521484 0)"/>
      <use xlink:href="#DejaVuSans-29" transform="translate(853.125 0)"/>
     </g>
    </g>
   </g>
  </g>
  <g id="text_44">
   <!-- No-RC read-SNM noise-source sweep -->
   <g transform="translate(278.164688 15.166125) scale(0.12 -0.12)">
    <use xlink:href="#DejaVuSans-4e"/>
    <use xlink:href="#DejaVuSans-6f" transform="translate(74.804688 0)"/>
    <use xlink:href="#DejaVuSans-2d" transform="translate(137.861328 0)"/>
    <use xlink:href="#DejaVuSans-52" transform="translate(173.945312 0)"/>
    <use xlink:href="#DejaVuSans-43" transform="translate(238.427734 0)"/>
    <use xlink:href="#DejaVuSans-20" transform="translate(308.251953 0)"/>
    <use xlink:href="#DejaVuSans-72" transform="translate(340.039062 0)"/>
    <use xlink:href="#DejaVuSans-65" transform="translate(378.902344 0)"/>
    <use xlink:href="#DejaVuSans-61" transform="translate(440.425781 0)"/>
    <use xlink:href="#DejaVuSans-64" transform="translate(501.705078 0)"/>
    <use xlink:href="#DejaVuSans-2d" transform="translate(565.181641 0)"/>
    <use xlink:href="#DejaVuSans-53" transform="translate(601.265625 0)"/>
    <use xlink:href="#DejaVuSans-4e" transform="translate(664.742188 0)"/>
    <use xlink:href="#DejaVuSans-4d" transform="translate(739.546875 0)"/>
    <use xlink:href="#DejaVuSans-20" transform="translate(825.826172 0)"/>
    <use xlink:href="#DejaVuSans-6e" transform="translate(857.613281 0)"/>
    <use xlink:href="#DejaVuSans-6f" transform="translate(920.992188 0)"/>
    <use xlink:href="#DejaVuSans-69" transform="translate(982.173828 0)"/>
    <use xlink:href="#DejaVuSans-73" transform="translate(1009.957031 0)"/>
    <use xlink:href="#DejaVuSans-65" transform="translate(1062.056641 0)"/>
    <use xlink:href="#DejaVuSans-2d" transform="translate(1123.580078 0)"/>
    <use xlink:href="#DejaVuSans-73" transform="translate(1159.664062 0)"/>
    <use xlink:href="#DejaVuSans-6f" transform="translate(1211.763672 0)"/>
    <use xlink:href="#DejaVuSans-75" transform="translate(1272.945312 0)"/>
    <use xlink:href="#DejaVuSans-72" transform="translate(1336.324219 0)"/>
    <use xlink:href="#DejaVuSans-63" transform="translate(1375.1875 0)"/>
    <use xlink:href="#DejaVuSans-65" transform="translate(1430.167969 0)"/>
    <use xlink:href="#DejaVuSans-20" transform="translate(1491.691406 0)"/>
    <use xlink:href="#DejaVuSans-73" transform="translate(1523.478516 0)"/>
    <use xlink:href="#DejaVuSans-77" transform="translate(1575.578125 0)"/>
    <use xlink:href="#DejaVuSans-65" transform="translate(1657.365234 0)"/>
    <use xlink:href="#DejaVuSans-65" transform="translate(1718.888672 0)"/>
    <use xlink:href="#DejaVuSans-70" transform="translate(1780.412109 0)"/>
   </g>
  </g>
 </g>
 <defs>
  <clipPath id="p00ece7f0dc">
   <rect x="47.72" y="71.808" width="299.977576" height="188.632"/>
  </clipPath>
  <clipPath id="pfcdef5f858">
   <rect x="390.787576" y="71.808" width="374.97197" height="188.632"/>
  </clipPath>
 </defs>
</svg>
