<?xml version="1.0" encoding="utf-8" standalone="no"?>
<!DOCTYPE svg PUBLIC "-//W3C//DTD SVG 1.1//EN"
  "http://www.w3.org/Graphics/SVG/1.1/DTD/svg11.dtd">
<svg xmlns:xlink="http://www.w3.org/1999/xlink" width="495.823437pt" height="303.431875pt" viewBox="0 0 495.823437 303.431875" xmlns="http://www.w3.org/2000/svg" version="1.1">
 <metadata>
  <rdf:RDF xmlns:dc="http://purl.org/dc/elements/1.1/" xmlns:cc="http://creativecommons.org/ns#" xmlns:rdf="http://www.w3.org/1999/02/22-rdf-syntax-ns#">
   <cc:Work>
    <dc:type rdf:resource="http://purl.org/dc/dcmitype/StillImage"/>
    <dc:date>2026-07-14T10:41:13.888224</dc:date>
    <dc:format>image/svg+xml</dc:format>
    <dc:creator>
     <cc:Agent>
      <dc:title>Matplotlib v3.10.8, https://matplotlib.org/</dc:title>
     </cc:Agent>
    </dc:creator>
   </cc:Work>
  </rdf:RDF>
 </metadata>
 <defs>
  <style type="text/css">*{stroke-linejoin: round; stroke-linecap: butt}</style>
 </defs>
 <g id="figure_1">
  <g id="patch_1">
   <path d="M 0 303.431875 
L 495.823437 303.431875 
L 495.823437 0 
L 0 0 
z
" style="fill: #ffffff"/>
  </g>
  <g id="axes_1">
   <g id="patch_2">
    <path d="M 42.873438 264.2725 
L 488.623437 264.2725 
L 488.623437 22.7925 
L 42.873438 22.7925 
z
" style="fill: #ffffff"/>
   </g>
   <g id="matplotlib.axis_1">
    <g id="xtick_1">
     <g id="line2d_1">
      <path d="M 42.873438 264.2725 
L 42.873438 22.7925 
" clip-path="url(#p17a12925f7)" style="fill: none; stroke: #b0b0b0; stroke-opacity: 0.28; stroke-width: 0.8; stroke-linecap: square"/>
     </g>
     <g id="line2d_2">
      <defs>
       <path id="m75c2a62b61" d="M 0 0 
L 0 3.5 
" style="stroke: #000000; stroke-width: 0.8"/>
      </defs>
      <g>
       <use xlink:href="#m75c2a62b61" x="42.873438" y="264.2725" style="stroke: #000000; stroke-width: 0.8"/>
      </g>
     </g>
     <g id="text_1">
      <text style="font-size: 10px; font-family: 'Microsoft YaHei'; text-anchor: middle" x="42.873438" y="279.26625" transform="rotate(-0 42.873438 279.26625)">0.0</text>
     </g>
    </g>
    <g id="xtick_2">
     <g id="line2d_3">
      <path d="M 114.193438 264.2725 
L 114.193438 22.7925 
" clip-path="url(#p17a12925f7)" style="fill: none; stroke: #b0b0b0; stroke-opacity: 0.28; stroke-width: 0.8; stroke-linecap: square"/>
     </g>
     <g id="line2d_4">
      <g>
       <use xlink:href="#m75c2a62b61" x="114.193438" y="264.2725" style="stroke: #000000; stroke-width: 0.8"/>
      </g>
     </g>
     <g id="text_2">
      <text style="font-size: 10px; font-family: 'Microsoft YaHei'; text-anchor: middle" x="114.193438" y="279.26625" transform="rotate(-0 114.193438 279.26625)">0.2</text>
     </g>
    </g>
    <g id="xtick_3">
     <g id="line2d_5">
      <path d="M 185.513438 264.2725 
L 185.513438 22.7925 
" clip-path="url(#p17a12925f7)" style="fill: none; stroke: #b0b0b0; stroke-opacity: 0.28; stroke-width: 0.8; stroke-linecap: square"/>
     </g>
     <g id="line2d_6">
      <g>
       <use xlink:href="#m75c2a62b61" x="185.513438" y="264.2725" style="stroke: #000000; stroke-width: 0.8"/>
      </g>
     </g>
     <g id="text_3">
      <text style="font-size: 10px; font-family: 'Microsoft YaHei'; text-anchor: middle" x="185.513438" y="279.26625" transform="rotate(-0 185.513438 279.26625)">0.4</text>
     </g>
    </g>
    <g id="xtick_4">
     <g id="line2d_7">
      <path d="M 256.833438 264.2725 
L 256.833438 22.7925 
" clip-path="url(#p17a12925f7)" style="fill: none; stroke: #b0b0b0; stroke-opacity: 0.28; stroke-width: 0.8; stroke-linecap: square"/>
     </g>
     <g id="line2d_8">
      <g>
       <use xlink:href="#m75c2a62b61" x="256.833438" y="264.2725" style="stroke: #000000; stroke-width: 0.8"/>
      </g>
     </g>
     <g id="text_4">
      <text style="font-size: 10px; font-family: 'Microsoft YaHei'; text-anchor: middle" x="256.833438" y="279.26625" transform="rotate(-0 256.833438 279.26625)">0.6</text>
     </g>
    </g>
    <g id="xtick_5">
     <g id="line2d_9">
      <path d="M 328.153437 264.2725 
L 328.153437 22.7925 
" clip-path="url(#p17a12925f7)" style="fill: none; stroke: #b0b0b0; stroke-opacity: 0.28; stroke-width: 0.8; stroke-linecap: square"/>
     </g>
     <g id="line2d_10">
      <g>
       <use xlink:href="#m75c2a62b61" x="328.153437" y="264.2725" style="stroke: #000000; stroke-width: 0.8"/>
      </g>
     </g>
     <g id="text_5">
      <text style="font-size: 10px; font-family: 'Microsoft YaHei'; text-anchor: middle" x="328.153437" y="279.26625" transform="rotate(-0 328.153437 279.26625)">0.8</text>
     </g>
    </g>
    <g id="xtick_6">
     <g id="line2d_11">
      <path d="M 399.473437 264.2725 
L 399.473437 22.7925 
" clip-path="url(#p17a12925f7)" style="fill: none; stroke: #b0b0b0; stroke-opacity: 0.28; stroke-width: 0.8; stroke-linecap: square"/>
     </g>
     <g id="line2d_12">
      <g>
       <use xlink:href="#m75c2a62b61" x="399.473437" y="264.2725" style="stroke: #000000; stroke-width: 0.8"/>
      </g>
     </g>
     <g id="text_6">
      <text style="font-size: 10px; font-family: 'Microsoft YaHei'; text-anchor: middle" x="399.473437" y="279.26625" transform="rotate(-0 399.473437 279.26625)">1.0</text>
     </g>
    </g>
    <g id="xtick_7">
     <g id="line2d_13">
      <path d="M 470.793438 264.2725 
L 470.793438 22.7925 
" clip-path="url(#p17a12925f7)" style="fill: none; stroke: #b0b0b0; stroke-opacity: 0.28; stroke-width: 0.8; stroke-linecap: square"/>
     </g>
     <g id="line2d_14">
      <g>
       <use xlink:href="#m75c2a62b61" x="470.793438" y="264.2725" style="stroke: #000000; stroke-width: 0.8"/>
      </g>
     </g>
     <g id="text_7">
      <text style="font-size: 10px; font-family: 'Microsoft YaHei'; text-anchor: middle" x="470.793438" y="279.26625" transform="rotate(-0 470.793438 279.26625)">1.2</text>
     </g>
    </g>
    <g id="text_8">
     <text style="font-size: 10px; font-family: 'Microsoft YaHei'; text-anchor: middle" x="265.748437" y="293.745937" transform="rotate(-0 265.748437 293.745937)">Time (ns)</text>
    </g>
   </g>
   <g id="matplotlib.axis_2">
    <g id="ytick_1">
     <g id="line2d_15">
      <path d="M 42.873438 254.864188 
L 488.623437 254.864188 
" clip-path="url(#p17a12925f7)" style="fill: none; stroke: #b0b0b0; stroke-opacity: 0.28; stroke-width: 0.8; stroke-linecap: square"/>
     </g>
     <g id="line2d_16">
      <defs>
       <path id="mf74e04e1d1" d="M 0 0 
L -3.5 0 
" style="stroke: #000000; stroke-width: 0.8"/>
      </defs>
      <g>
       <use xlink:href="#mf74e04e1d1" x="42.873438" y="254.864188" style="stroke: #000000; stroke-width: 0.8"/>
      </g>
     </g>
     <g id="text_9">
      <text style="font-size: 10px; font-family: 'Microsoft YaHei'; text-anchor: end" x="35.873438" y="258.861063" transform="rotate(-0 35.873438 258.861063)">0.0</text>
     </g>
    </g>
    <g id="ytick_2">
     <g id="line2d_17">
      <path d="M 42.873438 223.503149 
L 488.623437 223.503149 
" clip-path="url(#p17a12925f7)" style="fill: none; stroke: #b0b0b0; stroke-opacity: 0.28; stroke-width: 0.8; stroke-linecap: square"/>
     </g>
     <g id="line2d_18">
      <g>
       <use xlink:href="#mf74e04e1d1" x="42.873438" y="223.503149" style="stroke: #000000; stroke-width: 0.8"/>
      </g>
     </g>
     <g id="text_10">
      <text style="font-size: 10px; font-family: 'Microsoft YaHei'; text-anchor: end" x="35.873438" y="227.500024" transform="rotate(-0 35.873438 227.500024)">0.1</text>
     </g>
    </g>
    <g id="ytick_3">
     <g id="line2d_19">
      <path d="M 42.873438 192.14211 
L 488.623437 192.14211 
" clip-path="url(#p17a12925f7)" style="fill: none; stroke: #b0b0b0; stroke-opacity: 0.28; stroke-width: 0.8; stroke-linecap: square"/>
     </g>
     <g id="line2d_20">
      <g>
       <use xlink:href="#mf74e04e1d1" x="42.873438" y="192.14211" style="stroke: #000000; stroke-width: 0.8"/>
      </g>
     </g>
     <g id="text_11">
      <text style="font-size: 10px; font-family: 'Microsoft YaHei'; text-anchor: end" x="35.873438" y="196.138985" transform="rotate(-0 35.873438 196.138985)">0.2</text>
     </g>
    </g>
    <g id="ytick_4">
     <g id="line2d_21">
      <path d="M 42.873438 160.781071 
L 488.623437 160.781071 
" clip-path="url(#p17a12925f7)" style="fill: none; stroke: #b0b0b0; stroke-opacity: 0.28; stroke-width: 0.8; stroke-linecap: square"/>
     </g>
     <g id="line2d_22">
      <g>
       <use xlink:href="#mf74e04e1d1" x="42.873438" y="160.781071" style="stroke: #000000; stroke-width: 0.8"/>
      </g>
     </g>
     <g id="text_12">
      <text style="font-size: 10px; font-family: 'Microsoft YaHei'; text-anchor: end" x="35.873438" y="164.777946" transform="rotate(-0 35.873438 164.777946)">0.3</text>
     </g>
    </g>
    <g id="ytick_5">
     <g id="line2d_23">
      <path d="M 42.873438 129.420032 
L 488.623437 129.420032 
" clip-path="url(#p17a12925f7)" style="fill: none; stroke: #b0b0b0; stroke-opacity: 0.28; stroke-width: 0.8; stroke-linecap: square"/>
     </g>
     <g id="line2d_24">
      <g>
       <use xlink:href="#mf74e04e1d1" x="42.873438" y="129.420032" style="stroke: #000000; stroke-width: 0.8"/>
      </g>
     </g>
     <g id="text_13">
      <text style="font-size: 10px; font-family: 'Microsoft YaHei'; text-anchor: end" x="35.873438" y="133.416907" transform="rotate(-0 35.873438 133.416907)">0.4</text>
     </g>
    </g>
    <g id="ytick_6">
     <g id="line2d_25">
      <path d="M 42.873438 98.058994 
L 488.623437 98.058994 
" clip-path="url(#p17a12925f7)" style="fill: none; stroke: #b0b0b0; stroke-opacity: 0.28; stroke-width: 0.8; stroke-linecap: square"/>
     </g>
     <g id="line2d_26">
      <g>
       <use xlink:href="#mf74e04e1d1" x="42.873438" y="98.058994" style="stroke: #000000; stroke-width: 0.8"/>
      </g>
     </g>
     <g id="text_14">
      <text style="font-size: 10px; font-family: 'Microsoft YaHei'; text-anchor: end" x="35.873438" y="102.055869" transform="rotate(-0 35.873438 102.055869)">0.5</text>
     </g>
    </g>
    <g id="ytick_7">
     <g id="line2d_27">
      <path d="M 42.873438 66.697955 
L 488.623437 66.697955 
" clip-path="url(#p17a12925f7)" style="fill: none; stroke: #b0b0b0; stroke-opacity: 0.28; stroke-width: 0.8; stroke-linecap: square"/>
     </g>
     <g id="line2d_28">
      <g>
       <use xlink:href="#mf74e04e1d1" x="42.873438" y="66.697955" style="stroke: #000000; stroke-width: 0.8"/>
      </g>
     </g>
     <g id="text_15">
      <text style="font-size: 10px; font-family: 'Microsoft YaHei'; text-anchor: end" x="35.873438" y="70.69483" transform="rotate(-0 35.873438 70.69483)">0.6</text>
     </g>
    </g>
    <g id="ytick_8">
     <g id="line2d_29">
      <path d="M 42.873438 35.336916 
L 488.623437 35.336916 
" clip-path="url(#p17a12925f7)" style="fill: none; stroke: #b0b0b0; stroke-opacity: 0.28; stroke-width: 0.8; stroke-linecap: square"/>
     </g>
     <g id="line2d_30">
      <g>
       <use xlink:href="#mf74e04e1d1" x="42.873438" y="35.336916" style="stroke: #000000; stroke-width: 0.8"/>
      </g>
     </g>
     <g id="text_16">
      <text style="font-size: 10px; font-family: 'Microsoft YaHei'; text-anchor: end" x="35.873438" y="39.333791" transform="rotate(-0 35.873438 39.333791)">0.7</text>
     </g>
    </g>
    <g id="text_17">
     <text style="font-size: 10px; font-family: 'Microsoft YaHei'; text-anchor: middle" x="15.19375" y="143.5325" transform="rotate(-90 15.19375 143.5325)">Voltage (V)</text>
    </g>
   </g>
   <g id="line2d_31">
    <path d="M 42.873438 35.336916 
L 79.674558 35.242832 
L 79.959838 35.211471 
L 81.029638 35.117388 
L 81.314918 35.086027 
L 86.378637 34.991944 
L 86.663917 34.960583 
L 94.152518 34.8665 
L 94.437798 34.835139 
L 97.718517 34.741056 
L 98.003797 34.709695 
L 101.213198 34.615612 
L 101.498478 34.584251 
L 108.059918 34.490168 
L 108.345197 34.458806 
L 114.336078 34.55289 
L 115.691158 35.054666 
L 116.190398 35.148749 
L 116.760958 35.305555 
L 117.331517 35.399638 
L 117.616798 35.430999 
L 118.757918 35.525082 
L 119.043197 35.556443 
L 122.109957 35.650526 
L 122.395238 35.681887 
L 144.005197 35.587804 
L 144.290478 35.556443 
L 155.915638 35.46236 
L 156.200918 35.430999 
L 470.793437 35.336916 
L 470.793437 35.336916 
" clip-path="url(#p17a12925f7)" style="fill: none; stroke: #1f77b4; stroke-width: 1.9; stroke-linecap: square"/>
   </g>
   <g id="line2d_32">
    <path d="M 42.873438 254.864188 
L 79.817198 254.725353 
L 83.026598 254.493187 
L 85.166198 254.323838 
L 92.726118 251.983363 
L 96.933998 247.277953 
L 101.783758 238.744614 
L 106.205598 229.166953 
L 114.336078 210.080625 
L 115.120598 209.516126 
L 115.762478 209.32796 
L 116.832278 209.422043 
L 117.117558 209.453404 
L 117.402838 209.547487 
L 119.756398 210.676484 
L 120.683558 211.366427 
L 121.040158 211.617316 
L 121.967317 212.307258 
L 122.252598 212.495425 
L 122.894477 213.185368 
L 123.607677 213.938032 
L 124.249557 214.627975 
L 125.034077 215.443362 
L 125.675958 216.133305 
L 126.389157 216.88597 
L 126.959718 217.669996 
L 129.955157 221.778292 
L 130.597037 222.687762 
L 133.235878 226.350732 
L 137.443758 232.092938 
L 142.436158 237.850825 
L 146.501397 241.805452 
L 153.562077 246.650732 
L 159.695598 249.501451 
L 167.255517 251.718676 
L 173.175077 252.859904 
L 182.660638 253.875061 
L 191.361677 254.378092 
L 203.771357 254.704184 
L 222.029278 254.858481 
L 253.338757 254.885043 
L 470.793437 254.863426 
L 470.793437 254.863426 
" clip-path="url(#p17a12925f7)" style="fill: none; stroke: #ff7f0e; stroke-width: 1.9; stroke-linecap: square"/>
   </g>
   <g id="line2d_33">
    <path d="M 42.873438 35.336916 
L 82.242077 35.242832 
L 82.527358 35.211471 
L 86.521278 35.117388 
L 86.806557 35.086027 
L 90.729158 34.991944 
L 91.014438 34.960583 
L 95.008358 34.8665 
L 95.293638 34.835139 
L 99.216238 34.741056 
L 99.501518 34.709695 
L 103.424118 34.615612 
L 103.709397 34.584251 
L 107.560677 34.490168 
L 107.845957 34.458806 
L 111.697237 34.364723 
L 111.982518 34.333362 
L 470.793437 34.27064 
L 470.793437 34.27064 
" clip-path="url(#p17a12925f7)" style="fill: none; stroke: #2ca02c; stroke-width: 1.5; stroke-linecap: square"/>
   </g>
   <g id="line2d_34">
    <path d="M 42.873438 35.336916 
L 82.527358 35.242832 
L 82.812638 35.211471 
L 85.522798 35.305555 
L 86.022038 35.430999 
L 86.592598 35.525082 
L 87.091838 35.650526 
L 87.662398 35.744609 
L 88.090317 35.838692 
L 88.589558 35.932775 
L 89.017477 36.026858 
L 89.516717 36.120942 
L 89.944637 36.215025 
L 90.515197 36.309108 
L 91.014438 36.434552 
L 91.584998 36.528635 
L 92.012918 36.622718 
L 92.512158 36.716801 
L 92.797438 36.936329 
L 96.862677 40.636931 
L 101.284518 48.633996 
L 103.495438 55.09437 
L 104.565237 58.199113 
L 105.848997 62.464214 
L 108.701797 74.538214 
L 110.413478 81.751253 
L 114.478718 103.798064 
L 120.398277 137.009404 
L 124.392197 157.488162 
L 127.530277 172.165129 
L 129.099317 178.813669 
L 131.452877 188.723757 
L 135.090197 201.142729 
L 136.159998 204.780609 
L 136.944518 207.164048 
L 141.722958 219.488936 
L 142.650117 221.339238 
L 144.219157 224.528655 
L 146.857998 229.634232 
L 153.490758 238.794792 
L 159.196358 244.170074 
L 166.328357 248.435175 
L 173.032438 250.975419 
L 182.446678 252.937052 
L 190.862437 253.899209 
L 201.631757 254.499459 
L 217.892718 254.818558 
L 241.713597 254.906526 
L 320.094277 254.864399 
L 470.793437 254.863007 
L 470.793437 254.863007 
" clip-path="url(#p17a12925f7)" style="fill: none; stroke: #d62728; stroke-width: 1.5; stroke-linecap: square"/>
   </g>
   <g id="line2d_35">
    <path d="M 42.873438 254.864188 
L 78.533438 254.864188 
L 114.264758 35.336916 
L 470.793437 35.336916 
L 470.793437 35.336916 
" clip-path="url(#p17a12925f7)" style="fill: none; stroke-dasharray: 5.18,2.24; stroke-dashoffset: 0; stroke: #9467bd; stroke-width: 1.4"/>
   </g>
   <g id="line2d_36">
    <path d="M 96.363438 264.2725 
L 96.363438 22.7925 
" clip-path="url(#p17a12925f7)" style="fill: none; stroke-dasharray: 1,1.65; stroke-dashoffset: 0; stroke: #737373"/>
   </g>
   <g id="line2d_37">
    <path d="M 101.865266 264.2725 
L 101.865266 22.7925 
" clip-path="url(#p17a12925f7)" style="fill: none; stroke-dasharray: 1,1.65; stroke-dashoffset: 0; stroke: #737373"/>
   </g>
   <g id="line2d_38">
    <path d="M 42.873438 145.100552 
L 488.623437 145.100552 
" clip-path="url(#p17a12925f7)" style="fill: none; stroke-dasharray: 3.33,1.44; stroke-dashoffset: 0; stroke: #595959; stroke-width: 0.9"/>
   </g>
   <g id="line2d_39">
    <defs>
     <path id="m13c1f14cbb" d="M 0 2.5 
C 0.663008 2.5 1.29895 2.236584 1.767767 1.767767 
C 2.236584 1.29895 2.5 0.663008 2.5 0 
C 2.5 -0.663008 2.236584 -1.29895 1.767767 -1.767767 
C 1.29895 -2.236584 0.663008 -2.5 0 -2.5 
C -0.663008 -2.5 -1.29895 -2.236584 -1.767767 -1.767767 
C -2.236584 -1.29895 -2.5 -0.663008 -2.5 0 
C -2.5 0.663008 -2.236584 1.29895 -1.767767 1.767767 
C -1.29895 2.236584 -0.663008 2.5 0 2.5 
z
" style="stroke: #d62728"/>
    </defs>
    <g clip-path="url(#p17a12925f7)">
     <use xlink:href="#m13c1f14cbb" x="115.548518" y="209.32796" style="fill: #d62728; stroke: #d62728"/>
    </g>
   </g>
   <g id="patch_3">
    <path d="M 42.873438 264.2725 
L 42.873438 22.7925 
" style="fill: none; stroke: #000000; stroke-width: 0.8; stroke-linejoin: miter; stroke-linecap: square"/>
   </g>
   <g id="patch_4">
    <path d="M 488.623437 264.2725 
L 488.623437 22.7925 
" style="fill: none; stroke: #000000; stroke-width: 0.8; stroke-linejoin: miter; stroke-linecap: square"/>
   </g>
   <g id="patch_5">
    <path d="M 42.873438 264.2725 
L 488.623437 264.2725 
" style="fill: none; stroke: #000000; stroke-width: 0.8; stroke-linejoin: miter; stroke-linecap: square"/>
   </g>
   <g id="patch_6">
    <path d="M 42.873438 22.7925 
L 488.623437 22.7925 
" style="fill: none; stroke: #000000; stroke-width: 0.8; stroke-linejoin: miter; stroke-linecap: square"/>
   </g>
   <g id="patch_7">
    <path d="M 155.123098 200.202899 
Q 136.30923 204.540979 118.475866 208.652975 
" style="fill: none; stroke: #d62728; stroke-width: 0.9; stroke-linecap: round"/>
    <path d="M 122.38825 209.598092 
L 118.475866 208.652975 
L 121.57939 206.090138 
" style="fill: none; stroke: #d62728; stroke-width: 0.9; stroke-linecap: round"/>
   </g>
   <g id="text_18">
    <g id="patch_8">
     <path d="M 135.161518 199.252836 
L 239.842767 199.252836 
Q 241.642767 199.252836 241.642767 197.452836 
L 241.642767 188.021117 
Q 241.642767 186.221117 239.842767 186.221117 
L 135.161518 186.221117 
Q 133.361517 186.221117 133.361517 188.021117 
L 133.361517 197.452836 
Q 133.361517 199.252836 135.161518 199.252836 
z
" style="fill: #ffffff; opacity: 0.95; stroke: #bfbfbf; stroke-linejoin: miter"/>
    </g>
    <text style="font-size: 9px; font-family: 'Microsoft YaHei'; text-anchor: start; fill: #d62728" x="135.161518" y="195.215492" transform="rotate(-0 135.161518 195.215492)">read disturb = 145.2 mV</text>
   </g>
   <g id="text_19">
    <g id="patch_9">
     <path d="M 292.493438 244.663875 
L 402.02625 244.663875 
Q 404.27625 244.663875 404.27625 242.413875 
L 404.27625 222.0075 
Q 404.27625 219.7575 402.02625 219.7575 
L 292.493438 219.7575 
Q 290.243438 219.7575 290.243438 222.0075 
L 290.243438 242.413875 
Q 290.243438 244.663875 292.493438 244.663875 
z
" style="fill: #ffffff; opacity: 0.95; stroke: #b2b2b2; stroke-linejoin: miter"/>
    </g>
    <text style="font-size: 9px; font-family: 'Microsoft YaHei'" transform="translate(292.493438 229.201875)">read delay = 15.4 ps</text>
    <text style="font-size: 9px; font-family: 'Microsoft YaHei'" transform="translate(292.493438 240.1245)">margin proxy = 204.8 mV</text>
   </g>
   <g id="text_20">
    <text style="font-size: 12px; font-family: 'Microsoft YaHei'; text-anchor: middle" x="265.748437" y="16.7925" transform="rotate(-0 265.748437 16.7925)">RC read transient</text>
   </g>
   <g id="legend_1">
    <g id="patch_10">
     <path d="M 396.877187 175.691875 
L 483.023437 175.691875 
Q 484.623437 175.691875 484.623437 174.091875 
L 484.623437 112.973125 
Q 484.623437 111.373125 483.023437 111.373125 
L 396.877187 111.373125 
Q 395.277187 111.373125 395.277187 112.973125 
L 395.277187 174.091875 
Q 395.277187 175.691875 396.877187 175.691875 
z
" style="fill: #ffffff; opacity: 0.8; stroke: #cccccc; stroke-linejoin: miter"/>
    </g>
    <g id="line2d_40">
     <path d="M 398.477187 118.168125 
L 406.477187 118.168125 
L 414.477187 118.168125 
" style="fill: none; stroke: #1f77b4; stroke-width: 1.9; stroke-linecap: square"/>
    </g>
    <g id="text_21">
     <text style="font-size: 8px; font-family: 'Microsoft YaHei'; text-anchor: start" x="420.877187" y="120.968125" transform="rotate(-0 420.877187 120.968125)">Q</text>
    </g>
    <g id="line2d_41">
     <path d="M 398.477187 130.551875 
L 406.477187 130.551875 
L 414.477187 130.551875 
" style="fill: none; stroke: #ff7f0e; stroke-width: 1.9; stroke-linecap: square"/>
    </g>
    <g id="text_22">
     <text style="font-size: 8px; font-family: 'Microsoft YaHei'; text-anchor: start" x="420.877187" y="133.351875" transform="rotate(-0 420.877187 133.351875)">QB (stored-low)</text>
    </g>
    <g id="line2d_42">
     <path d="M 398.477187 142.935625 
L 406.477187 142.935625 
L 414.477187 142.935625 
" style="fill: none; stroke: #2ca02c; stroke-width: 1.5; stroke-linecap: square"/>
    </g>
    <g id="text_23">
     <text style="font-size: 8px; font-family: 'Microsoft YaHei'; text-anchor: start" x="420.877187" y="145.735625" transform="rotate(-0 420.877187 145.735625)">BL</text>
    </g>
    <g id="line2d_43">
     <path d="M 398.477187 155.319375 
L 406.477187 155.319375 
L 414.477187 155.319375 
" style="fill: none; stroke: #d62728; stroke-width: 1.5; stroke-linecap: square"/>
    </g>
    <g id="text_24">
     <text style="font-size: 8px; font-family: 'Microsoft YaHei'; text-anchor: start" x="420.877187" y="158.119375" transform="rotate(-0 420.877187 158.119375)">BLB</text>
    </g>
    <g id="line2d_44">
     <path d="M 398.477187 167.703125 
L 406.477187 167.703125 
L 414.477187 167.703125 
" style="fill: none; stroke-dasharray: 5.18,2.24; stroke-dashoffset: 0; stroke: #9467bd; stroke-width: 1.4"/>
    </g>
    <g id="text_25">
     <text style="font-size: 8px; font-family: 'Microsoft YaHei'; text-anchor: start" x="420.877187" y="170.503125" transform="rotate(-0 420.877187 170.503125)">WL</text>
    </g>
   </g>
  </g>
 </g>
 <defs>
  <clipPath id="p17a12925f7">
   <rect x="42.873438" y="22.7925" width="445.75" height="241.48"/>
  </clipPath>
 </defs>
</svg>
