<?xml version="1.0" encoding="utf-8" standalone="no"?>
<!DOCTYPE svg PUBLIC "-//W3C//DTD SVG 1.1//EN"
  "http://www.w3.org/Graphics/SVG/1.1/DTD/svg11.dtd">
<svg xmlns:xlink="http://www.w3.org/1999/xlink" width="509.0775pt" height="307.1725pt" viewBox="0 0 509.0775 307.1725" xmlns="http://www.w3.org/2000/svg" version="1.1">
 <metadata>
  <rdf:RDF xmlns:dc="http://purl.org/dc/elements/1.1/" xmlns:cc="http://creativecommons.org/ns#" xmlns:rdf="http://www.w3.org/1999/02/22-rdf-syntax-ns#">
   <cc:Work>
    <dc:type rdf:resource="http://purl.org/dc/dcmitype/StillImage"/>
    <dc:date>2026-07-14T09:43:52.927153</dc:date>
    <dc:format>image/svg+xml</dc:format>
    <dc:creator>
     <cc:Agent>
      <dc:title>Matplotlib v3.10.8, https://matplotlib.org/</dc:title>
     </cc:Agent>
    </dc:creator>
   </cc:Work>
  </rdf:RDF>
 </metadata>
 <defs>
  <style type="text/css">*{stroke-linejoin: round; stroke-linecap: butt}</style>
 </defs>
 <g id="figure_1">
  <g id="patch_1">
   <path d="M 0 307.1725 
L 509.0775 307.1725 
L 509.0775 0 
L 0 0 
z
" style="fill: #ffffff"/>
  </g>
  <g id="axes_1">
   <g id="patch_2">
    <path d="M 46.271875 268.013125 
L 466.261875 268.013125 
L 466.261875 22.933125 
L 46.271875 22.933125 
z
" style="fill: #ffffff"/>
   </g>
   <g id="matplotlib.axis_1">
    <g id="xtick_1">
     <g id="line2d_1">
      <path d="M 92.789755 268.013125 
L 92.789755 22.933125 
" clip-path="url(#p381fff44e1)" style="fill: none; stroke: #b0b0b0; stroke-opacity: 0.28; stroke-width: 0.8; stroke-linecap: square"/>
     </g>
     <g id="line2d_2">
      <defs>
       <path id="m893c89374f" d="M 0 0 
L 0 3.5 
" style="stroke: #000000; stroke-width: 0.8"/>
      </defs>
      <g>
       <use xlink:href="#m893c89374f" x="92.789755" y="268.013125" style="stroke: #000000; stroke-width: 0.8"/>
      </g>
     </g>
     <g id="text_1">
      <text style="font-size: 10px; font-family: 'Microsoft YaHei'; text-anchor: middle" x="92.789755" y="283.006875" transform="rotate(-0 92.789755 283.006875)">120</text>
     </g>
    </g>
    <g id="xtick_2">
     <g id="line2d_3">
      <path d="M 154.813594 268.013125 
L 154.813594 22.933125 
" clip-path="url(#p381fff44e1)" style="fill: none; stroke: #b0b0b0; stroke-opacity: 0.28; stroke-width: 0.8; stroke-linecap: square"/>
     </g>
     <g id="line2d_4">
      <g>
       <use xlink:href="#m893c89374f" x="154.813594" y="268.013125" style="stroke: #000000; stroke-width: 0.8"/>
      </g>
     </g>
     <g id="text_2">
      <text style="font-size: 10px; font-family: 'Microsoft YaHei'; text-anchor: middle" x="154.813594" y="283.006875" transform="rotate(-0 154.813594 283.006875)">140</text>
     </g>
    </g>
    <g id="xtick_3">
     <g id="line2d_5">
      <path d="M 216.837434 268.013125 
L 216.837434 22.933125 
" clip-path="url(#p381fff44e1)" style="fill: none; stroke: #b0b0b0; stroke-opacity: 0.28; stroke-width: 0.8; stroke-linecap: square"/>
     </g>
     <g id="line2d_6">
      <g>
       <use xlink:href="#m893c89374f" x="216.837434" y="268.013125" style="stroke: #000000; stroke-width: 0.8"/>
      </g>
     </g>
     <g id="text_3">
      <text style="font-size: 10px; font-family: 'Microsoft YaHei'; text-anchor: middle" x="216.837434" y="283.006875" transform="rotate(-0 216.837434 283.006875)">160</text>
     </g>
    </g>
    <g id="xtick_4">
     <g id="line2d_7">
      <path d="M 278.861274 268.013125 
L 278.861274 22.933125 
" clip-path="url(#p381fff44e1)" style="fill: none; stroke: #b0b0b0; stroke-opacity: 0.28; stroke-width: 0.8; stroke-linecap: square"/>
     </g>
     <g id="line2d_8">
      <g>
       <use xlink:href="#m893c89374f" x="278.861274" y="268.013125" style="stroke: #000000; stroke-width: 0.8"/>
      </g>
     </g>
     <g id="text_4">
      <text style="font-size: 10px; font-family: 'Microsoft YaHei'; text-anchor: middle" x="278.861274" y="283.006875" transform="rotate(-0 278.861274 283.006875)">180</text>
     </g>
    </g>
    <g id="xtick_5">
     <g id="line2d_9">
      <path d="M 340.885113 268.013125 
L 340.885113 22.933125 
" clip-path="url(#p381fff44e1)" style="fill: none; stroke: #b0b0b0; stroke-opacity: 0.28; stroke-width: 0.8; stroke-linecap: square"/>
     </g>
     <g id="line2d_10">
      <g>
       <use xlink:href="#m893c89374f" x="340.885113" y="268.013125" style="stroke: #000000; stroke-width: 0.8"/>
      </g>
     </g>
     <g id="text_5">
      <text style="font-size: 10px; font-family: 'Microsoft YaHei'; text-anchor: middle" x="340.885113" y="283.006875" transform="rotate(-0 340.885113 283.006875)">200</text>
     </g>
    </g>
    <g id="xtick_6">
     <g id="line2d_11">
      <path d="M 402.908953 268.013125 
L 402.908953 22.933125 
" clip-path="url(#p381fff44e1)" style="fill: none; stroke: #b0b0b0; stroke-opacity: 0.28; stroke-width: 0.8; stroke-linecap: square"/>
     </g>
     <g id="line2d_12">
      <g>
       <use xlink:href="#m893c89374f" x="402.908953" y="268.013125" style="stroke: #000000; stroke-width: 0.8"/>
      </g>
     </g>
     <g id="text_6">
      <text style="font-size: 10px; font-family: 'Microsoft YaHei'; text-anchor: middle" x="402.908953" y="283.006875" transform="rotate(-0 402.908953 283.006875)">220</text>
     </g>
    </g>
    <g id="xtick_7">
     <g id="line2d_13">
      <path d="M 464.932793 268.013125 
L 464.932793 22.933125 
" clip-path="url(#p381fff44e1)" style="fill: none; stroke: #b0b0b0; stroke-opacity: 0.28; stroke-width: 0.8; stroke-linecap: square"/>
     </g>
     <g id="line2d_14">
      <g>
       <use xlink:href="#m893c89374f" x="464.932793" y="268.013125" style="stroke: #000000; stroke-width: 0.8"/>
      </g>
     </g>
     <g id="text_7">
      <text style="font-size: 10px; font-family: 'Microsoft YaHei'; text-anchor: middle" x="464.932793" y="283.006875" transform="rotate(-0 464.932793 283.006875)">240</text>
     </g>
    </g>
    <g id="text_8">
     <text style="font-size: 10px; font-family: 'Microsoft YaHei'; text-anchor: middle" x="256.266875" y="297.486562" transform="rotate(-0 256.266875 297.486562)">time (ps)</text>
    </g>
   </g>
   <g id="matplotlib.axis_2">
    <g id="ytick_1">
     <g id="line2d_15">
      <path d="M 46.271875 265.689343 
L 466.261875 265.689343 
" clip-path="url(#p381fff44e1)" style="fill: none; stroke: #b0b0b0; stroke-opacity: 0.28; stroke-width: 0.8; stroke-linecap: square"/>
     </g>
     <g id="line2d_16">
      <defs>
       <path id="m8a1a8b8df3" d="M 0 0 
L -3.5 0 
" style="stroke: #000000; stroke-width: 0.8"/>
      </defs>
      <g>
       <use xlink:href="#m8a1a8b8df3" x="46.271875" y="265.689343" style="stroke: #000000; stroke-width: 0.8"/>
      </g>
     </g>
     <g id="text_9">
      <text style="font-size: 10px; font-family: 'Microsoft YaHei'; text-anchor: end" x="39.271875" y="269.686218" transform="rotate(-0 39.271875 269.686218)">0</text>
     </g>
    </g>
    <g id="ytick_2">
     <g id="line2d_17">
      <path d="M 46.271875 219.213701 
L 466.261875 219.213701 
" clip-path="url(#p381fff44e1)" style="fill: none; stroke: #b0b0b0; stroke-opacity: 0.28; stroke-width: 0.8; stroke-linecap: square"/>
     </g>
     <g id="line2d_18">
      <g>
       <use xlink:href="#m8a1a8b8df3" x="46.271875" y="219.213701" style="stroke: #000000; stroke-width: 0.8"/>
      </g>
     </g>
     <g id="text_10">
      <text style="font-size: 10px; font-family: 'Microsoft YaHei'; text-anchor: end" x="39.271875" y="223.210576" transform="rotate(-0 39.271875 223.210576)">100</text>
     </g>
    </g>
    <g id="ytick_3">
     <g id="line2d_19">
      <path d="M 46.271875 172.73806 
L 466.261875 172.73806 
" clip-path="url(#p381fff44e1)" style="fill: none; stroke: #b0b0b0; stroke-opacity: 0.28; stroke-width: 0.8; stroke-linecap: square"/>
     </g>
     <g id="line2d_20">
      <g>
       <use xlink:href="#m8a1a8b8df3" x="46.271875" y="172.73806" style="stroke: #000000; stroke-width: 0.8"/>
      </g>
     </g>
     <g id="text_11">
      <text style="font-size: 10px; font-family: 'Microsoft YaHei'; text-anchor: end" x="39.271875" y="176.734935" transform="rotate(-0 39.271875 176.734935)">200</text>
     </g>
    </g>
    <g id="ytick_4">
     <g id="line2d_21">
      <path d="M 46.271875 126.262419 
L 466.261875 126.262419 
" clip-path="url(#p381fff44e1)" style="fill: none; stroke: #b0b0b0; stroke-opacity: 0.28; stroke-width: 0.8; stroke-linecap: square"/>
     </g>
     <g id="line2d_22">
      <g>
       <use xlink:href="#m8a1a8b8df3" x="46.271875" y="126.262419" style="stroke: #000000; stroke-width: 0.8"/>
      </g>
     </g>
     <g id="text_12">
      <text style="font-size: 10px; font-family: 'Microsoft YaHei'; text-anchor: end" x="39.271875" y="130.259294" transform="rotate(-0 39.271875 130.259294)">300</text>
     </g>
    </g>
    <g id="ytick_5">
     <g id="line2d_23">
      <path d="M 46.271875 79.786777 
L 466.261875 79.786777 
" clip-path="url(#p381fff44e1)" style="fill: none; stroke: #b0b0b0; stroke-opacity: 0.28; stroke-width: 0.8; stroke-linecap: square"/>
     </g>
     <g id="line2d_24">
      <g>
       <use xlink:href="#m8a1a8b8df3" x="46.271875" y="79.786777" style="stroke: #000000; stroke-width: 0.8"/>
      </g>
     </g>
     <g id="text_13">
      <text style="font-size: 10px; font-family: 'Microsoft YaHei'; text-anchor: end" x="39.271875" y="83.783652" transform="rotate(-0 39.271875 83.783652)">400</text>
     </g>
    </g>
    <g id="ytick_6">
     <g id="line2d_25">
      <path d="M 46.271875 33.311136 
L 466.261875 33.311136 
" clip-path="url(#p381fff44e1)" style="fill: none; stroke: #b0b0b0; stroke-opacity: 0.28; stroke-width: 0.8; stroke-linecap: square"/>
     </g>
     <g id="line2d_26">
      <g>
       <use xlink:href="#m8a1a8b8df3" x="46.271875" y="33.311136" style="stroke: #000000; stroke-width: 0.8"/>
      </g>
     </g>
     <g id="text_14">
      <text style="font-size: 10px; font-family: 'Microsoft YaHei'; text-anchor: end" x="39.271875" y="37.308011" transform="rotate(-0 39.271875 37.308011)">500</text>
     </g>
    </g>
    <g id="text_15">
     <text style="font-size: 10px; font-family: 'Microsoft YaHei'; text-anchor: middle" x="15.19375" y="145.473125" transform="rotate(-90 15.19375 145.473125)">BL - BLB (mV)</text>
    </g>
   </g>
   <g id="line2d_27">
    <path d="M 45.651637 265.642867 
L 88.448086 265.549916 
L 92.169516 265.364013 
L 95.270708 265.271062 
L 97.751662 265.178111 
L 100.232616 265.08516 
L 103.954046 264.899257 
L 107.675476 264.806306 
L 112.017145 264.573928 
L 115.738575 264.480976 
L 119.460006 264.295074 
L 122.561198 264.202122 
L 125.66239 264.062695 
L 128.143343 263.969744 
L 131.244535 263.830317 
L 134.965966 263.737366 
L 139.307634 263.504988 
L 143.029065 263.412036 
L 147.370734 263.179658 
L 151.092164 263.086707 
L 154.813594 262.714902 
L 183.344561 258.346192 
L 185.205276 258.020862 
L 188.926706 257.416679 
L 201.331474 253.605676 
L 203.192189 253.001493 
L 219.938626 247.889172 
L 221.799341 247.284989 
L 228.001725 245.333012 
L 234.204109 242.172668 
L 236.685063 240.964302 
L 242.887447 237.803958 
L 245.3684 236.595591 
L 251.570784 233.435248 
L 254.051738 232.226881 
L 259.633883 229.391867 
L 262.114837 228.1835 
L 265.216029 226.556853 
L 267.076744 225.162584 
L 270.798175 222.466996 
L 273.279128 220.700922 
L 278.861274 216.611066 
L 281.342227 214.844991 
L 286.924373 210.755135 
L 289.405326 208.98906 
L 294.987472 204.899204 
L 297.468426 203.13313 
L 301.189856 200.437542 
L 302.430333 199.50803 
L 306.151763 196.812442 
L 308.012478 195.511124 
L 314.214862 189.79462 
L 317.316054 186.913131 
L 323.518438 181.196627 
L 326.61963 178.315137 
L 332.822014 172.598633 
L 335.923206 169.717143 
L 340.885113 165.116055 
L 349.568451 156.518061 
L 352.049405 154.054852 
L 370.656556 136.068779 
L 374.377987 132.583106 
L 380.580371 126.680699 
L 384.301801 123.195026 
L 389.263708 118.500986 
L 405.389907 103.861159 
L 407.87086 101.583853 
L 414.073244 96.146203 
L 423.37682 88.338295 
L 426.478012 85.689184 
L 436.401826 77.370044 
L 439.503018 74.720932 
L 448.806594 67.191878 
L 453.148263 64.031535 
L 455.629217 62.26546 
L 460.591124 58.64036 
L 463.072078 56.874286 
L 466.793508 54.178699 
L 466.793508 54.178699 
" clip-path="url(#p381fff44e1)" style="fill: none; stroke: #1f77b4; stroke-width: 2.2; stroke-linecap: square"/>
   </g>
   <g id="line2d_28">
    <path d="M 46.271875 242.451522 
L 466.261875 242.451522 
" clip-path="url(#p381fff44e1)" style="fill: none; stroke-dasharray: 4.44,1.92; stroke-dashoffset: 0; stroke: #404040; stroke-width: 1.2"/>
   </g>
   <g id="line2d_29">
    <path d="M 185.825514 268.013125 
L 185.825514 22.933125 
" clip-path="url(#p381fff44e1)" style="fill: none; stroke-dasharray: 1.6,2.64; stroke-dashoffset: 0; stroke: #2ca02c; stroke-width: 1.6"/>
   </g>
   <g id="line2d_30">
    <path d="M 233.672476 268.013125 
L 233.672476 22.933125 
" clip-path="url(#p381fff44e1)" style="fill: none; stroke-dasharray: 1.6,2.64; stroke-dashoffset: 0; stroke: #d62728; stroke-width: 1.6"/>
   </g>
   <g id="line2d_31">
    <defs>
     <path id="m618d5a3624" d="M 0 2.5 
C 0.663008 2.5 1.29895 2.236584 1.767767 1.767767 
C 2.236584 1.29895 2.5 0.663008 2.5 0 
C 2.5 -0.663008 2.236584 -1.29895 1.767767 -1.767767 
C 1.29895 -2.236584 0.663008 -2.5 0 -2.5 
C -0.663008 -2.5 -1.29895 -2.236584 -1.767767 -1.767767 
C -2.236584 -1.29895 -2.5 -0.663008 -2.5 0 
C -2.5 0.663008 -2.236584 1.29895 -1.767767 1.767767 
C -1.29895 2.236584 -0.663008 2.5 0 2.5 
z
" style="stroke: #d62728"/>
    </defs>
    <g clip-path="url(#p381fff44e1)">
     <use xlink:href="#m618d5a3624" x="233.672476" y="242.451522" style="fill: #d62728; stroke: #d62728"/>
    </g>
   </g>
   <g id="patch_3">
    <path d="M 46.271875 268.013125 
L 46.271875 22.933125 
" style="fill: none; stroke: #000000; stroke-width: 0.8; stroke-linejoin: miter; stroke-linecap: square"/>
   </g>
   <g id="patch_4">
    <path d="M 466.261875 268.013125 
L 466.261875 22.933125 
" style="fill: none; stroke: #000000; stroke-width: 0.8; stroke-linejoin: miter; stroke-linecap: square"/>
   </g>
   <g id="patch_5">
    <path d="M 46.271875 268.013125 
L 466.261875 268.013125 
" style="fill: none; stroke: #000000; stroke-width: 0.8; stroke-linejoin: miter; stroke-linecap: square"/>
   </g>
   <g id="patch_6">
    <path d="M 46.271875 22.933125 
L 466.261875 22.933125 
" style="fill: none; stroke: #000000; stroke-width: 0.8; stroke-linejoin: miter; stroke-linecap: square"/>
   </g>
   <g id="patch_7">
    <path d="M 234.566561 234.084513 
Q 223.687239 237.752374 212.807917 241.420236 
" style="fill: none; stroke: #333333; stroke-width: 1.1; stroke-linecap: round"/>
    <path d="M 230.137233 233.467214 
L 234.566561 234.084513 
L 231.415125 237.257595 
" style="fill: none; stroke: #333333; stroke-width: 1.1; stroke-linecap: round"/>
    <path d="M 217.237244 242.037535 
L 212.807917 241.420236 
L 215.959352 238.247153 
" style="fill: none; stroke: #333333; stroke-width: 1.1; stroke-linecap: round"/>
   </g>
   <g id="text_16">
    <text style="font-size: 10px; font-family: 'Microsoft YaHei'; text-anchor: start" x="210.63505" y="228.50883" transform="rotate(-0 210.63505 228.50883)">read delay = 15.4 ps</text>
   </g>
   <g id="patch_8">
    <path d="M 153.496695 256.769098 
Q 168.696212 260.962985 182.925746 264.889232 
" style="fill: none; stroke: #2ca02c; stroke-width: 0.9; stroke-linecap: round"/>
    <path d="M 179.934196 262.196533 
L 182.925746 264.889232 
L 178.976657 265.666853 
" style="fill: none; stroke: #2ca02c; stroke-width: 0.9; stroke-linecap: round"/>
   </g>
   <g id="text_17">
    <text style="font-size: 9px; font-family: 'Microsoft YaHei'; text-anchor: start; fill: #2ca02c" x="130.004059" y="255.464702" transform="rotate(-0 130.004059 255.464702)">start</text>
   </g>
   <g id="patch_9">
    <path d="M 254.503929 239.367335 
Q 245.078663 240.762786 236.648777 242.010868 
" style="fill: none; stroke: #d62728; stroke-width: 0.9; stroke-linecap: round"/>
    <path d="M 240.473582 243.26421 
L 236.648777 242.010868 
L 239.946334 239.703029 
" style="fill: none; stroke: #d62728; stroke-width: 0.9; stroke-linecap: round"/>
   </g>
   <g id="text_18">
    <text style="font-size: 9px; font-family: 'Microsoft YaHei'; text-anchor: start; fill: #d62728" x="258.482012" y="236.874445" transform="rotate(-0 258.482012 236.874445)">readout point</text>
   </g>
   <g id="text_19">
    <text style="font-size: 12px; font-family: 'Microsoft YaHei'; text-anchor: middle" x="256.266875" y="16.933125" transform="rotate(-0 256.266875 16.933125)">RC read delay extraction from HSPICE waveform</text>
   </g>
   <g id="legend_1">
    <g id="patch_10">
     <path d="M 51.871875 91.251875 
L 168.423125 91.251875 
Q 170.023125 91.251875 170.023125 89.651875 
L 170.023125 28.533125 
Q 170.023125 26.933125 168.423125 26.933125 
L 51.871875 26.933125 
Q 50.271875 26.933125 50.271875 28.533125 
L 50.271875 89.651875 
Q 50.271875 91.251875 51.871875 91.251875 
z
" style="fill: #ffffff; opacity: 0.8; stroke: #cccccc; stroke-linejoin: miter"/>
    </g>
    <g id="line2d_32">
     <path d="M 53.471875 33.728125 
L 61.471875 33.728125 
L 69.471875 33.728125 
" style="fill: none; stroke: #1f77b4; stroke-width: 2.2; stroke-linecap: square"/>
    </g>
    <g id="text_20">
     <text style="font-size: 8px; font-family: 'Microsoft YaHei'; text-anchor: start" x="75.871875" y="36.528125" transform="rotate(-0 75.871875 36.528125)">BL - BLB</text>
    </g>
    <g id="line2d_33">
     <path d="M 53.471875 46.111875 
L 61.471875 46.111875 
L 69.471875 46.111875 
" style="fill: none; stroke-dasharray: 4.44,1.92; stroke-dashoffset: 0; stroke: #404040; stroke-width: 1.2"/>
    </g>
    <g id="text_21">
     <text style="font-size: 8px; font-family: 'Microsoft YaHei'; text-anchor: start" x="75.871875" y="48.911875" transform="rotate(-0 75.871875 48.911875)">sense criterion = 50 mV</text>
    </g>
    <g id="line2d_34">
     <path d="M 53.471875 58.495625 
L 61.471875 58.495625 
L 69.471875 58.495625 
" style="fill: none; stroke-dasharray: 1.6,2.64; stroke-dashoffset: 0; stroke: #2ca02c; stroke-width: 1.6"/>
    </g>
    <g id="text_22">
     <text style="font-size: 8px; font-family: 'Microsoft YaHei'; text-anchor: start" x="75.871875" y="61.295625" transform="rotate(-0 75.871875 61.295625)">WL = 0.5VDD</text>
    </g>
    <g id="line2d_35">
     <path d="M 53.471875 70.879375 
L 61.471875 70.879375 
L 69.471875 70.879375 
" style="fill: none; stroke-dasharray: 1.6,2.64; stroke-dashoffset: 0; stroke: #d62728; stroke-width: 1.6"/>
    </g>
    <g id="text_23">
     <text style="font-size: 8px; font-family: 'Microsoft YaHei'; text-anchor: start" x="75.871875" y="73.679375" transform="rotate(-0 75.871875 73.679375)">BL-BLB = 50 mV</text>
    </g>
    <g id="line2d_36">
     <path d="M 53.471875 83.263125 
L 61.471875 83.263125 
L 69.471875 83.263125 
" style="fill: none; stroke: #2ca02c; stroke-opacity: 0.75; stroke-width: 1.3; stroke-linecap: square"/>
    </g>
    <g id="text_24">
     <text style="font-size: 8px; font-family: 'Microsoft YaHei'; text-anchor: start" x="75.871875" y="86.063125" transform="rotate(-0 75.871875 86.063125)">WL / VDD</text>
    </g>
   </g>
  </g>
  <g id="axes_2">
   <g id="matplotlib.axis_3">
    <g id="ytick_7">
     <g id="line2d_37">
      <defs>
       <path id="m5a844475af" d="M 0 0 
L 3.5 0 
" style="stroke: #000000; stroke-width: 0.8"/>
      </defs>
      <g>
       <use xlink:href="#m5a844475af" x="466.261875" y="257.168877" style="stroke: #000000; stroke-width: 0.8"/>
      </g>
     </g>
     <g id="text_25">
      <text style="font-size: 10px; font-family: 'Microsoft YaHei'; text-anchor: start" x="473.261875" y="261.165752" transform="rotate(-0 473.261875 261.165752)">0.0</text>
     </g>
    </g>
    <g id="ytick_8">
     <g id="line2d_38">
      <g>
       <use xlink:href="#m5a844475af" x="466.261875" y="213.791886" style="stroke: #000000; stroke-width: 0.8"/>
      </g>
     </g>
     <g id="text_26">
      <text style="font-size: 10px; font-family: 'Microsoft YaHei'; text-anchor: start" x="473.261875" y="217.788761" transform="rotate(-0 473.261875 217.788761)">0.2</text>
     </g>
    </g>
    <g id="ytick_9">
     <g id="line2d_39">
      <g>
       <use xlink:href="#m5a844475af" x="466.261875" y="170.414895" style="stroke: #000000; stroke-width: 0.8"/>
      </g>
     </g>
     <g id="text_27">
      <text style="font-size: 10px; font-family: 'Microsoft YaHei'; text-anchor: start" x="473.261875" y="174.41177" transform="rotate(-0 473.261875 174.41177)">0.4</text>
     </g>
    </g>
    <g id="ytick_10">
     <g id="line2d_40">
      <g>
       <use xlink:href="#m5a844475af" x="466.261875" y="127.037904" style="stroke: #000000; stroke-width: 0.8"/>
      </g>
     </g>
     <g id="text_28">
      <text style="font-size: 10px; font-family: 'Microsoft YaHei'; text-anchor: start" x="473.261875" y="131.034779" transform="rotate(-0 473.261875 131.034779)">0.6</text>
     </g>
    </g>
    <g id="ytick_11">
     <g id="line2d_41">
      <g>
       <use xlink:href="#m5a844475af" x="466.261875" y="83.660913" style="stroke: #000000; stroke-width: 0.8"/>
      </g>
     </g>
     <g id="text_29">
      <text style="font-size: 10px; font-family: 'Microsoft YaHei'; text-anchor: start" x="473.261875" y="87.657788" transform="rotate(-0 473.261875 87.657788)">0.8</text>
     </g>
    </g>
    <g id="ytick_12">
     <g id="line2d_42">
      <g>
       <use xlink:href="#m5a844475af" x="466.261875" y="40.283921" style="stroke: #000000; stroke-width: 0.8"/>
      </g>
     </g>
     <g id="text_30">
      <text style="font-size: 10px; font-family: 'Microsoft YaHei'; text-anchor: start" x="473.261875" y="44.280796" transform="rotate(-0 473.261875 44.280796)">1.0</text>
     </g>
    </g>
    <g id="text_31">
     <text style="font-size: 10px; font-family: 'Microsoft YaHei'; text-anchor: middle" x="499.391562" y="145.473125" transform="rotate(-90 499.391562 145.473125)">WL / VDD</text>
    </g>
   </g>
   <g id="line2d_43">
    <path d="M 45.651637 246.758399 
L 340.885113 40.283921 
L 466.793508 40.283921 
L 466.793508 40.283921 
" clip-path="url(#p381fff44e1)" style="fill: none; stroke: #2ca02c; stroke-opacity: 0.75; stroke-width: 1.3; stroke-linecap: square"/>
   </g>
   <g id="line2d_44">
    <path d="M 46.271875 148.726399 
L 466.261875 148.726399 
" clip-path="url(#p381fff44e1)" style="fill: none; stroke-dasharray: 2.96,1.28; stroke-dashoffset: 0; stroke: #2ca02c; stroke-opacity: 0.45; stroke-width: 0.8"/>
   </g>
   <g id="patch_11">
    <path d="M 46.271875 268.013125 
L 46.271875 22.933125 
" style="fill: none; stroke: #000000; stroke-width: 0.8; stroke-linejoin: miter; stroke-linecap: square"/>
   </g>
   <g id="patch_12">
    <path d="M 466.261875 268.013125 
L 466.261875 22.933125 
" style="fill: none; stroke: #000000; stroke-width: 0.8; stroke-linejoin: miter; stroke-linecap: square"/>
   </g>
   <g id="patch_13">
    <path d="M 46.271875 268.013125 
L 466.261875 268.013125 
" style="fill: none; stroke: #000000; stroke-width: 0.8; stroke-linejoin: miter; stroke-linecap: square"/>
   </g>
   <g id="patch_14">
    <path d="M 46.271875 22.933125 
L 466.261875 22.933125 
" style="fill: none; stroke: #000000; stroke-width: 0.8; stroke-linejoin: miter; stroke-linecap: square"/>
   </g>
  </g>
 </g>
 <defs>
  <clipPath id="p381fff44e1">
   <rect x="46.271875" y="22.933125" width="419.99" height="245.08"/>
  </clipPath>
 </defs>
</svg>
