<?xml version="1.0" encoding="utf-8" standalone="no"?>
<!DOCTYPE svg PUBLIC "-//W3C//DTD SVG 1.1//EN"
  "http://www.w3.org/Graphics/SVG/1.1/DTD/svg11.dtd">
<svg xmlns:xlink="http://www.w3.org/1999/xlink" width="495.826406pt" height="303.431875pt" viewBox="0 0 495.826406 303.431875" xmlns="http://www.w3.org/2000/svg" version="1.1">
 <metadata>
  <rdf:RDF xmlns:dc="http://purl.org/dc/elements/1.1/" xmlns:cc="http://creativecommons.org/ns#" xmlns:rdf="http://www.w3.org/1999/02/22-rdf-syntax-ns#">
   <cc:Work>
    <dc:type rdf:resource="http://purl.org/dc/dcmitype/StillImage"/>
    <dc:date>2026-07-14T10:41:14.788521</dc:date>
    <dc:format>image/svg+xml</dc:format>
    <dc:creator>
     <cc:Agent>
      <dc:title>Matplotlib v3.10.8, https://matplotlib.org/</dc:title>
     </cc:Agent>
    </dc:creator>
   </cc:Work>
  </rdf:RDF>
 </metadata>
 <defs>
  <style type="text/css">*{stroke-linejoin: round; stroke-linecap: butt}</style>
 </defs>
 <g id="figure_1">
  <g id="patch_1">
   <path d="M 0 303.431875 
L 495.826406 303.431875 
L 495.826406 0 
L 0 0 
z
" style="fill: #ffffff"/>
  </g>
  <g id="axes_1">
   <g id="patch_2">
    <path d="M 42.873438 264.2725 
L 481.558437 264.2725 
L 481.558437 22.7925 
L 42.873438 22.7925 
z
" style="fill: #ffffff"/>
   </g>
   <g id="matplotlib.axis_1">
    <g id="xtick_1">
     <g id="line2d_1">
      <path d="M 42.873438 264.2725 
L 42.873438 22.7925 
" clip-path="url(#pcfbe4f49e2)" style="fill: none; stroke: #b0b0b0; stroke-opacity: 0.28; stroke-width: 0.8; stroke-linecap: square"/>
     </g>
     <g id="line2d_2">
      <defs>
       <path id="mb3713b263f" d="M 0 0 
L 0 3.5 
" style="stroke: #000000; stroke-width: 0.8"/>
      </defs>
      <g>
       <use xlink:href="#mb3713b263f" x="42.873438" y="264.2725" style="stroke: #000000; stroke-width: 0.8"/>
      </g>
     </g>
     <g id="text_1">
      <text style="font-size: 10px; font-family: 'Microsoft YaHei'; text-anchor: middle" x="42.873438" y="279.26625" transform="rotate(-0 42.873438 279.26625)">0.0</text>
     </g>
    </g>
    <g id="xtick_2">
     <g id="line2d_3">
      <path d="M 115.987604 264.2725 
L 115.987604 22.7925 
" clip-path="url(#pcfbe4f49e2)" style="fill: none; stroke: #b0b0b0; stroke-opacity: 0.28; stroke-width: 0.8; stroke-linecap: square"/>
     </g>
     <g id="line2d_4">
      <g>
       <use xlink:href="#mb3713b263f" x="115.987604" y="264.2725" style="stroke: #000000; stroke-width: 0.8"/>
      </g>
     </g>
     <g id="text_2">
      <text style="font-size: 10px; font-family: 'Microsoft YaHei'; text-anchor: middle" x="115.987604" y="279.26625" transform="rotate(-0 115.987604 279.26625)">0.2</text>
     </g>
    </g>
    <g id="xtick_3">
     <g id="line2d_5">
      <path d="M 189.101771 264.2725 
L 189.101771 22.7925 
" clip-path="url(#pcfbe4f49e2)" style="fill: none; stroke: #b0b0b0; stroke-opacity: 0.28; stroke-width: 0.8; stroke-linecap: square"/>
     </g>
     <g id="line2d_6">
      <g>
       <use xlink:href="#mb3713b263f" x="189.101771" y="264.2725" style="stroke: #000000; stroke-width: 0.8"/>
      </g>
     </g>
     <g id="text_3">
      <text style="font-size: 10px; font-family: 'Microsoft YaHei'; text-anchor: middle" x="189.101771" y="279.26625" transform="rotate(-0 189.101771 279.26625)">0.4</text>
     </g>
    </g>
    <g id="xtick_4">
     <g id="line2d_7">
      <path d="M 262.215937 264.2725 
L 262.215937 22.7925 
" clip-path="url(#pcfbe4f49e2)" style="fill: none; stroke: #b0b0b0; stroke-opacity: 0.28; stroke-width: 0.8; stroke-linecap: square"/>
     </g>
     <g id="line2d_8">
      <g>
       <use xlink:href="#mb3713b263f" x="262.215937" y="264.2725" style="stroke: #000000; stroke-width: 0.8"/>
      </g>
     </g>
     <g id="text_4">
      <text style="font-size: 10px; font-family: 'Microsoft YaHei'; text-anchor: middle" x="262.215937" y="279.26625" transform="rotate(-0 262.215937 279.26625)">0.6</text>
     </g>
    </g>
    <g id="xtick_5">
     <g id="line2d_9">
      <path d="M 335.330104 264.2725 
L 335.330104 22.7925 
" clip-path="url(#pcfbe4f49e2)" style="fill: none; stroke: #b0b0b0; stroke-opacity: 0.28; stroke-width: 0.8; stroke-linecap: square"/>
     </g>
     <g id="line2d_10">
      <g>
       <use xlink:href="#mb3713b263f" x="335.330104" y="264.2725" style="stroke: #000000; stroke-width: 0.8"/>
      </g>
     </g>
     <g id="text_5">
      <text style="font-size: 10px; font-family: 'Microsoft YaHei'; text-anchor: middle" x="335.330104" y="279.26625" transform="rotate(-0 335.330104 279.26625)">0.8</text>
     </g>
    </g>
    <g id="xtick_6">
     <g id="line2d_11">
      <path d="M 408.444271 264.2725 
L 408.444271 22.7925 
" clip-path="url(#pcfbe4f49e2)" style="fill: none; stroke: #b0b0b0; stroke-opacity: 0.28; stroke-width: 0.8; stroke-linecap: square"/>
     </g>
     <g id="line2d_12">
      <g>
       <use xlink:href="#mb3713b263f" x="408.444271" y="264.2725" style="stroke: #000000; stroke-width: 0.8"/>
      </g>
     </g>
     <g id="text_6">
      <text style="font-size: 10px; font-family: 'Microsoft YaHei'; text-anchor: middle" x="408.444271" y="279.26625" transform="rotate(-0 408.444271 279.26625)">1.0</text>
     </g>
    </g>
    <g id="xtick_7">
     <g id="line2d_13">
      <path d="M 481.558437 264.2725 
L 481.558437 22.7925 
" clip-path="url(#pcfbe4f49e2)" style="fill: none; stroke: #b0b0b0; stroke-opacity: 0.28; stroke-width: 0.8; stroke-linecap: square"/>
     </g>
     <g id="line2d_14">
      <g>
       <use xlink:href="#mb3713b263f" x="481.558437" y="264.2725" style="stroke: #000000; stroke-width: 0.8"/>
      </g>
     </g>
     <g id="text_7">
      <text style="font-size: 10px; font-family: 'Microsoft YaHei'; text-anchor: middle" x="481.558437" y="279.26625" transform="rotate(-0 481.558437 279.26625)">1.2</text>
     </g>
    </g>
    <g id="text_8">
     <text style="font-size: 10px; font-family: 'Microsoft YaHei'; text-anchor: middle" x="262.215937" y="293.745937" transform="rotate(-0 262.215937 293.745937)">Time (ns)</text>
    </g>
   </g>
   <g id="matplotlib.axis_2">
    <g id="ytick_1">
     <g id="line2d_15">
      <path d="M 42.873438 254.864188 
L 481.558437 254.864188 
" clip-path="url(#pcfbe4f49e2)" style="fill: none; stroke: #b0b0b0; stroke-opacity: 0.28; stroke-width: 0.8; stroke-linecap: square"/>
     </g>
     <g id="line2d_16">
      <defs>
       <path id="m3ce46217fc" d="M 0 0 
L -3.5 0 
" style="stroke: #000000; stroke-width: 0.8"/>
      </defs>
      <g>
       <use xlink:href="#m3ce46217fc" x="42.873438" y="254.864188" style="stroke: #000000; stroke-width: 0.8"/>
      </g>
     </g>
     <g id="text_9">
      <text style="font-size: 10px; font-family: 'Microsoft YaHei'; text-anchor: end" x="35.873438" y="258.861063" transform="rotate(-0 35.873438 258.861063)">0.0</text>
     </g>
    </g>
    <g id="ytick_2">
     <g id="line2d_17">
      <path d="M 42.873438 223.503149 
L 481.558437 223.503149 
" clip-path="url(#pcfbe4f49e2)" style="fill: none; stroke: #b0b0b0; stroke-opacity: 0.28; stroke-width: 0.8; stroke-linecap: square"/>
     </g>
     <g id="line2d_18">
      <g>
       <use xlink:href="#m3ce46217fc" x="42.873438" y="223.503149" style="stroke: #000000; stroke-width: 0.8"/>
      </g>
     </g>
     <g id="text_10">
      <text style="font-size: 10px; font-family: 'Microsoft YaHei'; text-anchor: end" x="35.873438" y="227.500024" transform="rotate(-0 35.873438 227.500024)">0.1</text>
     </g>
    </g>
    <g id="ytick_3">
     <g id="line2d_19">
      <path d="M 42.873438 192.14211 
L 481.558437 192.14211 
" clip-path="url(#pcfbe4f49e2)" style="fill: none; stroke: #b0b0b0; stroke-opacity: 0.28; stroke-width: 0.8; stroke-linecap: square"/>
     </g>
     <g id="line2d_20">
      <g>
       <use xlink:href="#m3ce46217fc" x="42.873438" y="192.14211" style="stroke: #000000; stroke-width: 0.8"/>
      </g>
     </g>
     <g id="text_11">
      <text style="font-size: 10px; font-family: 'Microsoft YaHei'; text-anchor: end" x="35.873438" y="196.138985" transform="rotate(-0 35.873438 196.138985)">0.2</text>
     </g>
    </g>
    <g id="ytick_4">
     <g id="line2d_21">
      <path d="M 42.873438 160.781071 
L 481.558437 160.781071 
" clip-path="url(#pcfbe4f49e2)" style="fill: none; stroke: #b0b0b0; stroke-opacity: 0.28; stroke-width: 0.8; stroke-linecap: square"/>
     </g>
     <g id="line2d_22">
      <g>
       <use xlink:href="#m3ce46217fc" x="42.873438" y="160.781071" style="stroke: #000000; stroke-width: 0.8"/>
      </g>
     </g>
     <g id="text_12">
      <text style="font-size: 10px; font-family: 'Microsoft YaHei'; text-anchor: end" x="35.873438" y="164.777946" transform="rotate(-0 35.873438 164.777946)">0.3</text>
     </g>
    </g>
    <g id="ytick_5">
     <g id="line2d_23">
      <path d="M 42.873438 129.420032 
L 481.558437 129.420032 
" clip-path="url(#pcfbe4f49e2)" style="fill: none; stroke: #b0b0b0; stroke-opacity: 0.28; stroke-width: 0.8; stroke-linecap: square"/>
     </g>
     <g id="line2d_24">
      <g>
       <use xlink:href="#m3ce46217fc" x="42.873438" y="129.420032" style="stroke: #000000; stroke-width: 0.8"/>
      </g>
     </g>
     <g id="text_13">
      <text style="font-size: 10px; font-family: 'Microsoft YaHei'; text-anchor: end" x="35.873438" y="133.416907" transform="rotate(-0 35.873438 133.416907)">0.4</text>
     </g>
    </g>
    <g id="ytick_6">
     <g id="line2d_25">
      <path d="M 42.873438 98.058994 
L 481.558437 98.058994 
" clip-path="url(#pcfbe4f49e2)" style="fill: none; stroke: #b0b0b0; stroke-opacity: 0.28; stroke-width: 0.8; stroke-linecap: square"/>
     </g>
     <g id="line2d_26">
      <g>
       <use xlink:href="#m3ce46217fc" x="42.873438" y="98.058994" style="stroke: #000000; stroke-width: 0.8"/>
      </g>
     </g>
     <g id="text_14">
      <text style="font-size: 10px; font-family: 'Microsoft YaHei'; text-anchor: end" x="35.873438" y="102.055869" transform="rotate(-0 35.873438 102.055869)">0.5</text>
     </g>
    </g>
    <g id="ytick_7">
     <g id="line2d_27">
      <path d="M 42.873438 66.697955 
L 481.558437 66.697955 
" clip-path="url(#pcfbe4f49e2)" style="fill: none; stroke: #b0b0b0; stroke-opacity: 0.28; stroke-width: 0.8; stroke-linecap: square"/>
     </g>
     <g id="line2d_28">
      <g>
       <use xlink:href="#m3ce46217fc" x="42.873438" y="66.697955" style="stroke: #000000; stroke-width: 0.8"/>
      </g>
     </g>
     <g id="text_15">
      <text style="font-size: 10px; font-family: 'Microsoft YaHei'; text-anchor: end" x="35.873438" y="70.69483" transform="rotate(-0 35.873438 70.69483)">0.6</text>
     </g>
    </g>
    <g id="ytick_8">
     <g id="line2d_29">
      <path d="M 42.873438 35.336916 
L 481.558437 35.336916 
" clip-path="url(#pcfbe4f49e2)" style="fill: none; stroke: #b0b0b0; stroke-opacity: 0.28; stroke-width: 0.8; stroke-linecap: square"/>
     </g>
     <g id="line2d_30">
      <g>
       <use xlink:href="#m3ce46217fc" x="42.873438" y="35.336916" style="stroke: #000000; stroke-width: 0.8"/>
      </g>
     </g>
     <g id="text_16">
      <text style="font-size: 10px; font-family: 'Microsoft YaHei'; text-anchor: end" x="35.873438" y="39.333791" transform="rotate(-0 35.873438 39.333791)">0.7</text>
     </g>
    </g>
    <g id="text_17">
     <text style="font-size: 10px; font-family: 'Microsoft YaHei'; text-anchor: middle" x="15.19375" y="143.5325" transform="rotate(-90 15.19375 143.5325)">Voltage (V)</text>
    </g>
   </g>
   <g id="line2d_31">
    <path d="M 42.873438 35.336916 
L 43.312123 32.294895 
L 43.531465 32.733949 
L 43.97015 33.643419 
L 44.84752 34.615612 
L 45.213091 34.803778 
L 46.382918 35.211471 
L 47.260288 35.305555 
L 47.625858 35.368277 
L 80.234777 35.274194 
L 80.527233 35.242832 
L 81.623946 35.148749 
L 81.916402 35.117388 
L 86.08391 35.211471 
L 86.741937 35.399638 
L 87.180622 35.493721 
L 87.765536 35.650526 
L 88.204221 35.744609 
L 88.789134 35.901414 
L 89.227819 35.995497 
L 89.812732 36.152303 
L 90.251417 36.246386 
L 90.836331 36.403191 
L 91.275016 36.497274 
L 91.933043 36.68544 
L 92.371728 36.779523 
L 92.956642 37.124495 
L 97.124149 42.581316 
L 101.072314 53.024542 
L 102.900168 60.51983 
L 105.020479 69.896781 
L 109.187987 100.944209 
L 111.746982 143.720666 
L 114.671549 229.954115 
L 115.768262 246.390436 
L 116.133832 248.871094 
L 116.938088 251.808996 
L 117.815458 253.508451 
L 119.058399 254.579587 
L 120.374454 254.879088 
L 122.714107 254.918474 
L 132.730748 254.861374 
L 481.558437 254.864018 
L 481.558437 254.864018 
" clip-path="url(#pcfbe4f49e2)" style="fill: none; stroke: #1f77b4; stroke-width: 1.9; stroke-linecap: square"/>
   </g>
   <g id="line2d_32">
    <path d="M 42.873438 254.864188 
L 43.312123 254.507927 
L 44.189493 254.900881 
L 45.066863 254.985242 
L 59.909038 254.859748 
L 80.381005 254.764021 
L 83.963599 254.496637 
L 85.864567 254.331051 
L 92.956642 252.758922 
L 97.197263 248.883638 
L 100.9992 242.85291 
L 105.093593 233.278385 
L 109.041758 219.049882 
L 111.673868 192.518443 
L 113.501722 145.63369 
L 115.768262 72.405664 
L 116.280061 61.523383 
L 117.011202 50.547019 
L 117.815458 42.989009 
L 118.985285 37.375383 
L 119.935769 35.587804 
L 121.544281 34.991944 
L 123.518363 35.086027 
L 123.883934 35.148749 
L 125.784902 35.242832 
L 126.077359 35.274194 
L 481.558437 35.336916 
L 481.558437 35.336916 
" clip-path="url(#pcfbe4f49e2)" style="fill: none; stroke: #ff7f0e; stroke-width: 1.9; stroke-linecap: square"/>
   </g>
   <g id="line2d_33">
    <path d="M 42.873438 35.556443 
L 43.312123 246.293216 
L 43.458351 254.867638 
L 43.531465 255.520888 
L 43.604579 255.484196 
L 43.97015 254.843587 
L 60.274609 254.864184 
L 101.87657 254.754205 
L 113.721065 254.66122 
L 117.084317 254.850013 
L 128.19767 254.864197 
L 481.558437 254.864187 
L 481.558437 254.864187 
" clip-path="url(#pcfbe4f49e2)" style="fill: none; stroke: #2ca02c; stroke-width: 1.5; stroke-linecap: square"/>
   </g>
   <g id="line2d_34">
    <path d="M 42.873438 35.336916 
L 106.409648 35.430999 
L 106.702105 35.46236 
L 114.013522 35.368277 
L 114.305978 35.336916 
L 481.558437 35.336916 
L 481.558437 35.336916 
" clip-path="url(#pcfbe4f49e2)" style="fill: none; stroke: #d62728; stroke-width: 1.5; stroke-linecap: square"/>
   </g>
   <g id="line2d_35">
    <path d="M 42.873438 254.864188 
L 79.430521 254.864188 
L 116.060718 35.336916 
L 481.558437 35.336916 
L 481.558437 35.336916 
" clip-path="url(#pcfbe4f49e2)" style="fill: none; stroke-dasharray: 5.18,2.24; stroke-dashoffset: 0; stroke: #9467bd; stroke-width: 1.4"/>
   </g>
   <g id="line2d_36">
    <path d="M 42.873438 145.100552 
L 481.558437 145.100552 
" clip-path="url(#pcfbe4f49e2)" style="fill: none; stroke-dasharray: 3.33,1.44; stroke-dashoffset: 0; stroke: #595959; stroke-width: 0.9"/>
   </g>
   <g id="line2d_37">
    <path d="M 97.709062 264.2725 
L 97.709062 22.7925 
" clip-path="url(#pcfbe4f49e2)" style="fill: none; stroke-dasharray: 1,1.65; stroke-dashoffset: 0; stroke: #737373"/>
   </g>
   <g id="line2d_38">
    <path d="M 111.792293 264.2725 
L 111.792293 22.7925 
" clip-path="url(#pcfbe4f49e2)" style="fill: none; stroke-dasharray: 1,1.65; stroke-dashoffset: 0; stroke: #737373"/>
   </g>
   <g id="line2d_39">
    <defs>
     <path id="md9b94ad4b2" d="M 0 2.5 
C 0.663008 2.5 1.29895 2.236584 1.767767 1.767767 
C 2.236584 1.29895 2.5 0.663008 2.5 0 
C 2.5 -0.663008 2.236584 -1.29895 1.767767 -1.767767 
C 1.29895 -2.236584 0.663008 -2.5 0 -2.5 
C -0.663008 -2.5 -1.29895 -2.236584 -1.767767 -1.767767 
C -2.236584 -1.29895 -2.5 -0.663008 -2.5 0 
C -2.5 0.663008 -2.236584 1.29895 -1.767767 1.767767 
C -1.29895 2.236584 -0.663008 2.5 0 2.5 
z
" style="stroke: #d62728"/>
    </defs>
    <g clip-path="url(#pcfbe4f49e2)">
     <use xlink:href="#md9b94ad4b2" x="111.792293" y="145.100552" style="fill: #d62728; stroke: #d62728"/>
    </g>
   </g>
   <g id="patch_3">
    <path d="M 42.873438 264.2725 
L 42.873438 22.7925 
" style="fill: none; stroke: #000000; stroke-width: 0.8; stroke-linejoin: miter; stroke-linecap: square"/>
   </g>
   <g id="patch_4">
    <path d="M 481.558437 264.2725 
L 481.558437 22.7925 
" style="fill: none; stroke: #000000; stroke-width: 0.8; stroke-linejoin: miter; stroke-linecap: square"/>
   </g>
   <g id="patch_5">
    <path d="M 42.873438 264.2725 
L 481.558437 264.2725 
" style="fill: none; stroke: #000000; stroke-width: 0.8; stroke-linejoin: miter; stroke-linecap: square"/>
   </g>
   <g id="patch_6">
    <path d="M 42.873438 22.7925 
L 481.558437 22.7925 
" style="fill: none; stroke: #000000; stroke-width: 0.8; stroke-linejoin: miter; stroke-linecap: square"/>
   </g>
   <g id="patch_7">
    <path d="M 164.25416 113.781079 
Q 138.882968 128.927554 114.375755 143.558238 
" style="fill: none; stroke: #404040; stroke-width: 0.9; stroke-linecap: round"/>
    <path d="M 118.612481 143.241763 
L 114.375755 143.558238 
L 116.664611 139.978972 
" style="fill: none; stroke: #404040; stroke-width: 0.9; stroke-linecap: round"/>
   </g>
   <g id="text_18">
    <g id="patch_8">
     <path d="M 131.898689 112.258868 
L 226.434079 112.258868 
Q 228.809079 112.258868 228.809079 109.883868 
L 228.809079 99.873243 
Q 228.809079 97.498243 226.434079 97.498243 
L 131.898689 97.498243 
Q 129.523689 97.498243 129.523689 99.873243 
L 129.523689 109.883868 
Q 129.523689 112.258868 131.898689 112.258868 
z
" style="fill: #ffffff; opacity: 0.95; stroke: #b2b2b2; stroke-linejoin: miter"/>
    </g>
    <text style="font-size: 9.5px; font-family: 'Microsoft YaHei'; text-anchor: start" x="131.898689" y="107.467305" transform="rotate(-0 131.898689 107.467305)">write delay = 38.5 ps</text>
   </g>
   <g id="text_19">
    <g id="patch_9">
     <path d="M 262.215937 229.873747 
L 397.733828 229.873747 
Q 399.858828 229.873747 399.858828 227.748747 
L 399.858828 208.574341 
Q 399.858828 206.449341 397.733828 206.449341 
L 262.215937 206.449341 
Q 260.090937 206.449341 260.090937 208.574341 
L 260.090937 227.748747 
Q 260.090937 229.873747 262.215937 229.873747 
z
" style="fill: #ffffff; opacity: 0.95; stroke: #b2b2b2; stroke-linejoin: miter"/>
    </g>
    <text style="font-size: 8.5px; font-family: 'Microsoft YaHei'" transform="translate(262.215937 215.369028)">write-0 condition:</text>
    <text style="font-size: 8.5px; font-family: 'Microsoft YaHei'" transform="translate(262.215937 225.6357)">BL=0, BLB=VDD, WL rises to VDD</text>
   </g>
   <g id="text_20">
    <text style="font-size: 12px; font-family: 'Microsoft YaHei'; text-anchor: middle" x="262.215937" y="16.7925" transform="rotate(-0 262.215937 16.7925)">RC write-0 transient</text>
   </g>
   <g id="legend_1">
    <g id="patch_10">
     <path d="M 391.365937 175.738125 
L 475.958437 175.738125 
Q 477.558437 175.738125 477.558437 174.138125 
L 477.558437 112.926875 
Q 477.558437 111.326875 475.958437 111.326875 
L 391.365937 111.326875 
Q 389.765937 111.326875 389.765937 112.926875 
L 389.765937 174.138125 
Q 389.765937 175.738125 391.365937 175.738125 
z
" style="fill: #ffffff; opacity: 0.8; stroke: #cccccc; stroke-linejoin: miter"/>
    </g>
    <g id="line2d_40">
     <path d="M 392.965937 118.121875 
L 400.965937 118.121875 
L 408.965937 118.121875 
" style="fill: none; stroke: #1f77b4; stroke-width: 1.9; stroke-linecap: square"/>
    </g>
    <g id="text_21">
     <text style="font-size: 8px; font-family: 'Microsoft YaHei'; text-anchor: start" x="415.365937" y="120.921875" transform="rotate(-0 415.365937 120.921875)">Q target low</text>
    </g>
    <g id="line2d_41">
     <path d="M 392.965937 130.551875 
L 400.965937 130.551875 
L 408.965937 130.551875 
" style="fill: none; stroke: #ff7f0e; stroke-width: 1.9; stroke-linecap: square"/>
    </g>
    <g id="text_22">
     <text style="font-size: 8px; font-family: 'Microsoft YaHei'; text-anchor: start" x="415.365937" y="133.351875" transform="rotate(-0 415.365937 133.351875)">QB target high</text>
    </g>
    <g id="line2d_42">
     <path d="M 392.965937 142.981875 
L 400.965937 142.981875 
L 408.965937 142.981875 
" style="fill: none; stroke: #2ca02c; stroke-width: 1.5; stroke-linecap: square"/>
    </g>
    <g id="text_23">
     <text style="font-size: 8px; font-family: 'Microsoft YaHei'; text-anchor: start" x="415.365937" y="145.781875" transform="rotate(-0 415.365937 145.781875)">BL=0 write</text>
    </g>
    <g id="line2d_43">
     <path d="M 392.965937 155.365625 
L 400.965937 155.365625 
L 408.965937 155.365625 
" style="fill: none; stroke: #d62728; stroke-width: 1.5; stroke-linecap: square"/>
    </g>
    <g id="text_24">
     <text style="font-size: 8px; font-family: 'Microsoft YaHei'; text-anchor: start" x="415.365937" y="158.165625" transform="rotate(-0 415.365937 158.165625)">BLB=VDD write</text>
    </g>
    <g id="line2d_44">
     <path d="M 392.965937 167.749375 
L 400.965937 167.749375 
L 408.965937 167.749375 
" style="fill: none; stroke-dasharray: 5.18,2.24; stroke-dashoffset: 0; stroke: #9467bd; stroke-width: 1.4"/>
    </g>
    <g id="text_25">
     <text style="font-size: 8px; font-family: 'Microsoft YaHei'; text-anchor: start" x="415.365937" y="170.549375" transform="rotate(-0 415.365937 170.549375)">WL</text>
    </g>
   </g>
  </g>
 </g>
 <defs>
  <clipPath id="pcfbe4f49e2">
   <rect x="42.873438" y="22.7925" width="438.685" height="241.48"/>
  </clipPath>
 </defs>
</svg>
