<?xml version="1.0" encoding="utf-8" standalone="no"?>
<!DOCTYPE svg PUBLIC "-//W3C//DTD SVG 1.1//EN"
  "http://www.w3.org/Graphics/SVG/1.1/DTD/svg11.dtd">
<svg xmlns:xlink="http://www.w3.org/1999/xlink" width="481.7pt" height="296.1625pt" viewBox="0 0 481.7 296.1625" xmlns="http://www.w3.org/2000/svg" version="1.1">
 <metadata>
  <rdf:RDF xmlns:dc="http://purl.org/dc/elements/1.1/" xmlns:cc="http://creativecommons.org/ns#" xmlns:rdf="http://www.w3.org/1999/02/22-rdf-syntax-ns#">
   <cc:Work>
    <dc:type rdf:resource="http://purl.org/dc/dcmitype/StillImage"/>
    <dc:date>2026-07-14T10:41:16.535645</dc:date>
    <dc:format>image/svg+xml</dc:format>
    <dc:creator>
     <cc:Agent>
      <dc:title>Matplotlib v3.10.8, https://matplotlib.org/</dc:title>
     </cc:Agent>
    </dc:creator>
   </cc:Work>
  </rdf:RDF>
 </metadata>
 <defs>
  <style type="text/css">*{stroke-linejoin: round; stroke-linecap: butt}</style>
 </defs>
 <g id="figure_1">
  <g id="patch_1">
   <path d="M 0 296.1625 
L 481.7 296.1625 
L 481.7 0 
L 0 0 
z
" style="fill: #ffffff"/>
  </g>
  <g id="axes_1">
   <g id="patch_2">
    <path d="M 49 257.003125 
L 474.5 257.003125 
L 474.5 22.723125 
L 49 22.723125 
z
" style="fill: #ffffff"/>
   </g>
   <g id="patch_3">
    <path d="M 117.08 257.003125 
L 457.48 257.003125 
L 457.48 22.723125 
L 117.08 22.723125 
z
" clip-path="url(#pfe4fc39e1e)" style="fill: #d9d9d9; opacity: 0.3; stroke: #d9d9d9; stroke-linejoin: miter"/>
   </g>
   <g id="matplotlib.axis_1">
    <g id="xtick_1">
     <g id="line2d_1">
      <path d="M 49 257.003125 
L 49 22.723125 
" clip-path="url(#pfe4fc39e1e)" style="fill: none; stroke: #b0b0b0; stroke-opacity: 0.28; stroke-width: 0.8; stroke-linecap: square"/>
     </g>
     <g id="line2d_2">
      <defs>
       <path id="m75b7fee2cd" d="M 0 0 
L 0 3.5 
" style="stroke: #000000; stroke-width: 0.8"/>
      </defs>
      <g>
       <use xlink:href="#m75b7fee2cd" x="49" y="257.003125" style="stroke: #000000; stroke-width: 0.8"/>
      </g>
     </g>
     <g id="text_1">
      <text style="font-size: 10px; font-family: 'Microsoft YaHei'; text-anchor: middle" x="49" y="271.996875" transform="rotate(-0 49 271.996875)">0.0</text>
     </g>
    </g>
    <g id="xtick_2">
     <g id="line2d_3">
      <path d="M 117.08 257.003125 
L 117.08 22.723125 
" clip-path="url(#pfe4fc39e1e)" style="fill: none; stroke: #b0b0b0; stroke-opacity: 0.28; stroke-width: 0.8; stroke-linecap: square"/>
     </g>
     <g id="line2d_4">
      <g>
       <use xlink:href="#m75b7fee2cd" x="117.08" y="257.003125" style="stroke: #000000; stroke-width: 0.8"/>
      </g>
     </g>
     <g id="text_2">
      <text style="font-size: 10px; font-family: 'Microsoft YaHei'; text-anchor: middle" x="117.08" y="271.996875" transform="rotate(-0 117.08 271.996875)">0.2</text>
     </g>
    </g>
    <g id="xtick_3">
     <g id="line2d_5">
      <path d="M 185.16 257.003125 
L 185.16 22.723125 
" clip-path="url(#pfe4fc39e1e)" style="fill: none; stroke: #b0b0b0; stroke-opacity: 0.28; stroke-width: 0.8; stroke-linecap: square"/>
     </g>
     <g id="line2d_6">
      <g>
       <use xlink:href="#m75b7fee2cd" x="185.16" y="257.003125" style="stroke: #000000; stroke-width: 0.8"/>
      </g>
     </g>
     <g id="text_3">
      <text style="font-size: 10px; font-family: 'Microsoft YaHei'; text-anchor: middle" x="185.16" y="271.996875" transform="rotate(-0 185.16 271.996875)">0.4</text>
     </g>
    </g>
    <g id="xtick_4">
     <g id="line2d_7">
      <path d="M 253.24 257.003125 
L 253.24 22.723125 
" clip-path="url(#pfe4fc39e1e)" style="fill: none; stroke: #b0b0b0; stroke-opacity: 0.28; stroke-width: 0.8; stroke-linecap: square"/>
     </g>
     <g id="line2d_8">
      <g>
       <use xlink:href="#m75b7fee2cd" x="253.24" y="257.003125" style="stroke: #000000; stroke-width: 0.8"/>
      </g>
     </g>
     <g id="text_4">
      <text style="font-size: 10px; font-family: 'Microsoft YaHei'; text-anchor: middle" x="253.24" y="271.996875" transform="rotate(-0 253.24 271.996875)">0.6</text>
     </g>
    </g>
    <g id="xtick_5">
     <g id="line2d_9">
      <path d="M 321.32 257.003125 
L 321.32 22.723125 
" clip-path="url(#pfe4fc39e1e)" style="fill: none; stroke: #b0b0b0; stroke-opacity: 0.28; stroke-width: 0.8; stroke-linecap: square"/>
     </g>
     <g id="line2d_10">
      <g>
       <use xlink:href="#m75b7fee2cd" x="321.32" y="257.003125" style="stroke: #000000; stroke-width: 0.8"/>
      </g>
     </g>
     <g id="text_5">
      <text style="font-size: 10px; font-family: 'Microsoft YaHei'; text-anchor: middle" x="321.32" y="271.996875" transform="rotate(-0 321.32 271.996875)">0.8</text>
     </g>
    </g>
    <g id="xtick_6">
     <g id="line2d_11">
      <path d="M 389.4 257.003125 
L 389.4 22.723125 
" clip-path="url(#pfe4fc39e1e)" style="fill: none; stroke: #b0b0b0; stroke-opacity: 0.28; stroke-width: 0.8; stroke-linecap: square"/>
     </g>
     <g id="line2d_12">
      <g>
       <use xlink:href="#m75b7fee2cd" x="389.4" y="257.003125" style="stroke: #000000; stroke-width: 0.8"/>
      </g>
     </g>
     <g id="text_6">
      <text style="font-size: 10px; font-family: 'Microsoft YaHei'; text-anchor: middle" x="389.4" y="271.996875" transform="rotate(-0 389.4 271.996875)">1.0</text>
     </g>
    </g>
    <g id="xtick_7">
     <g id="line2d_13">
      <path d="M 457.48 257.003125 
L 457.48 22.723125 
" clip-path="url(#pfe4fc39e1e)" style="fill: none; stroke: #b0b0b0; stroke-opacity: 0.28; stroke-width: 0.8; stroke-linecap: square"/>
     </g>
     <g id="line2d_14">
      <g>
       <use xlink:href="#m75b7fee2cd" x="457.48" y="257.003125" style="stroke: #000000; stroke-width: 0.8"/>
      </g>
     </g>
     <g id="text_7">
      <text style="font-size: 10px; font-family: 'Microsoft YaHei'; text-anchor: middle" x="457.48" y="271.996875" transform="rotate(-0 457.48 271.996875)">1.2</text>
     </g>
    </g>
    <g id="text_8">
     <text style="font-size: 10px; font-family: 'Microsoft YaHei'; text-anchor: middle" x="261.75" y="286.476562" transform="rotate(-0 261.75 286.476562)">Time (ns)</text>
    </g>
   </g>
   <g id="matplotlib.axis_2">
    <g id="ytick_1">
     <g id="line2d_15">
      <path d="M 49 246.354034 
L 474.5 246.354034 
" clip-path="url(#pfe4fc39e1e)" style="fill: none; stroke: #b0b0b0; stroke-opacity: 0.28; stroke-width: 0.8; stroke-linecap: square"/>
     </g>
     <g id="line2d_16">
      <defs>
       <path id="m67d33c6cb6" d="M 0 0 
L -3.5 0 
" style="stroke: #000000; stroke-width: 0.8"/>
      </defs>
      <g>
       <use xlink:href="#m67d33c6cb6" x="49" y="246.354034" style="stroke: #000000; stroke-width: 0.8"/>
      </g>
     </g>
     <g id="text_9">
      <text style="font-size: 10px; font-family: 'Microsoft YaHei'; text-anchor: end" x="42" y="250.350909" transform="rotate(-0 42 250.350909)">0.00</text>
     </g>
    </g>
    <g id="ytick_2">
     <g id="line2d_17">
      <path d="M 49 216.727573 
L 474.5 216.727573 
" clip-path="url(#pfe4fc39e1e)" style="fill: none; stroke: #b0b0b0; stroke-opacity: 0.28; stroke-width: 0.8; stroke-linecap: square"/>
     </g>
     <g id="line2d_18">
      <g>
       <use xlink:href="#m67d33c6cb6" x="49" y="216.727573" style="stroke: #000000; stroke-width: 0.8"/>
      </g>
     </g>
     <g id="text_10">
      <text style="font-size: 10px; font-family: 'Microsoft YaHei'; text-anchor: end" x="42" y="220.724448" transform="rotate(-0 42 220.724448)">0.25</text>
     </g>
    </g>
    <g id="ytick_3">
     <g id="line2d_19">
      <path d="M 49 187.101111 
L 474.5 187.101111 
" clip-path="url(#pfe4fc39e1e)" style="fill: none; stroke: #b0b0b0; stroke-opacity: 0.28; stroke-width: 0.8; stroke-linecap: square"/>
     </g>
     <g id="line2d_20">
      <g>
       <use xlink:href="#m67d33c6cb6" x="49" y="187.101111" style="stroke: #000000; stroke-width: 0.8"/>
      </g>
     </g>
     <g id="text_11">
      <text style="font-size: 10px; font-family: 'Microsoft YaHei'; text-anchor: end" x="42" y="191.097986" transform="rotate(-0 42 191.097986)">0.50</text>
     </g>
    </g>
    <g id="ytick_4">
     <g id="line2d_21">
      <path d="M 49 157.474649 
L 474.5 157.474649 
" clip-path="url(#pfe4fc39e1e)" style="fill: none; stroke: #b0b0b0; stroke-opacity: 0.28; stroke-width: 0.8; stroke-linecap: square"/>
     </g>
     <g id="line2d_22">
      <g>
       <use xlink:href="#m67d33c6cb6" x="49" y="157.474649" style="stroke: #000000; stroke-width: 0.8"/>
      </g>
     </g>
     <g id="text_12">
      <text style="font-size: 10px; font-family: 'Microsoft YaHei'; text-anchor: end" x="42" y="161.471524" transform="rotate(-0 42 161.471524)">0.75</text>
     </g>
    </g>
    <g id="ytick_5">
     <g id="line2d_23">
      <path d="M 49 127.848188 
L 474.5 127.848188 
" clip-path="url(#pfe4fc39e1e)" style="fill: none; stroke: #b0b0b0; stroke-opacity: 0.28; stroke-width: 0.8; stroke-linecap: square"/>
     </g>
     <g id="line2d_24">
      <g>
       <use xlink:href="#m67d33c6cb6" x="49" y="127.848188" style="stroke: #000000; stroke-width: 0.8"/>
      </g>
     </g>
     <g id="text_13">
      <text style="font-size: 10px; font-family: 'Microsoft YaHei'; text-anchor: end" x="42" y="131.845063" transform="rotate(-0 42 131.845063)">1.00</text>
     </g>
    </g>
    <g id="ytick_6">
     <g id="line2d_25">
      <path d="M 49 98.221726 
L 474.5 98.221726 
" clip-path="url(#pfe4fc39e1e)" style="fill: none; stroke: #b0b0b0; stroke-opacity: 0.28; stroke-width: 0.8; stroke-linecap: square"/>
     </g>
     <g id="line2d_26">
      <g>
       <use xlink:href="#m67d33c6cb6" x="49" y="98.221726" style="stroke: #000000; stroke-width: 0.8"/>
      </g>
     </g>
     <g id="text_14">
      <text style="font-size: 10px; font-family: 'Microsoft YaHei'; text-anchor: end" x="42" y="102.218601" transform="rotate(-0 42 102.218601)">1.25</text>
     </g>
    </g>
    <g id="ytick_7">
     <g id="line2d_27">
      <path d="M 49 68.595265 
L 474.5 68.595265 
" clip-path="url(#pfe4fc39e1e)" style="fill: none; stroke: #b0b0b0; stroke-opacity: 0.28; stroke-width: 0.8; stroke-linecap: square"/>
     </g>
     <g id="line2d_28">
      <g>
       <use xlink:href="#m67d33c6cb6" x="49" y="68.595265" style="stroke: #000000; stroke-width: 0.8"/>
      </g>
     </g>
     <g id="text_15">
      <text style="font-size: 10px; font-family: 'Microsoft YaHei'; text-anchor: end" x="42" y="72.59214" transform="rotate(-0 42 72.59214)">1.50</text>
     </g>
    </g>
    <g id="ytick_8">
     <g id="line2d_29">
      <path d="M 49 38.968803 
L 474.5 38.968803 
" clip-path="url(#pfe4fc39e1e)" style="fill: none; stroke: #b0b0b0; stroke-opacity: 0.28; stroke-width: 0.8; stroke-linecap: square"/>
     </g>
     <g id="line2d_30">
      <g>
       <use xlink:href="#m67d33c6cb6" x="49" y="38.968803" style="stroke: #000000; stroke-width: 0.8"/>
      </g>
     </g>
     <g id="text_16">
      <text style="font-size: 10px; font-family: 'Microsoft YaHei'; text-anchor: end" x="42" y="42.965678" transform="rotate(-0 42 42.965678)">1.75</text>
     </g>
    </g>
    <g id="text_17">
     <text style="font-size: 10px; font-family: 'Microsoft YaHei'; text-anchor: middle" x="15.45625" y="139.863125" transform="rotate(-90 15.45625 139.863125)">Cumulative energy from VDD·|I(VDD)| (fJ)</text>
    </g>
   </g>
   <g id="line2d_31">
    <path d="M 49 246.354034 
L 85.28664 246.241988 
L 89.23528 245.789435 
L 95.77096 244.835894 
L 99.85576 244.059179 
L 103.73632 243.07457 
L 108.50192 241.611857 
L 118.1012 238.59122 
L 119.59896 238.492366 
L 121.91368 238.376443 
L 126.47504 237.865048 
L 134.1 236.799015 
L 142.81424 235.610717 
L 149.00952 235.009793 
L 156.08984 234.555666 
L 164.80408 234.228918 
L 176.92232 234.013649 
L 197.14208 233.901687 
L 265.154 233.861567 
L 457.48 233.775816 
L 457.48 233.775816 
" clip-path="url(#pfe4fc39e1e)" style="fill: none; stroke: #1f77b4; stroke-width: 2; stroke-linecap: square"/>
   </g>
   <g id="line2d_32">
    <path d="M 49 246.354034 
L 49.27232 246.236306 
L 50.15736 245.509313 
L 50.90624 245.232722 
L 52.0636 245.073877 
L 55.60376 244.984023 
L 63.09256 244.898386 
L 85.69512 244.758558 
L 92.70736 243.960686 
L 94.2732 243.411107 
L 95.77096 242.653304 
L 96.51984 242.011389 
L 97.3368 241.007238 
L 98.22184 239.561605 
L 99.24304 237.431187 
L 100.12808 235.0878 
L 101.01312 232.057985 
L 102.03432 227.698581 
L 103.1236 222.02618 
L 104.1448 215.554517 
L 105.30216 206.714348 
L 106.5276 195.610611 
L 107.8892 181.201983 
L 109.38696 162.885885 
L 111.02088 140.048541 
L 114.22064 91.817538 
L 117.08 46.840244 
L 117.69272 41.430393 
L 118.30544 37.957769 
L 118.85008 36.094454 
L 119.39472 34.94213 
L 119.87128 34.423501 
L 120.484 34.100628 
L 121.1648 34.024444 
L 122.59448 33.89883 
L 125.59 33.635199 
L 129.47056 33.581047 
L 299.60248 33.448433 
L 457.48 33.372216 
L 457.48 33.372216 
" clip-path="url(#pfe4fc39e1e)" style="fill: none; stroke: #ff7f0e; stroke-width: 2; stroke-linecap: square"/>
   </g>
   <g id="patch_4">
    <path d="M 49 257.003125 
L 49 22.723125 
" style="fill: none; stroke: #000000; stroke-width: 0.8; stroke-linejoin: miter; stroke-linecap: square"/>
   </g>
   <g id="patch_5">
    <path d="M 474.5 257.003125 
L 474.5 22.723125 
" style="fill: none; stroke: #000000; stroke-width: 0.8; stroke-linejoin: miter; stroke-linecap: square"/>
   </g>
   <g id="patch_6">
    <path d="M 49 257.003125 
L 474.5 257.003125 
" style="fill: none; stroke: #000000; stroke-width: 0.8; stroke-linejoin: miter; stroke-linecap: square"/>
   </g>
   <g id="patch_7">
    <path d="M 49 22.723125 
L 474.5 22.723125 
" style="fill: none; stroke: #000000; stroke-width: 0.8; stroke-linejoin: miter; stroke-linecap: square"/>
   </g>
   <g id="text_18">
    <g id="patch_8">
     <path d="M 274.515 224.005669 
L 394.1025 224.005669 
Q 396.3525 224.005669 396.3525 221.755669 
L 396.3525 201.453356 
Q 396.3525 199.203356 394.1025 199.203356 
L 274.515 199.203356 
Q 272.265 199.203356 272.265 201.453356 
L 272.265 221.755669 
Q 272.265 224.005669 274.515 224.005669 
z
" style="fill: #ffffff; opacity: 0.95; stroke: #b2b2b2; stroke-linejoin: miter"/>
    </g>
    <text style="font-size: 9px; font-family: 'Microsoft YaHei'" transform="translate(274.515 208.647731)">Eread(0.2–1.2 ns) = 0.043 fJ</text>
    <text style="font-size: 9px; font-family: 'Microsoft YaHei'" transform="translate(274.515 219.518325)">Ewrite(0.2–1.2 ns) = 0.114 fJ</text>
   </g>
   <g id="text_19">
    <text style="font-size: 12px; font-family: 'Microsoft YaHei'; text-anchor: middle" x="261.75" y="16.723125" transform="rotate(-0 261.75 16.723125)">RC energy integration</text>
   </g>
   <g id="legend_1">
    <g id="patch_9">
     <path d="M 54.6 66.413125 
L 171.90375 66.413125 
Q 173.50375 66.413125 173.50375 64.813125 
L 173.50375 28.323125 
Q 173.50375 26.723125 171.90375 26.723125 
L 54.6 26.723125 
Q 53 26.723125 53 28.323125 
L 53 64.813125 
Q 53 66.413125 54.6 66.413125 
z
" style="fill: #ffffff; opacity: 0.8; stroke: #cccccc; stroke-linejoin: miter"/>
    </g>
    <g id="line2d_33">
     <path d="M 56.2 33.518125 
L 64.2 33.518125 
L 72.2 33.518125 
" style="fill: none; stroke: #1f77b4; stroke-width: 2; stroke-linecap: square"/>
    </g>
    <g id="text_20">
     <text style="font-size: 8px; font-family: 'Microsoft YaHei'; text-anchor: start" x="78.6" y="36.318125" transform="rotate(-0 78.6 36.318125)">read cumulative energy</text>
    </g>
    <g id="line2d_34">
     <path d="M 56.2 45.948125 
L 64.2 45.948125 
L 72.2 45.948125 
" style="fill: none; stroke: #ff7f0e; stroke-width: 2; stroke-linecap: square"/>
    </g>
    <g id="text_21">
     <text style="font-size: 8px; font-family: 'Microsoft YaHei'; text-anchor: start" x="78.6" y="48.748125" transform="rotate(-0 78.6 48.748125)">write cumulative energy</text>
    </g>
    <g id="patch_10">
     <path d="M 56.2 61.178125 
L 72.2 61.178125 
L 72.2 55.578125 
L 56.2 55.578125 
z
" style="fill: #d9d9d9; opacity: 0.3; stroke: #d9d9d9; stroke-linejoin: miter"/>
    </g>
    <g id="text_22">
     <text style="font-size: 8px; font-family: 'Microsoft YaHei'; text-anchor: start" x="78.6" y="61.178125" transform="rotate(-0 78.6 61.178125)">integration window</text>
    </g>
   </g>
  </g>
 </g>
 <defs>
  <clipPath id="pfe4fc39e1e">
   <rect x="49" y="22.723125" width="425.5" height="234.28"/>
  </clipPath>
 </defs>
</svg>
