<?xml version="1.0" encoding="utf-8" standalone="no"?>
<!DOCTYPE svg PUBLIC "-//W3C//DTD SVG 1.1//EN"
  "http://www.w3.org/Graphics/SVG/1.1/DTD/svg11.dtd">
<svg xmlns:xlink="http://www.w3.org/1999/xlink" width="445.423437pt" height="296.289688pt" viewBox="0 0 445.423437 296.289688" xmlns="http://www.w3.org/2000/svg" version="1.1">
 <metadata>
  <rdf:RDF xmlns:dc="http://purl.org/dc/elements/1.1/" xmlns:cc="http://creativecommons.org/ns#" xmlns:rdf="http://www.w3.org/1999/02/22-rdf-syntax-ns#">
   <cc:Work>
    <dc:type rdf:resource="http://purl.org/dc/dcmitype/StillImage"/>
    <dc:date>2026-07-14T10:41:15.680657</dc:date>
    <dc:format>image/svg+xml</dc:format>
    <dc:creator>
     <cc:Agent>
      <dc:title>Matplotlib v3.10.8, https://matplotlib.org/</dc:title>
     </cc:Agent>
    </dc:creator>
   </cc:Work>
  </rdf:RDF>
 </metadata>
 <defs>
  <style type="text/css">*{stroke-linejoin: round; stroke-linecap: butt}</style>
 </defs>
 <g id="figure_1">
  <g id="patch_1">
   <path d="M 0 296.289688 
L 445.423437 296.289688 
L 445.423437 0 
L 0 0 
z
" style="fill: #ffffff"/>
  </g>
  <g id="axes_1">
   <g id="patch_2">
    <path d="M 42.873438 257.0725 
L 438.223437 257.0725 
L 438.223437 22.7925 
L 42.873438 22.7925 
z
" style="fill: #ffffff"/>
   </g>
   <g id="matplotlib.axis_1">
    <g id="xtick_1">
     <g id="line2d_1">
      <path d="M 420.252983 257.0725 
L 420.252983 22.7925 
" clip-path="url(#p63ae44983f)" style="fill: none; stroke: #b0b0b0; stroke-opacity: 0.28; stroke-width: 0.8; stroke-linecap: square"/>
     </g>
     <g id="line2d_2">
      <defs>
       <path id="me5f3ae4a75" d="M 0 0 
L 0 3.5 
" style="stroke: #000000; stroke-width: 0.8"/>
      </defs>
      <g>
       <use xlink:href="#me5f3ae4a75" x="420.252983" y="257.0725" style="stroke: #000000; stroke-width: 0.8"/>
      </g>
     </g>
     <g id="text_1">
      <text style="font-size: 10px; font-family: 'Microsoft YaHei'; text-anchor: middle" x="420.252983" y="272.06625" transform="rotate(-0 420.252983 272.06625)">0.0</text>
     </g>
    </g>
    <g id="xtick_2">
     <g id="line2d_3">
      <path d="M 368.908827 257.0725 
L 368.908827 22.7925 
" clip-path="url(#p63ae44983f)" style="fill: none; stroke: #b0b0b0; stroke-opacity: 0.28; stroke-width: 0.8; stroke-linecap: square"/>
     </g>
     <g id="line2d_4">
      <g>
       <use xlink:href="#me5f3ae4a75" x="368.908827" y="257.0725" style="stroke: #000000; stroke-width: 0.8"/>
      </g>
     </g>
     <g id="text_2">
      <text style="font-size: 10px; font-family: 'Microsoft YaHei'; text-anchor: middle" x="368.908827" y="272.06625" transform="rotate(-0 368.908827 272.06625)">0.1</text>
     </g>
    </g>
    <g id="xtick_3">
     <g id="line2d_5">
      <path d="M 317.564671 257.0725 
L 317.564671 22.7925 
" clip-path="url(#p63ae44983f)" style="fill: none; stroke: #b0b0b0; stroke-opacity: 0.28; stroke-width: 0.8; stroke-linecap: square"/>
     </g>
     <g id="line2d_6">
      <g>
       <use xlink:href="#me5f3ae4a75" x="317.564671" y="257.0725" style="stroke: #000000; stroke-width: 0.8"/>
      </g>
     </g>
     <g id="text_3">
      <text style="font-size: 10px; font-family: 'Microsoft YaHei'; text-anchor: middle" x="317.564671" y="272.06625" transform="rotate(-0 317.564671 272.06625)">0.2</text>
     </g>
    </g>
    <g id="xtick_4">
     <g id="line2d_7">
      <path d="M 266.220515 257.0725 
L 266.220515 22.7925 
" clip-path="url(#p63ae44983f)" style="fill: none; stroke: #b0b0b0; stroke-opacity: 0.28; stroke-width: 0.8; stroke-linecap: square"/>
     </g>
     <g id="line2d_8">
      <g>
       <use xlink:href="#me5f3ae4a75" x="266.220515" y="257.0725" style="stroke: #000000; stroke-width: 0.8"/>
      </g>
     </g>
     <g id="text_4">
      <text style="font-size: 10px; font-family: 'Microsoft YaHei'; text-anchor: middle" x="266.220515" y="272.06625" transform="rotate(-0 266.220515 272.06625)">0.3</text>
     </g>
    </g>
    <g id="xtick_5">
     <g id="line2d_9">
      <path d="M 214.87636 257.0725 
L 214.87636 22.7925 
" clip-path="url(#p63ae44983f)" style="fill: none; stroke: #b0b0b0; stroke-opacity: 0.28; stroke-width: 0.8; stroke-linecap: square"/>
     </g>
     <g id="line2d_10">
      <g>
       <use xlink:href="#me5f3ae4a75" x="214.87636" y="257.0725" style="stroke: #000000; stroke-width: 0.8"/>
      </g>
     </g>
     <g id="text_5">
      <text style="font-size: 10px; font-family: 'Microsoft YaHei'; text-anchor: middle" x="214.87636" y="272.06625" transform="rotate(-0 214.87636 272.06625)">0.4</text>
     </g>
    </g>
    <g id="xtick_6">
     <g id="line2d_11">
      <path d="M 163.532204 257.0725 
L 163.532204 22.7925 
" clip-path="url(#p63ae44983f)" style="fill: none; stroke: #b0b0b0; stroke-opacity: 0.28; stroke-width: 0.8; stroke-linecap: square"/>
     </g>
     <g id="line2d_12">
      <g>
       <use xlink:href="#me5f3ae4a75" x="163.532204" y="257.0725" style="stroke: #000000; stroke-width: 0.8"/>
      </g>
     </g>
     <g id="text_6">
      <text style="font-size: 10px; font-family: 'Microsoft YaHei'; text-anchor: middle" x="163.532204" y="272.06625" transform="rotate(-0 163.532204 272.06625)">0.5</text>
     </g>
    </g>
    <g id="xtick_7">
     <g id="line2d_13">
      <path d="M 112.188048 257.0725 
L 112.188048 22.7925 
" clip-path="url(#p63ae44983f)" style="fill: none; stroke: #b0b0b0; stroke-opacity: 0.28; stroke-width: 0.8; stroke-linecap: square"/>
     </g>
     <g id="line2d_14">
      <g>
       <use xlink:href="#me5f3ae4a75" x="112.188048" y="257.0725" style="stroke: #000000; stroke-width: 0.8"/>
      </g>
     </g>
     <g id="text_7">
      <text style="font-size: 10px; font-family: 'Microsoft YaHei'; text-anchor: middle" x="112.188048" y="272.06625" transform="rotate(-0 112.188048 272.06625)">0.6</text>
     </g>
    </g>
    <g id="xtick_8">
     <g id="line2d_15">
      <path d="M 60.843892 257.0725 
L 60.843892 22.7925 
" clip-path="url(#p63ae44983f)" style="fill: none; stroke: #b0b0b0; stroke-opacity: 0.28; stroke-width: 0.8; stroke-linecap: square"/>
     </g>
     <g id="line2d_16">
      <g>
       <use xlink:href="#me5f3ae4a75" x="60.843892" y="257.0725" style="stroke: #000000; stroke-width: 0.8"/>
      </g>
     </g>
     <g id="text_8">
      <text style="font-size: 10px; font-family: 'Microsoft YaHei'; text-anchor: middle" x="60.843892" y="272.06625" transform="rotate(-0 60.843892 272.06625)">0.7</text>
     </g>
    </g>
    <g id="text_9">
     <text style="font-size: 10px; font-family: 'Microsoft YaHei'; text-anchor: middle" x="240.548437" y="286.545938" transform="rotate(-0 240.548437 286.545938)">Forced BL voltage during write-0 DC sweep (V)</text>
    </g>
   </g>
   <g id="matplotlib.axis_2">
    <g id="ytick_1">
     <g id="line2d_17">
      <path d="M 42.873438 247.944708 
L 438.223437 247.944708 
" clip-path="url(#p63ae44983f)" style="fill: none; stroke: #b0b0b0; stroke-opacity: 0.28; stroke-width: 0.8; stroke-linecap: square"/>
     </g>
     <g id="line2d_18">
      <defs>
       <path id="m8cd15ccdbe" d="M 0 0 
L -3.5 0 
" style="stroke: #000000; stroke-width: 0.8"/>
      </defs>
      <g>
       <use xlink:href="#m8cd15ccdbe" x="42.873438" y="247.944708" style="stroke: #000000; stroke-width: 0.8"/>
      </g>
     </g>
     <g id="text_10">
      <text style="font-size: 10px; font-family: 'Microsoft YaHei'; text-anchor: end" x="35.873438" y="251.941583" transform="rotate(-0 35.873438 251.941583)">0.0</text>
     </g>
    </g>
    <g id="ytick_2">
     <g id="line2d_19">
      <path d="M 42.873438 217.518734 
L 438.223437 217.518734 
" clip-path="url(#p63ae44983f)" style="fill: none; stroke: #b0b0b0; stroke-opacity: 0.28; stroke-width: 0.8; stroke-linecap: square"/>
     </g>
     <g id="line2d_20">
      <g>
       <use xlink:href="#m8cd15ccdbe" x="42.873438" y="217.518734" style="stroke: #000000; stroke-width: 0.8"/>
      </g>
     </g>
     <g id="text_11">
      <text style="font-size: 10px; font-family: 'Microsoft YaHei'; text-anchor: end" x="35.873438" y="221.515609" transform="rotate(-0 35.873438 221.515609)">0.1</text>
     </g>
    </g>
    <g id="ytick_3">
     <g id="line2d_21">
      <path d="M 42.873438 187.09276 
L 438.223437 187.09276 
" clip-path="url(#p63ae44983f)" style="fill: none; stroke: #b0b0b0; stroke-opacity: 0.28; stroke-width: 0.8; stroke-linecap: square"/>
     </g>
     <g id="line2d_22">
      <g>
       <use xlink:href="#m8cd15ccdbe" x="42.873438" y="187.09276" style="stroke: #000000; stroke-width: 0.8"/>
      </g>
     </g>
     <g id="text_12">
      <text style="font-size: 10px; font-family: 'Microsoft YaHei'; text-anchor: end" x="35.873438" y="191.089635" transform="rotate(-0 35.873438 191.089635)">0.2</text>
     </g>
    </g>
    <g id="ytick_4">
     <g id="line2d_23">
      <path d="M 42.873438 156.666786 
L 438.223437 156.666786 
" clip-path="url(#p63ae44983f)" style="fill: none; stroke: #b0b0b0; stroke-opacity: 0.28; stroke-width: 0.8; stroke-linecap: square"/>
     </g>
     <g id="line2d_24">
      <g>
       <use xlink:href="#m8cd15ccdbe" x="42.873438" y="156.666786" style="stroke: #000000; stroke-width: 0.8"/>
      </g>
     </g>
     <g id="text_13">
      <text style="font-size: 10px; font-family: 'Microsoft YaHei'; text-anchor: end" x="35.873438" y="160.663661" transform="rotate(-0 35.873438 160.663661)">0.3</text>
     </g>
    </g>
    <g id="ytick_5">
     <g id="line2d_25">
      <path d="M 42.873438 126.240812 
L 438.223437 126.240812 
" clip-path="url(#p63ae44983f)" style="fill: none; stroke: #b0b0b0; stroke-opacity: 0.28; stroke-width: 0.8; stroke-linecap: square"/>
     </g>
     <g id="line2d_26">
      <g>
       <use xlink:href="#m8cd15ccdbe" x="42.873438" y="126.240812" style="stroke: #000000; stroke-width: 0.8"/>
      </g>
     </g>
     <g id="text_14">
      <text style="font-size: 10px; font-family: 'Microsoft YaHei'; text-anchor: end" x="35.873438" y="130.237687" transform="rotate(-0 35.873438 130.237687)">0.4</text>
     </g>
    </g>
    <g id="ytick_6">
     <g id="line2d_27">
      <path d="M 42.873438 95.814838 
L 438.223437 95.814838 
" clip-path="url(#p63ae44983f)" style="fill: none; stroke: #b0b0b0; stroke-opacity: 0.28; stroke-width: 0.8; stroke-linecap: square"/>
     </g>
     <g id="line2d_28">
      <g>
       <use xlink:href="#m8cd15ccdbe" x="42.873438" y="95.814838" style="stroke: #000000; stroke-width: 0.8"/>
      </g>
     </g>
     <g id="text_15">
      <text style="font-size: 10px; font-family: 'Microsoft YaHei'; text-anchor: end" x="35.873438" y="99.811713" transform="rotate(-0 35.873438 99.811713)">0.5</text>
     </g>
    </g>
    <g id="ytick_7">
     <g id="line2d_29">
      <path d="M 42.873438 65.388864 
L 438.223437 65.388864 
" clip-path="url(#p63ae44983f)" style="fill: none; stroke: #b0b0b0; stroke-opacity: 0.28; stroke-width: 0.8; stroke-linecap: square"/>
     </g>
     <g id="line2d_30">
      <g>
       <use xlink:href="#m8cd15ccdbe" x="42.873438" y="65.388864" style="stroke: #000000; stroke-width: 0.8"/>
      </g>
     </g>
     <g id="text_16">
      <text style="font-size: 10px; font-family: 'Microsoft YaHei'; text-anchor: end" x="35.873438" y="69.385739" transform="rotate(-0 35.873438 69.385739)">0.6</text>
     </g>
    </g>
    <g id="ytick_8">
     <g id="line2d_31">
      <path d="M 42.873438 34.96289 
L 438.223437 34.96289 
" clip-path="url(#p63ae44983f)" style="fill: none; stroke: #b0b0b0; stroke-opacity: 0.28; stroke-width: 0.8; stroke-linecap: square"/>
     </g>
     <g id="line2d_32">
      <g>
       <use xlink:href="#m8cd15ccdbe" x="42.873438" y="34.96289" style="stroke: #000000; stroke-width: 0.8"/>
      </g>
     </g>
     <g id="text_17">
      <text style="font-size: 10px; font-family: 'Microsoft YaHei'; text-anchor: end" x="35.873438" y="38.959765" transform="rotate(-0 35.873438 38.959765)">0.7</text>
     </g>
    </g>
    <g id="text_18">
     <text style="font-size: 10px; font-family: 'Microsoft YaHei'; text-anchor: middle" x="15.19375" y="139.9325" transform="rotate(-90 15.19375 139.9325)">Storage-node voltage (V)</text>
    </g>
   </g>
   <g id="line2d_33">
    <path d="M 60.843892 35.175871 
L 136.833243 35.267149 
L 138.887009 35.297575 
L 148.128957 35.388853 
L 150.696165 35.449705 
L 155.83058 35.540983 
L 158.91123 35.632261 
L 162.505321 35.723539 
L 167.126295 35.906095 
L 169.693502 35.997373 
L 186.637074 37.092708 
L 191.771489 37.609949 
L 193.825256 37.822931 
L 203.580645 39.070396 
L 208.201619 39.800619 
L 210.255386 40.135305 
L 217.957009 41.595752 
L 232.846814 45.216443 
L 242.602204 48.198188 
L 251.33071 51.392916 
L 258.518892 54.465939 
L 265.193632 57.751944 
L 269.814606 60.338152 
L 273.922139 62.893934 
L 279.056554 66.636329 
L 282.137204 69.283388 
L 284.704412 71.869596 
L 286.244736 73.634303 
L 287.785061 75.672843 
L 289.325386 78.198199 
L 290.352269 80.388869 
L 290.86571 81.788464 
L 291.379152 83.735726 
L 291.892593 214.658692 
L 297.54045 215.754027 
L 300.6211 216.392973 
L 303.701749 217.031918 
L 308.322723 218.020762 
L 322.699087 221.282427 
L 338.102334 225.043077 
L 358.126554 230.258089 
L 375.070126 234.888922 
L 396.12123 240.864584 
L 420.252983 247.944543 
L 420.252983 247.944543 
" clip-path="url(#p63ae44983f)" style="fill: none; stroke: #1f77b4; stroke-width: 2; stroke-linecap: square"/>
   </g>
   <g id="line2d_34">
    <path d="M 60.843892 200.510614 
L 165.072528 200.419336 
L 167.126295 200.38891 
L 178.93545 200.297632 
L 180.989217 200.267206 
L 188.177399 200.175929 
L 190.744606 200.115077 
L 196.392463 200.023799 
L 199.473113 199.932521 
L 204.094087 199.841243 
L 207.688178 199.719539 
L 211.282269 199.628261 
L 215.903243 199.445705 
L 218.983892 199.354427 
L 226.685515 198.989316 
L 228.739282 198.898038 
L 246.709736 197.741851 
L 249.790386 197.468017 
L 252.871035 197.194183 
L 268.787723 195.216495 
L 275.975905 193.847326 
L 280.596879 192.660713 
L 283.677528 191.656656 
L 286.758178 190.287487 
L 288.298502 189.405134 
L 289.325386 188.614058 
L 290.352269 187.610001 
L 290.86571 186.94063 
L 291.379152 185.966999 
L 291.892593 34.993316 
L 420.252983 34.96289 
L 420.252983 34.96289 
" clip-path="url(#p63ae44983f)" style="fill: none; stroke: #ff7f0e; stroke-width: 2; stroke-linecap: square"/>
   </g>
   <g id="line2d_35">
    <path d="M 42.873438 141.453799 
L 438.223437 141.453799 
" clip-path="url(#p63ae44983f)" style="fill: none; stroke-dasharray: 3.33,1.44; stroke-dashoffset: 0; stroke: #595959; stroke-width: 0.9"/>
   </g>
   <g id="line2d_36">
    <path d="M 291.565354 257.0725 
L 291.565354 22.7925 
" clip-path="url(#p63ae44983f)" style="fill: none; stroke-dasharray: 1.4,2.31; stroke-dashoffset: 0; stroke: #d62728; stroke-width: 1.4"/>
   </g>
   <g id="line2d_37">
    <defs>
     <path id="m4ea10c20f2" d="M 0 2.5 
C 0.663008 2.5 1.29895 2.236584 1.767767 1.767767 
C 2.236584 1.29895 2.5 0.663008 2.5 0 
C 2.5 -0.663008 2.236584 -1.29895 1.767767 -1.767767 
C 1.29895 -2.236584 0.663008 -2.5 0 -2.5 
C -0.663008 -2.5 -1.29895 -2.236584 -1.767767 -1.767767 
C -2.236584 -1.29895 -2.5 -0.663008 -2.5 0 
C -2.5 0.663008 -2.236584 1.29895 -1.767767 1.767767 
C -1.29895 2.236584 -0.663008 2.5 0 2.5 
z
" style="stroke: #d62728"/>
    </defs>
    <g clip-path="url(#p63ae44983f)">
     <use xlink:href="#m4ea10c20f2" x="291.565354" y="131.215614" style="fill: #d62728; stroke: #d62728"/>
    </g>
   </g>
   <g id="patch_3">
    <path d="M 42.873438 257.0725 
L 42.873438 22.7925 
" style="fill: none; stroke: #000000; stroke-width: 0.8; stroke-linejoin: miter; stroke-linecap: square"/>
   </g>
   <g id="patch_4">
    <path d="M 438.223437 257.0725 
L 438.223437 22.7925 
" style="fill: none; stroke: #000000; stroke-width: 0.8; stroke-linejoin: miter; stroke-linecap: square"/>
   </g>
   <g id="patch_5">
    <path d="M 42.873438 257.0725 
L 438.223437 257.0725 
" style="fill: none; stroke: #000000; stroke-width: 0.8; stroke-linejoin: miter; stroke-linecap: square"/>
   </g>
   <g id="patch_6">
    <path d="M 42.873438 22.7925 
L 438.223437 22.7925 
" style="fill: none; stroke: #000000; stroke-width: 0.8; stroke-linejoin: miter; stroke-linecap: square"/>
   </g>
   <g id="patch_7">
    <path d="M 301.506062 123.250228 
Q 297.01442 131.475389 293.005043 138.817419 
" style="fill: none; stroke: #d62728; stroke-width: 0.9; stroke-linecap: round"/>
    <path d="M 296.31024 136.520535 
L 293.005043 138.817419 
L 293.150655 134.795131 
" style="fill: none; stroke: #d62728; stroke-width: 0.9; stroke-linecap: round"/>
   </g>
   <g id="text_19">
    <g id="patch_8">
     <path d="M 272.176437 120.991844 
L 352.782687 120.991844 
Q 355.032687 120.991844 355.032687 118.741844 
L 355.032687 87.516906 
Q 355.032687 85.266906 352.782687 85.266906 
L 272.176437 85.266906 
Q 269.926437 85.266906 269.926437 87.516906 
L 269.926437 118.741844 
Q 269.926437 120.991844 272.176437 120.991844 
z
" style="fill: #ffffff; opacity: 0.95; stroke: #b2b2b2; stroke-linejoin: miter"/>
    </g>
    <text style="font-size: 9px; font-family: 'Microsoft YaHei'" transform="translate(272.176437 94.711281)">Q=QB crossing</text>
    <text style="font-size: 9px; font-family: 'Microsoft YaHei'" transform="translate(272.176437 105.633906)">BL=0.251 V</text>
    <text style="font-size: 9px; font-family: 'Microsoft YaHei'" transform="translate(272.176437 116.5045)">BL drop=449.4 mV</text>
   </g>
   <g id="text_20">
    <text style="font-size: 12px; font-family: 'Microsoft YaHei'; text-anchor: middle" x="240.548437" y="16.7925" transform="rotate(-0 240.548437 16.7925)">RC write-trip DC curve</text>
   </g>
   <g id="legend_1">
    <g id="patch_9">
     <path d="M 395.483437 153.51625 
L 432.623437 153.51625 
Q 434.223437 153.51625 434.223437 151.91625 
L 434.223437 127.94875 
Q 434.223437 126.34875 432.623437 126.34875 
L 395.483437 126.34875 
Q 393.883437 126.34875 393.883437 127.94875 
L 393.883437 151.91625 
Q 393.883437 153.51625 395.483437 153.51625 
z
" style="fill: #ffffff; opacity: 0.8; stroke: #cccccc; stroke-linejoin: miter"/>
    </g>
    <g id="line2d_38">
     <path d="M 397.083437 133.14375 
L 405.083437 133.14375 
L 413.083437 133.14375 
" style="fill: none; stroke: #1f77b4; stroke-width: 2; stroke-linecap: square"/>
    </g>
    <g id="text_21">
     <text style="font-size: 8px; font-family: 'Microsoft YaHei'; text-anchor: start" x="419.483437" y="135.94375" transform="rotate(-0 419.483437 135.94375)">Q</text>
    </g>
    <g id="line2d_39">
     <path d="M 397.083437 145.5275 
L 405.083437 145.5275 
L 413.083437 145.5275 
" style="fill: none; stroke: #ff7f0e; stroke-width: 2; stroke-linecap: square"/>
    </g>
    <g id="text_22">
     <text style="font-size: 8px; font-family: 'Microsoft YaHei'; text-anchor: start" x="419.483437" y="148.3275" transform="rotate(-0 419.483437 148.3275)">QB</text>
    </g>
   </g>
  </g>
 </g>
 <defs>
  <clipPath id="p63ae44983f">
   <rect x="42.873438" y="22.7925" width="395.35" height="234.28"/>
  </clipPath>
 </defs>
</svg>
