<?xml version="1.0" encoding="utf-8" standalone="no"?>
<!DOCTYPE svg PUBLIC "-//W3C//DTD SVG 1.1//EN"
  "http://www.w3.org/Graphics/SVG/1.1/DTD/svg11.dtd">
<svg xmlns:xlink="http://www.w3.org/1999/xlink" width="754.954531pt" height="293.825187pt" viewBox="0 0 754.954531 293.825187" xmlns="http://www.w3.org/2000/svg" version="1.1">
 <metadata>
  <rdf:RDF xmlns:dc="http://purl.org/dc/elements/1.1/" xmlns:cc="http://creativecommons.org/ns#" xmlns:rdf="http://www.w3.org/1999/02/22-rdf-syntax-ns#">
   <cc:Work>
    <dc:type rdf:resource="http://purl.org/dc/dcmitype/StillImage"/>
    <dc:date>2026-07-14T10:41:12.838349</dc:date>
    <dc:format>image/svg+xml</dc:format>
    <dc:creator>
     <cc:Agent>
      <dc:title>Matplotlib v3.10.8, https://matplotlib.org/</dc:title>
     </cc:Agent>
    </dc:creator>
   </cc:Work>
  </rdf:RDF>
 </metadata>
 <defs>
  <style type="text/css">*{stroke-linejoin: round; stroke-linecap: butt}</style>
 </defs>
 <g id="figure_1">
  <g id="patch_1">
   <path d="M 0 293.825187 
L 754.954531 293.825187 
L 754.954531 -0 
L 0 -0 
z
" style="fill: #ffffff"/>
  </g>
  <g id="axes_1">
   <g id="patch_2">
    <path d="M 42.873438 254.608 
L 340.48274 254.608 
L 340.48274 75.552 
L 42.873438 75.552 
z
" style="fill: #ffffff"/>
   </g>
   <g id="matplotlib.axis_1">
    <g id="xtick_1">
     <g id="line2d_1">
      <path d="M 42.873438 254.608 
L 42.873438 75.552 
" clip-path="url(#p1d3cc4ed42)" style="fill: none; stroke: #b0b0b0; stroke-opacity: 0.28; stroke-width: 0.8; stroke-linecap: square"/>
     </g>
     <g id="line2d_2">
      <defs>
       <path id="m67d050e3c2" d="M 0 0 
L 0 3.5 
" style="stroke: #000000; stroke-width: 0.8"/>
      </defs>
      <g>
       <use xlink:href="#m67d050e3c2" x="42.873438" y="254.608" style="stroke: #000000; stroke-width: 0.8"/>
      </g>
     </g>
     <g id="text_1">
      <text style="font-size: 10px; font-family: 'Microsoft YaHei'; text-anchor: middle" x="42.873438" y="269.60175" transform="rotate(-0 42.873438 269.60175)">0</text>
     </g>
    </g>
    <g id="xtick_2">
     <g id="line2d_3">
      <path d="M 102.395298 254.608 
L 102.395298 75.552 
" clip-path="url(#p1d3cc4ed42)" style="fill: none; stroke: #b0b0b0; stroke-opacity: 0.28; stroke-width: 0.8; stroke-linecap: square"/>
     </g>
     <g id="line2d_4">
      <g>
       <use xlink:href="#m67d050e3c2" x="102.395298" y="254.608" style="stroke: #000000; stroke-width: 0.8"/>
      </g>
     </g>
     <g id="text_2">
      <text style="font-size: 10px; font-family: 'Microsoft YaHei'; text-anchor: middle" x="102.395298" y="269.60175" transform="rotate(-0 102.395298 269.60175)">100</text>
     </g>
    </g>
    <g id="xtick_3">
     <g id="line2d_5">
      <path d="M 161.917158 254.608 
L 161.917158 75.552 
" clip-path="url(#p1d3cc4ed42)" style="fill: none; stroke: #b0b0b0; stroke-opacity: 0.28; stroke-width: 0.8; stroke-linecap: square"/>
     </g>
     <g id="line2d_6">
      <g>
       <use xlink:href="#m67d050e3c2" x="161.917158" y="254.608" style="stroke: #000000; stroke-width: 0.8"/>
      </g>
     </g>
     <g id="text_3">
      <text style="font-size: 10px; font-family: 'Microsoft YaHei'; text-anchor: middle" x="161.917158" y="269.60175" transform="rotate(-0 161.917158 269.60175)">200</text>
     </g>
    </g>
    <g id="xtick_4">
     <g id="line2d_7">
      <path d="M 221.439019 254.608 
L 221.439019 75.552 
" clip-path="url(#p1d3cc4ed42)" style="fill: none; stroke: #b0b0b0; stroke-opacity: 0.28; stroke-width: 0.8; stroke-linecap: square"/>
     </g>
     <g id="line2d_8">
      <g>
       <use xlink:href="#m67d050e3c2" x="221.439019" y="254.608" style="stroke: #000000; stroke-width: 0.8"/>
      </g>
     </g>
     <g id="text_4">
      <text style="font-size: 10px; font-family: 'Microsoft YaHei'; text-anchor: middle" x="221.439019" y="269.60175" transform="rotate(-0 221.439019 269.60175)">300</text>
     </g>
    </g>
    <g id="xtick_5">
     <g id="line2d_9">
      <path d="M 280.960879 254.608 
L 280.960879 75.552 
" clip-path="url(#p1d3cc4ed42)" style="fill: none; stroke: #b0b0b0; stroke-opacity: 0.28; stroke-width: 0.8; stroke-linecap: square"/>
     </g>
     <g id="line2d_10">
      <g>
       <use xlink:href="#m67d050e3c2" x="280.960879" y="254.608" style="stroke: #000000; stroke-width: 0.8"/>
      </g>
     </g>
     <g id="text_5">
      <text style="font-size: 10px; font-family: 'Microsoft YaHei'; text-anchor: middle" x="280.960879" y="269.60175" transform="rotate(-0 280.960879 269.60175)">400</text>
     </g>
    </g>
    <g id="xtick_6">
     <g id="line2d_11">
      <path d="M 340.48274 254.608 
L 340.48274 75.552 
" clip-path="url(#p1d3cc4ed42)" style="fill: none; stroke: #b0b0b0; stroke-opacity: 0.28; stroke-width: 0.8; stroke-linecap: square"/>
     </g>
     <g id="line2d_12">
      <g>
       <use xlink:href="#m67d050e3c2" x="340.48274" y="254.608" style="stroke: #000000; stroke-width: 0.8"/>
      </g>
     </g>
     <g id="text_6">
      <text style="font-size: 10px; font-family: 'Microsoft YaHei'; text-anchor: middle" x="340.48274" y="269.60175" transform="rotate(-0 340.48274 269.60175)">500</text>
     </g>
    </g>
    <g id="text_7">
     <text style="font-size: 10px; font-family: 'Microsoft YaHei'; text-anchor: middle" x="191.678089" y="284.081437" transform="rotate(-0 191.678089 284.081437)">Injected read noise VN (mV)</text>
    </g>
   </g>
   <g id="matplotlib.axis_2">
    <g id="ytick_1">
     <g id="line2d_13">
      <path d="M 42.873438 247.54 
L 340.48274 247.54 
" clip-path="url(#p1d3cc4ed42)" style="fill: none; stroke: #b0b0b0; stroke-opacity: 0.28; stroke-width: 0.8; stroke-linecap: square"/>
     </g>
     <g id="line2d_14">
      <defs>
       <path id="me91a2e4252" d="M 0 0 
L -3.5 0 
" style="stroke: #000000; stroke-width: 0.8"/>
      </defs>
      <g>
       <use xlink:href="#me91a2e4252" x="42.873438" y="247.54" style="stroke: #000000; stroke-width: 0.8"/>
      </g>
     </g>
     <g id="text_8">
      <text style="font-size: 10px; font-family: 'Microsoft YaHei'; text-anchor: end" x="35.873438" y="251.536875" transform="rotate(-0 35.873438 251.536875)">0.0</text>
     </g>
    </g>
    <g id="ytick_2">
     <g id="line2d_15">
      <path d="M 42.873438 223.98 
L 340.48274 223.98 
" clip-path="url(#p1d3cc4ed42)" style="fill: none; stroke: #b0b0b0; stroke-opacity: 0.28; stroke-width: 0.8; stroke-linecap: square"/>
     </g>
     <g id="line2d_16">
      <g>
       <use xlink:href="#me91a2e4252" x="42.873438" y="223.98" style="stroke: #000000; stroke-width: 0.8"/>
      </g>
     </g>
     <g id="text_9">
      <text style="font-size: 10px; font-family: 'Microsoft YaHei'; text-anchor: end" x="35.873438" y="227.976875" transform="rotate(-0 35.873438 227.976875)">0.1</text>
     </g>
    </g>
    <g id="ytick_3">
     <g id="line2d_17">
      <path d="M 42.873438 200.42 
L 340.48274 200.42 
" clip-path="url(#p1d3cc4ed42)" style="fill: none; stroke: #b0b0b0; stroke-opacity: 0.28; stroke-width: 0.8; stroke-linecap: square"/>
     </g>
     <g id="line2d_18">
      <g>
       <use xlink:href="#me91a2e4252" x="42.873438" y="200.42" style="stroke: #000000; stroke-width: 0.8"/>
      </g>
     </g>
     <g id="text_10">
      <text style="font-size: 10px; font-family: 'Microsoft YaHei'; text-anchor: end" x="35.873438" y="204.416875" transform="rotate(-0 35.873438 204.416875)">0.2</text>
     </g>
    </g>
    <g id="ytick_4">
     <g id="line2d_19">
      <path d="M 42.873438 176.86 
L 340.48274 176.86 
" clip-path="url(#p1d3cc4ed42)" style="fill: none; stroke: #b0b0b0; stroke-opacity: 0.28; stroke-width: 0.8; stroke-linecap: square"/>
     </g>
     <g id="line2d_20">
      <g>
       <use xlink:href="#me91a2e4252" x="42.873438" y="176.86" style="stroke: #000000; stroke-width: 0.8"/>
      </g>
     </g>
     <g id="text_11">
      <text style="font-size: 10px; font-family: 'Microsoft YaHei'; text-anchor: end" x="35.873438" y="180.856875" transform="rotate(-0 35.873438 180.856875)">0.3</text>
     </g>
    </g>
    <g id="ytick_5">
     <g id="line2d_21">
      <path d="M 42.873438 153.3 
L 340.48274 153.3 
" clip-path="url(#p1d3cc4ed42)" style="fill: none; stroke: #b0b0b0; stroke-opacity: 0.28; stroke-width: 0.8; stroke-linecap: square"/>
     </g>
     <g id="line2d_22">
      <g>
       <use xlink:href="#me91a2e4252" x="42.873438" y="153.3" style="stroke: #000000; stroke-width: 0.8"/>
      </g>
     </g>
     <g id="text_12">
      <text style="font-size: 10px; font-family: 'Microsoft YaHei'; text-anchor: end" x="35.873438" y="157.296875" transform="rotate(-0 35.873438 157.296875)">0.4</text>
     </g>
    </g>
    <g id="ytick_6">
     <g id="line2d_23">
      <path d="M 42.873438 129.74 
L 340.48274 129.74 
" clip-path="url(#p1d3cc4ed42)" style="fill: none; stroke: #b0b0b0; stroke-opacity: 0.28; stroke-width: 0.8; stroke-linecap: square"/>
     </g>
     <g id="line2d_24">
      <g>
       <use xlink:href="#me91a2e4252" x="42.873438" y="129.74" style="stroke: #000000; stroke-width: 0.8"/>
      </g>
     </g>
     <g id="text_13">
      <text style="font-size: 10px; font-family: 'Microsoft YaHei'; text-anchor: end" x="35.873438" y="133.736875" transform="rotate(-0 35.873438 133.736875)">0.5</text>
     </g>
    </g>
    <g id="ytick_7">
     <g id="line2d_25">
      <path d="M 42.873438 106.18 
L 340.48274 106.18 
" clip-path="url(#p1d3cc4ed42)" style="fill: none; stroke: #b0b0b0; stroke-opacity: 0.28; stroke-width: 0.8; stroke-linecap: square"/>
     </g>
     <g id="line2d_26">
      <g>
       <use xlink:href="#me91a2e4252" x="42.873438" y="106.18" style="stroke: #000000; stroke-width: 0.8"/>
      </g>
     </g>
     <g id="text_14">
      <text style="font-size: 10px; font-family: 'Microsoft YaHei'; text-anchor: end" x="35.873438" y="110.176875" transform="rotate(-0 35.873438 110.176875)">0.6</text>
     </g>
    </g>
    <g id="ytick_8">
     <g id="line2d_27">
      <path d="M 42.873438 82.62 
L 340.48274 82.62 
" clip-path="url(#p1d3cc4ed42)" style="fill: none; stroke: #b0b0b0; stroke-opacity: 0.28; stroke-width: 0.8; stroke-linecap: square"/>
     </g>
     <g id="line2d_28">
      <g>
       <use xlink:href="#me91a2e4252" x="42.873438" y="82.62" style="stroke: #000000; stroke-width: 0.8"/>
      </g>
     </g>
     <g id="text_15">
      <text style="font-size: 10px; font-family: 'Microsoft YaHei'; text-anchor: end" x="35.873438" y="86.616875" transform="rotate(-0 35.873438 86.616875)">0.7</text>
     </g>
    </g>
    <g id="text_16">
     <text style="font-size: 10px; font-family: 'Microsoft YaHei'; text-anchor: middle" x="15.19375" y="165.08" transform="rotate(-90 15.19375 165.08)">Storage-node voltage (V)</text>
    </g>
   </g>
   <g id="line2d_29">
    <path d="M 42.873438 82.78492 
L 50.611279 82.87916 
L 55.968247 82.99696 
L 60.134777 83.0912 
L 73.229586 83.70376 
L 82.157865 84.5048 
L 87.514833 85.23516 
L 91.086144 85.89484 
L 94.062237 86.57808 
L 97.038331 87.47336 
L 99.419205 88.41576 
L 101.204861 89.31104 
L 102.395298 90.06496 
L 103.585735 91.05448 
L 104.180954 91.66704 
L 104.776172 92.44452 
L 105.371391 93.5754 
L 105.96661 213.94344 
L 128.584917 214.74448 
L 132.156228 214.83872 
L 143.465382 215.19212 
L 147.036693 215.28636 
L 155.369754 215.52196 
L 159.536284 215.6162 
L 167.274126 215.82824 
L 171.440656 215.92248 
L 177.988061 216.0874 
L 182.74981 216.18164 
L 188.701996 216.323 
L 193.463744 216.41724 
L 198.820712 216.53504 
L 204.177679 216.62928 
L 209.534647 216.74708 
L 214.891614 216.84132 
L 220.248582 216.95912 
L 226.200768 217.05336 
L 230.962517 217.1476 
L 237.509921 217.24184 
L 242.27167 217.33608 
L 248.819075 217.43032 
L 252.985605 217.501 
L 259.53301 217.59524 
L 263.69954 217.66592 
L 270.842163 217.76016 
L 275.008693 217.83084 
L 282.746535 217.92508 
L 286.913065 217.99576 
L 295.246126 218.09 
L 299.412656 218.16068 
L 308.340935 218.25492 
L 312.507465 218.3256 
L 322.030963 218.41984 
L 325.602275 218.46696 
L 334.530554 218.5612 
L 338.101865 218.60832 
L 340.48274 218.63188 
L 340.48274 218.63188 
" clip-path="url(#p1d3cc4ed42)" style="fill: none; stroke: #1f77b4; stroke-width: 1.9; stroke-linecap: square"/>
   </g>
   <g id="line2d_30">
    <path d="M 42.873438 210.80996 
L 71.443931 208.45396 
L 86.324396 206.59272 
L 92.276582 205.55608 
L 99.419205 203.78908 
L 101.800079 202.94092 
L 104.180954 201.69224 
L 104.776172 201.22104 
L 105.371391 200.58492 
L 105.96661 82.62 
L 340.48274 82.62 
L 340.48274 82.62 
" clip-path="url(#p1d3cc4ed42)" style="fill: none; stroke-dasharray: 5.55,2.4; stroke-dashoffset: 0; stroke: #1f77b4; stroke-width: 1.5"/>
   </g>
   <g id="line2d_31">
    <path d="M 42.873438 210.80996 
L 72.039149 208.40684 
L 86.324396 206.61628 
L 92.276582 205.57964 
L 97.038331 204.543 
L 100.609642 203.4828 
L 102.990517 202.51684 
L 104.180954 201.88072 
L 105.371391 200.91476 
L 105.96661 200.01948 
L 106.561828 82.62 
L 340.48274 82.62 
L 340.48274 82.62 
" clip-path="url(#p1d3cc4ed42)" style="fill: none; stroke: #d62728; stroke-width: 1.9; stroke-linecap: square"/>
   </g>
   <g id="line2d_32">
    <path d="M 42.873438 82.76136 
L 46.444749 82.80848 
L 52.992154 82.90272 
L 59.539558 83.06764 
L 62.515651 83.16188 
L 73.824805 83.70376 
L 83.348303 84.55192 
L 88.110051 85.2116 
L 91.681363 85.87128 
L 96.443112 87.0964 
L 98.823986 87.921 
L 101.204861 89.02832 
L 102.990517 90.18276 
L 104.180954 91.2194 
L 104.776172 91.9262 
L 105.371391 92.84504 
L 105.96661 94.44712 
L 106.561828 213.967 
L 129.180135 214.76804 
L 132.751447 214.86228 
L 144.0606 215.21568 
L 147.631912 215.30992 
L 155.369754 215.52196 
L 159.536284 215.6162 
L 167.274126 215.82824 
L 171.440656 215.92248 
L 177.988061 216.0874 
L 182.74981 216.18164 
L 188.701996 216.323 
L 193.463744 216.41724 
L 198.820712 216.53504 
L 203.582461 216.62928 
L 208.939428 216.74708 
L 214.891614 216.84132 
L 220.248582 216.95912 
L 226.200768 217.05336 
L 230.962517 217.1476 
L 237.509921 217.24184 
L 242.27167 217.33608 
L 248.819075 217.43032 
L 252.985605 217.501 
L 259.53301 217.59524 
L 263.69954 217.66592 
L 270.842163 217.76016 
L 275.008693 217.83084 
L 282.746535 217.92508 
L 286.913065 217.99576 
L 294.650907 218.09 
L 298.222219 218.13712 
L 305.960061 218.23136 
L 309.531372 218.27848 
L 317.864433 218.37272 
L 321.435744 218.41984 
L 330.364024 218.51408 
L 333.935335 218.5612 
L 340.48274 218.63188 
L 340.48274 218.63188 
" clip-path="url(#p1d3cc4ed42)" style="fill: none; stroke-dasharray: 5.55,2.4; stroke-dashoffset: 0; stroke: #d62728; stroke-width: 1.5"/>
   </g>
   <g id="line2d_33">
    <path d="M 105.96661 254.608 
L 105.96661 75.552 
" clip-path="url(#p1d3cc4ed42)" style="fill: none; stroke-dasharray: 7.68,1.92,1.2,1.92; stroke-dashoffset: 0; stroke: #262626; stroke-width: 1.2"/>
   </g>
   <g id="patch_3">
    <path d="M 42.873438 254.608 
L 42.873438 75.552 
" style="fill: none; stroke: #000000; stroke-width: 0.8; stroke-linejoin: miter; stroke-linecap: square"/>
   </g>
   <g id="patch_4">
    <path d="M 340.48274 254.608 
L 340.48274 75.552 
" style="fill: none; stroke: #000000; stroke-width: 0.8; stroke-linejoin: miter; stroke-linecap: square"/>
   </g>
   <g id="patch_5">
    <path d="M 42.873438 254.608 
L 340.48274 254.608 
" style="fill: none; stroke: #000000; stroke-width: 0.8; stroke-linejoin: miter; stroke-linecap: square"/>
   </g>
   <g id="patch_6">
    <path d="M 42.873438 75.552 
L 340.48274 75.552 
" style="fill: none; stroke: #000000; stroke-width: 0.8; stroke-linejoin: miter; stroke-linecap: square"/>
   </g>
   <g id="text_17">
    <text style="font-size: 12px; font-family: 'Microsoft YaHei'; text-anchor: middle" x="191.678089" y="69.552" transform="rotate(-0 191.678089 69.552)">Full sweep</text>
   </g>
   <g id="legend_1">
    <g id="patch_7">
     <path d="M 267.78938 251.358 
L 335.93274 251.358 
Q 337.23274 251.358 337.23274 250.058 
L 337.23274 210.460812 
Q 337.23274 209.160812 335.93274 209.160812 
L 267.78938 209.160812 
Q 266.48938 209.160812 266.48938 210.460812 
L 266.48938 250.058 
Q 266.48938 251.358 267.78938 251.358 
z
" style="fill: #ffffff; opacity: 0.8; stroke: #cccccc; stroke-linejoin: miter"/>
    </g>
    <g id="line2d_34">
     <path d="M 269.08938 214.68175 
L 275.58938 214.68175 
L 282.08938 214.68175 
" style="fill: none; stroke: #1f77b4; stroke-width: 1.9; stroke-linecap: square"/>
    </g>
    <g id="text_18">
     <text style="font-size: 6.5px; font-family: 'Microsoft YaHei'; text-anchor: start" x="287.28938" y="216.95675" transform="rotate(-0 287.28938 216.95675)">Q=1 init: V(Q)</text>
    </g>
    <g id="line2d_35">
     <path d="M 269.08938 224.743547 
L 275.58938 224.743547 
L 282.08938 224.743547 
" style="fill: none; stroke-dasharray: 5.55,2.4; stroke-dashoffset: 0; stroke: #1f77b4; stroke-width: 1.5"/>
    </g>
    <g id="text_19">
     <text style="font-size: 6.5px; font-family: 'Microsoft YaHei'; text-anchor: start" x="287.28938" y="227.018547" transform="rotate(-0 287.28938 227.018547)">Q=1 init: V(QB)</text>
    </g>
    <g id="line2d_36">
     <path d="M 269.08938 234.805344 
L 275.58938 234.805344 
L 282.08938 234.805344 
" style="fill: none; stroke: #d62728; stroke-width: 1.9; stroke-linecap: square"/>
    </g>
    <g id="text_20">
     <text style="font-size: 6.5px; font-family: 'Microsoft YaHei'; text-anchor: start" x="287.28938" y="237.080344" transform="rotate(-0 287.28938 237.080344)">Q=0 init: V(Q)</text>
    </g>
    <g id="line2d_37">
     <path d="M 269.08938 244.867141 
L 275.58938 244.867141 
L 282.08938 244.867141 
" style="fill: none; stroke-dasharray: 5.55,2.4; stroke-dashoffset: 0; stroke: #d62728; stroke-width: 1.5"/>
    </g>
    <g id="text_21">
     <text style="font-size: 6.5px; font-family: 'Microsoft YaHei'; text-anchor: start" x="287.28938" y="247.142141" transform="rotate(-0 287.28938 247.142141)">Q=0 init: V(QB)</text>
    </g>
   </g>
  </g>
  <g id="axes_2">
   <g id="patch_8">
    <path d="M 396.70774 254.608 
L 738.958437 254.608 
L 738.958437 75.552 
L 396.70774 75.552 
z
" style="fill: #ffffff"/>
   </g>
   <g id="matplotlib.axis_3">
    <g id="xtick_7">
     <g id="line2d_38">
      <path d="M 396.70774 254.608 
L 396.70774 75.552 
" clip-path="url(#p3afc949a20)" style="fill: none; stroke: #b0b0b0; stroke-opacity: 0.28; stroke-width: 0.8; stroke-linecap: square"/>
     </g>
     <g id="line2d_39">
      <g>
       <use xlink:href="#m67d050e3c2" x="396.70774" y="254.608" style="stroke: #000000; stroke-width: 0.8"/>
      </g>
     </g>
     <g id="text_22">
      <text style="font-size: 10px; font-family: 'Microsoft YaHei'; text-anchor: middle" x="396.70774" y="269.60175" transform="rotate(-0 396.70774 269.60175)">100</text>
     </g>
    </g>
    <g id="xtick_8">
     <g id="line2d_40">
      <path d="M 465.157879 254.608 
L 465.157879 75.552 
" clip-path="url(#p3afc949a20)" style="fill: none; stroke: #b0b0b0; stroke-opacity: 0.28; stroke-width: 0.8; stroke-linecap: square"/>
     </g>
     <g id="line2d_41">
      <g>
       <use xlink:href="#m67d050e3c2" x="465.157879" y="254.608" style="stroke: #000000; stroke-width: 0.8"/>
      </g>
     </g>
     <g id="text_23">
      <text style="font-size: 10px; font-family: 'Microsoft YaHei'; text-anchor: middle" x="465.157879" y="269.60175" transform="rotate(-0 465.157879 269.60175)">102</text>
     </g>
    </g>
    <g id="xtick_9">
     <g id="line2d_42">
      <path d="M 533.608019 254.608 
L 533.608019 75.552 
" clip-path="url(#p3afc949a20)" style="fill: none; stroke: #b0b0b0; stroke-opacity: 0.28; stroke-width: 0.8; stroke-linecap: square"/>
     </g>
     <g id="line2d_43">
      <g>
       <use xlink:href="#m67d050e3c2" x="533.608019" y="254.608" style="stroke: #000000; stroke-width: 0.8"/>
      </g>
     </g>
     <g id="text_24">
      <text style="font-size: 10px; font-family: 'Microsoft YaHei'; text-anchor: middle" x="533.608019" y="269.60175" transform="rotate(-0 533.608019 269.60175)">104</text>
     </g>
    </g>
    <g id="xtick_10">
     <g id="line2d_44">
      <path d="M 602.058158 254.608 
L 602.058158 75.552 
" clip-path="url(#p3afc949a20)" style="fill: none; stroke: #b0b0b0; stroke-opacity: 0.28; stroke-width: 0.8; stroke-linecap: square"/>
     </g>
     <g id="line2d_45">
      <g>
       <use xlink:href="#m67d050e3c2" x="602.058158" y="254.608" style="stroke: #000000; stroke-width: 0.8"/>
      </g>
     </g>
     <g id="text_25">
      <text style="font-size: 10px; font-family: 'Microsoft YaHei'; text-anchor: middle" x="602.058158" y="269.60175" transform="rotate(-0 602.058158 269.60175)">106</text>
     </g>
    </g>
    <g id="xtick_11">
     <g id="line2d_46">
      <path d="M 670.508298 254.608 
L 670.508298 75.552 
" clip-path="url(#p3afc949a20)" style="fill: none; stroke: #b0b0b0; stroke-opacity: 0.28; stroke-width: 0.8; stroke-linecap: square"/>
     </g>
     <g id="line2d_47">
      <g>
       <use xlink:href="#m67d050e3c2" x="670.508298" y="254.608" style="stroke: #000000; stroke-width: 0.8"/>
      </g>
     </g>
     <g id="text_26">
      <text style="font-size: 10px; font-family: 'Microsoft YaHei'; text-anchor: middle" x="670.508298" y="269.60175" transform="rotate(-0 670.508298 269.60175)">108</text>
     </g>
    </g>
    <g id="xtick_12">
     <g id="line2d_48">
      <path d="M 738.958437 254.608 
L 738.958437 75.552 
" clip-path="url(#p3afc949a20)" style="fill: none; stroke: #b0b0b0; stroke-opacity: 0.28; stroke-width: 0.8; stroke-linecap: square"/>
     </g>
     <g id="line2d_49">
      <g>
       <use xlink:href="#m67d050e3c2" x="738.958437" y="254.608" style="stroke: #000000; stroke-width: 0.8"/>
      </g>
     </g>
     <g id="text_27">
      <text style="font-size: 10px; font-family: 'Microsoft YaHei'; text-anchor: middle" x="738.958437" y="269.60175" transform="rotate(-0 738.958437 269.60175)">110</text>
     </g>
    </g>
    <g id="text_28">
     <text style="font-size: 10px; font-family: 'Microsoft YaHei'; text-anchor: middle" x="567.833089" y="284.081437" transform="rotate(-0 567.833089 284.081437)">Injected read noise VN (mV)</text>
    </g>
   </g>
   <g id="matplotlib.axis_4">
    <g id="ytick_9">
     <g id="line2d_50">
      <path d="M 396.70774 249.0125 
L 738.958437 249.0125 
" clip-path="url(#p3afc949a20)" style="fill: none; stroke: #b0b0b0; stroke-opacity: 0.28; stroke-width: 0.8; stroke-linecap: square"/>
     </g>
     <g id="line2d_51">
      <g>
       <use xlink:href="#me91a2e4252" x="396.70774" y="249.0125" style="stroke: #000000; stroke-width: 0.8"/>
      </g>
     </g>
     <g id="text_29">
      <text style="font-size: 10px; font-family: 'Microsoft YaHei'; text-anchor: end" x="389.70774" y="253.009375" transform="rotate(-0 389.70774 253.009375)">0.1</text>
     </g>
    </g>
    <g id="ytick_10">
     <g id="line2d_52">
      <path d="M 396.70774 221.035 
L 738.958437 221.035 
" clip-path="url(#p3afc949a20)" style="fill: none; stroke: #b0b0b0; stroke-opacity: 0.28; stroke-width: 0.8; stroke-linecap: square"/>
     </g>
     <g id="line2d_53">
      <g>
       <use xlink:href="#me91a2e4252" x="396.70774" y="221.035" style="stroke: #000000; stroke-width: 0.8"/>
      </g>
     </g>
     <g id="text_30">
      <text style="font-size: 10px; font-family: 'Microsoft YaHei'; text-anchor: end" x="389.70774" y="225.031875" transform="rotate(-0 389.70774 225.031875)">0.2</text>
     </g>
    </g>
    <g id="ytick_11">
     <g id="line2d_54">
      <path d="M 396.70774 193.0575 
L 738.958437 193.0575 
" clip-path="url(#p3afc949a20)" style="fill: none; stroke: #b0b0b0; stroke-opacity: 0.28; stroke-width: 0.8; stroke-linecap: square"/>
     </g>
     <g id="line2d_55">
      <g>
       <use xlink:href="#me91a2e4252" x="396.70774" y="193.0575" style="stroke: #000000; stroke-width: 0.8"/>
      </g>
     </g>
     <g id="text_31">
      <text style="font-size: 10px; font-family: 'Microsoft YaHei'; text-anchor: end" x="389.70774" y="197.054375" transform="rotate(-0 389.70774 197.054375)">0.3</text>
     </g>
    </g>
    <g id="ytick_12">
     <g id="line2d_56">
      <path d="M 396.70774 165.08 
L 738.958437 165.08 
" clip-path="url(#p3afc949a20)" style="fill: none; stroke: #b0b0b0; stroke-opacity: 0.28; stroke-width: 0.8; stroke-linecap: square"/>
     </g>
     <g id="line2d_57">
      <g>
       <use xlink:href="#me91a2e4252" x="396.70774" y="165.08" style="stroke: #000000; stroke-width: 0.8"/>
      </g>
     </g>
     <g id="text_32">
      <text style="font-size: 10px; font-family: 'Microsoft YaHei'; text-anchor: end" x="389.70774" y="169.076875" transform="rotate(-0 389.70774 169.076875)">0.4</text>
     </g>
    </g>
    <g id="ytick_13">
     <g id="line2d_58">
      <path d="M 396.70774 137.1025 
L 738.958437 137.1025 
" clip-path="url(#p3afc949a20)" style="fill: none; stroke: #b0b0b0; stroke-opacity: 0.28; stroke-width: 0.8; stroke-linecap: square"/>
     </g>
     <g id="line2d_59">
      <g>
       <use xlink:href="#me91a2e4252" x="396.70774" y="137.1025" style="stroke: #000000; stroke-width: 0.8"/>
      </g>
     </g>
     <g id="text_33">
      <text style="font-size: 10px; font-family: 'Microsoft YaHei'; text-anchor: end" x="389.70774" y="141.099375" transform="rotate(-0 389.70774 141.099375)">0.5</text>
     </g>
    </g>
    <g id="ytick_14">
     <g id="line2d_60">
      <path d="M 396.70774 109.125 
L 738.958437 109.125 
" clip-path="url(#p3afc949a20)" style="fill: none; stroke: #b0b0b0; stroke-opacity: 0.28; stroke-width: 0.8; stroke-linecap: square"/>
     </g>
     <g id="line2d_61">
      <g>
       <use xlink:href="#me91a2e4252" x="396.70774" y="109.125" style="stroke: #000000; stroke-width: 0.8"/>
      </g>
     </g>
     <g id="text_34">
      <text style="font-size: 10px; font-family: 'Microsoft YaHei'; text-anchor: end" x="389.70774" y="113.121875" transform="rotate(-0 389.70774 113.121875)">0.6</text>
     </g>
    </g>
    <g id="ytick_15">
     <g id="line2d_62">
      <path d="M 396.70774 81.1475 
L 738.958437 81.1475 
" clip-path="url(#p3afc949a20)" style="fill: none; stroke: #b0b0b0; stroke-opacity: 0.28; stroke-width: 0.8; stroke-linecap: square"/>
     </g>
     <g id="line2d_63">
      <g>
       <use xlink:href="#me91a2e4252" x="396.70774" y="81.1475" style="stroke: #000000; stroke-width: 0.8"/>
      </g>
     </g>
     <g id="text_35">
      <text style="font-size: 10px; font-family: 'Microsoft YaHei'; text-anchor: end" x="389.70774" y="85.144375" transform="rotate(-0 389.70774 85.144375)">0.7</text>
     </g>
    </g>
    <g id="text_36">
     <text style="font-size: 10px; font-family: 'Microsoft YaHei'; text-anchor: middle" x="369.028052" y="165.08" transform="rotate(-90 369.028052 165.08)">Storage-node voltage (V)</text>
    </g>
   </g>
   <g id="line2d_64">
    <path d="M -1 86.324375 
L 157.132251 87.41446 
L 294.032531 88.701425 
L 362.48267 89.512773 
L 430.93281 90.54794 
L 465.157879 91.163445 
L 499.382949 91.89086 
L 533.608019 92.814118 
L 567.833089 94.157038 
L 602.058158 237.094085 
L 755.954531 237.219889 
L 755.954531 237.219889 
" clip-path="url(#p3afc949a20)" style="fill: none; stroke: #1f77b4; stroke-width: 1.9; stroke-linecap: square"/>
   </g>
   <g id="line2d_65">
    <path d="M -1 226.314975 
L 157.132251 225.455445 
L 259.807461 224.811962 
L 362.48267 224.028592 
L 465.157879 222.993425 
L 499.382949 222.545785 
L 533.608019 221.986235 
L 567.833089 221.230842 
L 602.058158 81.1475 
L 755.954531 81.1475 
L 755.954531 81.1475 
" clip-path="url(#p3afc949a20)" style="fill: none; stroke-dasharray: 5.55,2.4; stroke-dashoffset: 0; stroke: #1f77b4; stroke-width: 1.5"/>
   </g>
   <g id="line2d_66">
    <path d="M -1 226.37093 
L 191.357321 225.343535 
L 294.032531 224.672075 
L 396.70774 223.860727 
L 499.382949 222.769605 
L 533.608019 222.26601 
L 567.833089 221.622527 
L 602.058158 220.559382 
L 636.283228 81.1475 
L 755.954531 81.1475 
L 755.954531 81.1475 
" clip-path="url(#p3afc949a20)" style="fill: none; stroke: #d62728; stroke-width: 1.9; stroke-linecap: square"/>
   </g>
   <g id="line2d_67">
    <path d="M -1 86.117912 
L 122.907182 86.910865 
L 225.582391 87.75019 
L 328.2576 88.75738 
L 396.70774 89.624683 
L 465.157879 90.687827 
L 499.382949 91.359288 
L 533.608019 92.198613 
L 567.833089 93.289735 
L 602.058158 95.192205 
L 636.283228 237.122062 
L 755.954531 237.219889 
L 755.954531 237.219889 
" clip-path="url(#p3afc949a20)" style="fill: none; stroke-dasharray: 5.55,2.4; stroke-dashoffset: 0; stroke: #d62728; stroke-width: 1.5"/>
   </g>
   <g id="line2d_68">
    <path d="M 602.058158 254.608 
L 602.058158 75.552 
" clip-path="url(#p3afc949a20)" style="fill: none; stroke-dasharray: 7.68,1.92,1.2,1.92; stroke-dashoffset: 0; stroke: #262626; stroke-width: 1.2"/>
   </g>
   <g id="patch_9">
    <path d="M 396.70774 254.608 
L 396.70774 75.552 
" style="fill: none; stroke: #000000; stroke-width: 0.8; stroke-linejoin: miter; stroke-linecap: square"/>
   </g>
   <g id="patch_10">
    <path d="M 738.958437 254.608 
L 738.958437 75.552 
" style="fill: none; stroke: #000000; stroke-width: 0.8; stroke-linejoin: miter; stroke-linecap: square"/>
   </g>
   <g id="patch_11">
    <path d="M 396.70774 254.608 
L 738.958437 254.608 
" style="fill: none; stroke: #000000; stroke-width: 0.8; stroke-linejoin: miter; stroke-linecap: square"/>
   </g>
   <g id="patch_12">
    <path d="M 396.70774 75.552 
L 738.958437 75.552 
" style="fill: none; stroke: #000000; stroke-width: 0.8; stroke-linejoin: miter; stroke-linecap: square"/>
   </g>
   <g id="text_37">
    <g id="patch_13">
     <path d="M 405.264007 119.707953 
L 481.706898 119.707953 
Q 483.831898 119.707953 483.831898 117.582953 
L 483.831898 88.141875 
Q 483.831898 86.016875 481.706898 86.016875 
L 405.264007 86.016875 
Q 403.139007 86.016875 403.139007 88.141875 
L 403.139007 117.582953 
Q 403.139007 119.707953 405.264007 119.707953 
z
" style="fill: #ffffff; opacity: 0.95; stroke: #a6a6a6; stroke-linejoin: miter"/>
    </g>
    <text style="font-size: 8.5px; font-family: 'Microsoft YaHei'" transform="translate(405.264007 94.936563)">RSNM = 106.0 mV</text>
    <text style="font-size: 8.5px; font-family: 'Microsoft YaHei'" transform="translate(405.264007 105.203234)">Q=1 crit: 106.0 mV</text>
    <text style="font-size: 8.5px; font-family: 'Microsoft YaHei'" transform="translate(405.264007 115.469906)">Q=0 crit: 107.0 mV</text>
   </g>
   <g id="text_38">
    <text style="font-size: 12px; font-family: 'Microsoft YaHei'; text-anchor: middle" x="567.833089" y="69.552" transform="rotate(-0 567.833089 69.552)">Critical region: 100–110 mV</text>
   </g>
   <g id="legend_2">
    <g id="patch_14">
     <path d="M 401.25774 251.358 
L 469.401099 251.358 
Q 470.701099 251.358 470.701099 250.058 
L 470.701099 210.460812 
Q 470.701099 209.160812 469.401099 209.160812 
L 401.25774 209.160812 
Q 399.95774 209.160812 399.95774 210.460812 
L 399.95774 250.058 
Q 399.95774 251.358 401.25774 251.358 
z
" style="fill: #ffffff; opacity: 0.8; stroke: #cccccc; stroke-linejoin: miter"/>
    </g>
    <g id="line2d_69">
     <path d="M 402.55774 214.68175 
L 409.05774 214.68175 
L 415.55774 214.68175 
" style="fill: none; stroke: #1f77b4; stroke-width: 1.9; stroke-linecap: square"/>
    </g>
    <g id="text_39">
     <text style="font-size: 6.5px; font-family: 'Microsoft YaHei'; text-anchor: start" x="420.75774" y="216.95675" transform="rotate(-0 420.75774 216.95675)">Q=1 init: V(Q)</text>
    </g>
    <g id="line2d_70">
     <path d="M 402.55774 224.743547 
L 409.05774 224.743547 
L 415.55774 224.743547 
" style="fill: none; stroke-dasharray: 5.55,2.4; stroke-dashoffset: 0; stroke: #1f77b4; stroke-width: 1.5"/>
    </g>
    <g id="text_40">
     <text style="font-size: 6.5px; font-family: 'Microsoft YaHei'; text-anchor: start" x="420.75774" y="227.018547" transform="rotate(-0 420.75774 227.018547)">Q=1 init: V(QB)</text>
    </g>
    <g id="line2d_71">
     <path d="M 402.55774 234.805344 
L 409.05774 234.805344 
L 415.55774 234.805344 
" style="fill: none; stroke: #d62728; stroke-width: 1.9; stroke-linecap: square"/>
    </g>
    <g id="text_41">
     <text style="font-size: 6.5px; font-family: 'Microsoft YaHei'; text-anchor: start" x="420.75774" y="237.080344" transform="rotate(-0 420.75774 237.080344)">Q=0 init: V(Q)</text>
    </g>
    <g id="line2d_72">
     <path d="M 402.55774 244.867141 
L 409.05774 244.867141 
L 415.55774 244.867141 
" style="fill: none; stroke-dasharray: 5.55,2.4; stroke-dashoffset: 0; stroke: #d62728; stroke-width: 1.5"/>
    </g>
    <g id="text_42">
     <text style="font-size: 6.5px; font-family: 'Microsoft YaHei'; text-anchor: start" x="420.75774" y="247.142141" transform="rotate(-0 420.75774 247.142141)">Q=0 init: V(QB)</text>
    </g>
   </g>
  </g>
  <g id="text_43">
   <text style="font-size: 12px; font-family: 'Microsoft YaHei'; text-anchor: middle" x="377.023437" y="16.7925" transform="rotate(-0 377.023437 16.7925)">RC read-SNM noise-source sweep</text>
  </g>
 </g>
 <defs>
  <clipPath id="p1d3cc4ed42">
   <rect x="42.873438" y="75.552" width="297.609302" height="179.056"/>
  </clipPath>
  <clipPath id="p3afc949a20">
   <rect x="396.70774" y="75.552" width="342.250698" height="179.056"/>
  </clipPath>
 </defs>
</svg>
