<svg xmlns="http://www.w3.org/2000/svg" width="920" height="420" viewBox="0 0 920 420">
  <style>
    text { font-family: Arial, Helvetica, sans-serif; fill: #111827; }
    .axis { stroke: #374151; stroke-width: 1.2; }
    .grid { stroke: #e5e7eb; stroke-width: 1; }
    .no { fill: #2563eb; }
    .rc { fill: #0f766e; }
    .bad { fill: #b91c1c; }
    .title { font-size: 18px; font-weight: 700; }
    .label { font-size: 12px; }
    .note { font-size: 13px; fill: #4b5563; }
  </style>
  <text class="title" x="34" y="32">Hold-mode low-node residual and high-node retention</text>
  <text class="note" x="34" y="55">Data source: HSPICE .mt0; lower residual and smaller high-node droop are better.</text>
  <line class="axis" x1="90" y1="320" x2="840" y2="320"/>
  <line class="axis" x1="90" y1="90" x2="90" y2="320"/>
  <line class="grid" x1="90" y1="120" x2="840" y2="120"/>
  <line class="grid" x1="90" y1="170" x2="840" y2="170"/>
  <line class="grid" x1="90" y1="220" x2="840" y2="220"/>
  <line class="grid" x1="90" y1="270" x2="840" y2="270"/>
  <text class="label" x="28" y="124">5 uV</text>
  <text class="label" x="28" y="174">4 uV</text>
  <text class="label" x="28" y="224">3 uV</text>
  <text class="label" x="28" y="274">2 uV</text>
  <text class="label" x="50" y="324">0</text>
  <rect class="no" x="145" y="128.6" width="58" height="191.4"/>
  <rect class="rc" x="215" y="122.3" width="58" height="197.7"/>
  <text class="label" x="136" y="346">Hold-Q1 low residual</text>
  <text class="label" x="140" y="116">3.828 uV</text>
  <text class="label" x="210" y="110">3.955 uV</text>
  <rect class="no" x="370" y="128.6" width="58" height="191.4"/>
  <rect class="rc" x="440" y="122.4" width="58" height="197.6"/>
  <text class="label" x="360" y="346">Hold-Q0 low residual</text>
  <text class="label" x="365" y="116">3.828 uV</text>
  <text class="label" x="435" y="110">3.952 uV</text>
  <rect class="no" x="610" y="170" width="58" height="150"/>
  <rect class="rc" x="680" y="170" width="58" height="150"/>
  <text class="label" x="590" y="346">High-node droop</text>
  <text class="label" x="595" y="158">~3.0 uV</text>
  <text class="label" x="675" y="158">~3.0 uV</text>
  <rect class="no" x="650" y="70" width="14" height="10"/>
  <text class="label" x="670" y="80">No-RC</text>
  <rect class="rc" x="720" y="70" width="14" height="10"/>
  <text class="label" x="740" y="80">RC candidate</text>
  <text class="note" x="34" y="390">Original extracted-RC is not plotted because it failed matrix connectivity before valid measurement extraction.</text>
</svg>
